SplineFontDB: 3.0
FontName: Nobile
FullName: Nobile
FamilyName: Nobile
Weight: Book
Copyright: Copyright (c) 2010 by vernon adams. All rights reserved.
Version: 1.000
ItalicAngle: 0
UnderlinePosition: -292
UnderlineWidth: 40
Ascent: 1638
Descent: 410
sfntRevision: 0x00010000
LayerCount: 2
Layer: 0 1 "Back"  1
Layer: 1 1 "Fore"  0
XUID: [1021 759 1887733602 3920124]
FSType: 0
OS2Version: 2
OS2_WeightWidthSlopeOnly: 0
OS2_UseTypoMetrics: 1
CreationTime: 1275168240
ModificationTime: 1309442817
PfmFamily: 17
TTFWeight: 400
TTFWidth: 5
LineGap: 0
VLineGap: 0
Panose: 2 0 3 3 0 0 0 0 0 0
OS2TypoAscent: 927
OS2TypoAOffset: 1
OS2TypoDescent: -313
OS2TypoDOffset: 1
OS2TypoLinegap: 0
OS2WinAscent: 0
OS2WinAOffset: 1
OS2WinDescent: 0
OS2WinDOffset: 1
HheadAscent: 0
HheadAOffset: 1
HheadDescent: 0
HheadDOffset: 1
OS2SubXSize: 1331
OS2SubYSize: 1433
OS2SubXOff: 0
OS2SubYOff: 286
OS2SupXSize: 1331
OS2SupYSize: 1433
OS2SupXOff: 0
OS2SupYOff: 983
OS2StrikeYSize: 102
OS2StrikeYPos: 512
OS2Vendor: 'newt'
OS2CodePages: 00000001.00000000
OS2UnicodeRanges: 800000ef.5000204b.00000000.00000000
MarkAttachClasses: 1
DEI: 91125
TtTable: prep
PUSHW_1
 48
CALL
SVTCA[x-axis]
PUSHW_3
 4
 23
 50
CALL
SVTCA[x-axis]
PUSHW_8
 23
 60
 49
 38
 27
 17
 0
 56
CALL
PUSHW_8
 24
 66
 54
 42
 30
 18
 0
 56
CALL
PUSHW_8
 25
 52
 42
 33
 24
 14
 0
 56
CALL
PUSHW_8
 26
 41
 33
 26
 19
 11
 0
 56
CALL
SVTCA[y-axis]
PUSHW_8
 20
 79
 65
 51
 36
 22
 0
 56
CALL
PUSHW_8
 21
 86
 71
 55
 40
 24
 0
 56
CALL
PUSHW_8
 22
 49
 41
 32
 23
 14
 0
 56
CALL
SVTCA[y-axis]
PUSHW_3
 27
 4
 55
CALL
PUSHW_1
 19
DUP
RCVT
RDTG
ROUND[Black]
RTG
WCVTP
PUSHW_2
 2048
 2048
MUL
DUP
PUSHB_1
 10
SWAP
WS
DUP
PUSHB_1
 0
SWAP
WCVTF
PUSHB_1
 16
RCVT
DUP
DUP
PUSHB_1
 40
ADD
FLOOR
DUP
ROLL
NEQ
IF
PUSHB_1
 10
RS
MUL
SWAP
DIV
PUSHB_1
 9
SWAP
WS
PUSHB_4
 5
 6
 3
 2
CALL
PUSHB_4
 7
 12
 3
 2
CALL
PUSHB_4
 13
 18
 3
 2
CALL
ELSE
PUSHB_2
 9
 10
RS
WS
EIF
PUSHB_3
 11
 40
 2
RCVT
GT
WS
PUSHB_4
 7
 12
 4
 2
CALL
EndTTInstrs
TtTable: fpgm
PUSHB_1
 0

StartChar: .notdef
Encoding: 65536 -1 0
Width: 831
Flags: W
LayerCount: 2
Fore
SplineSet
144 0 m 1,0,-1
 144 1365 l 1,1,-1
 688 1365 l 1,2,-1
 688 0 l 1,3,-1
 144 0 l 1,0,-1
212 68 m 1,4,-1
 620 68 l 1,5,-1
 620 1297 l 1,6,-1
 212 1297 l 1,7,-1
 212 68 l 1,4,-1
EndSplineSet
EndChar

StartChar: exclam
Encoding: 33 33 4
Width: 842
Flags: W
LayerCount: 2
Fore
SplineSet
518 186 m 1,0,-1
 518 -16 l 1,1,-1
 309 -16 l 1,2,-1
 309 186 l 1,3,-1
 518 186 l 1,0,-1
483 399 m 1,4,-1
 359 399 l 1,5,-1
 309 1579 l 1,6,-1
 533 1579 l 1,7,-1
 483 399 l 1,4,-1
EndSplineSet
EndChar

StartChar: quotedbl
Encoding: 34 34 5
Width: 830
Flags: W
LayerCount: 2
Fore
SplineSet
470 1508 m 1,0,-1
 470 1579 l 1,1,-1
 698 1579 l 1,2,-1
 698 1508 l 1,3,-1
 638 1058 l 1,4,-1
 530 1058 l 1,5,-1
 470 1508 l 1,0,-1
132 1508 m 1,6,-1
 132 1579 l 1,7,-1
 360 1579 l 1,8,-1
 360 1508 l 1,9,-1
 300 1058 l 1,10,-1
 192 1058 l 1,11,-1
 132 1508 l 1,6,-1
EndSplineSet
EndChar

StartChar: numbersign
Encoding: 35 35 6
Width: 1043
Flags: W
LayerCount: 2
Fore
SplineSet
592 561 m 1,0,-1
 406 561 l 1,1,-1
 373 295 l 1,2,-1
 232 295 l 1,3,-1
 265 561 l 1,4,-1
 99 561 l 1,5,-1
 99 684 l 1,6,-1
 275 684 l 1,7,-1
 302 905 l 1,8,-1
 127 905 l 1,9,-1
 127 1030 l 1,10,-1
 316 1030 l 1,11,-1
 347 1309 l 1,12,-1
 486 1309 l 1,13,-1
 455 1030 l 1,14,-1
 644 1030 l 1,15,-1
 672 1307 l 1,16,-1
 814 1307 l 1,17,-1
 783 1030 l 1,18,-1
 943 1030 l 1,19,-1
 943 905 l 1,20,-1
 771 905 l 1,21,-1
 744 684 l 1,22,-1
 920 684 l 1,23,-1
 920 561 l 1,24,-1
 732 561 l 1,25,-1
 701 295 l 1,26,-1
 560 295 l 1,27,-1
 592 561 l 1,0,-1
418 684 m 1,28,-1
 601 684 l 1,29,-1
 627 905 l 1,30,-1
 445 905 l 1,31,-1
 418 684 l 1,28,-1
EndSplineSet
EndChar

StartChar: dollar
Encoding: 36 36 7
Width: 1242
Flags: W
LayerCount: 2
Fore
SplineSet
234 63 m 1,0,-1
 283 207 l 1,1,2
 294 203 294 203 309 197 c 0,3,4
 322 192 322 192 341 184.5 c 128,-1,5
 360 177 360 177 386 167 c 1,6,7
 441 153 441 153 490 143.5 c 128,-1,8
 539 134 539 134 583 129 c 1,9,-1
 583 572 l 1,10,-1
 477 595 l 2,11,12
 406 610 406 610 349.5 637 c 128,-1,13
 293 664 293 664 253 704.5 c 128,-1,14
 213 745 213 745 191.5 800.5 c 128,-1,15
 170 856 170 856 170 929 c 0,16,17
 170 971 170 971 181.5 1006 c 128,-1,18
 193 1041 193 1041 210.5 1070 c 128,-1,19
 228 1099 228 1099 249.5 1121 c 128,-1,20
 271 1143 271 1143 291 1159 c 0,21,22
 338 1195 338 1195 410 1216 c 128,-1,23
 482 1237 482 1237 583 1240 c 1,24,-1
 583 1390 l 1,25,-1
 686 1390 l 1,26,-1
 686 1236 l 1,27,28
 737 1235 737 1235 795 1227.5 c 128,-1,29
 853 1220 853 1220 902.5 1210.5 c 128,-1,30
 952 1201 952 1201 984.5 1190.5 c 128,-1,31
 1017 1180 1017 1180 1017 1172 c 2,32,-1
 1017 1171 l 1,33,-1
 965 1040 l 1,34,35
 960 1042 960 1042 955 1044 c 256,36,37
 950 1046 950 1046 943 1048 c 128,-1,38
 936 1050 936 1050 927 1054 c 1,39,-1
 886 1066 l 2,40,41
 836 1081 836 1081 836 1081 c 1,42,-1
 686 1098 l 1,43,-1
 686 709 l 1,44,-1
 718 698 l 1,45,46
 822 661 822 661 890 623 c 128,-1,47
 958 585 958 585 998.5 542 c 128,-1,48
 1039 499 1039 499 1055.5 449.5 c 128,-1,49
 1072 400 1072 400 1072 340 c 0,50,51
 1072 244 1072 244 1039.5 178 c 128,-1,52
 1007 112 1007 112 953 71 c 128,-1,53
 899 30 899 30 829.5 9 c 128,-1,54
 760 -12 760 -12 686 -18 c 1,55,-1
 686 -178 l 1,56,-1
 583 -178 l 1,57,-1
 583 -20 l 1,58,59
 458 -11 458 -11 380 15 c 2,60,-1
 234 63 l 1,0,-1
686 539 m 1,61,-1
 686 134 l 1,62,63
 736 135 736 135 777 149.5 c 128,-1,64
 818 164 818 164 847 190 c 128,-1,65
 876 216 876 216 891.5 251.5 c 128,-1,66
 907 287 907 287 907 329 c 0,67,68
 907 372 907 372 890.5 404.5 c 128,-1,69
 874 437 874 437 845.5 461 c 128,-1,70
 817 485 817 485 778 503 c 128,-1,71
 739 521 739 521 694 536 c 1,72,-1
 686 539 l 1,61,-1
583 745 m 1,73,-1
 583 1100 l 1,74,75
 534 1100 534 1100 499.5 1096 c 128,-1,76
 465 1092 465 1092 441 1084.5 c 128,-1,77
 417 1077 417 1077 401.5 1066 c 128,-1,78
 386 1055 386 1055 375 1042 c 0,79,80
 333 990 333 990 333 924 c 0,81,82
 333 898 333 898 341.5 876 c 128,-1,83
 350 854 350 854 370.5 834 c 128,-1,84
 391 814 391 814 424 795.5 c 128,-1,85
 457 777 457 777 507 759 c 1,86,-1
 583 745 l 1,73,-1
EndSplineSet
EndChar

StartChar: percent
Encoding: 37 37 8
Width: 1779
Flags: W
LayerCount: 2
Fore
SplineSet
1157 393 m 0,0,1
 1157 692 1157 692 1345 692 c 256,2,3
 1533 692 1533 692 1533 393 c 0,4,5
 1533 312 1533 312 1520.5 254 c 128,-1,6
 1508 196 1508 196 1484 159.5 c 128,-1,7
 1460 123 1460 123 1425 106 c 128,-1,8
 1390 89 1390 89 1345 89 c 256,9,10
 1300 89 1300 89 1265 106 c 128,-1,11
 1230 123 1230 123 1206 159.5 c 128,-1,12
 1182 196 1182 196 1169.5 254 c 128,-1,13
 1157 312 1157 312 1157 393 c 0,0,1
1024 372 m 0,14,15
 1024 333 1024 333 1030 288.5 c 128,-1,16
 1036 244 1036 244 1050 201 c 128,-1,17
 1064 158 1064 158 1087.5 118 c 128,-1,18
 1111 78 1111 78 1146.5 47.5 c 128,-1,19
 1182 17 1182 17 1231 -1.5 c 128,-1,20
 1280 -20 1280 -20 1345 -21 c 1,21,22
 1411 -21 1411 -21 1460.5 -2 c 128,-1,23
 1510 17 1510 17 1545.5 49 c 128,-1,24
 1581 81 1581 81 1604.5 121.5 c 128,-1,25
 1628 162 1628 162 1641.5 206 c 128,-1,26
 1655 250 1655 250 1660.5 293 c 128,-1,27
 1666 336 1666 336 1666 372 c 0,28,29
 1666 481 1666 481 1644 561 c 128,-1,30
 1622 641 1622 641 1580.5 693.5 c 128,-1,31
 1539 746 1539 746 1479.5 771 c 128,-1,32
 1420 796 1420 796 1345 796 c 256,33,34
 1270 796 1270 796 1210.5 771 c 128,-1,35
 1151 746 1151 746 1109.5 693.5 c 128,-1,36
 1068 641 1068 641 1046 561 c 128,-1,37
 1024 481 1024 481 1024 372 c 0,14,15
246 1092 m 0,38,39
 246 1391 246 1391 434 1391 c 256,40,41
 622 1391 622 1391 622 1092 c 0,42,43
 622 1011 622 1011 609.5 953 c 128,-1,44
 597 895 597 895 573 858.5 c 128,-1,45
 549 822 549 822 514 805 c 128,-1,46
 479 788 479 788 434 788 c 256,47,48
 389 788 389 788 354 805 c 128,-1,49
 319 822 319 822 295 858.5 c 128,-1,50
 271 895 271 895 258.5 953 c 128,-1,51
 246 1011 246 1011 246 1092 c 0,38,39
113 1071 m 0,52,53
 113 1032 113 1032 119 987.5 c 128,-1,54
 125 943 125 943 139 900 c 128,-1,55
 153 857 153 857 176.5 817 c 128,-1,56
 200 777 200 777 235.5 746.5 c 128,-1,57
 271 716 271 716 320 697.5 c 128,-1,58
 369 679 369 679 434 678 c 1,59,60
 500 678 500 678 549.5 697 c 128,-1,61
 599 716 599 716 634.5 748 c 128,-1,62
 670 780 670 780 693.5 820.5 c 128,-1,63
 717 861 717 861 730.5 905 c 128,-1,64
 744 949 744 949 749.5 992 c 128,-1,65
 755 1035 755 1035 755 1071 c 0,66,67
 755 1180 755 1180 733 1260 c 128,-1,68
 711 1340 711 1340 669.5 1392.5 c 128,-1,69
 628 1445 628 1445 568.5 1470 c 128,-1,70
 509 1495 509 1495 434 1495 c 256,71,72
 359 1495 359 1495 299.5 1470 c 128,-1,73
 240 1445 240 1445 198.5 1392.5 c 128,-1,74
 157 1340 157 1340 135 1260 c 128,-1,75
 113 1180 113 1180 113 1071 c 0,52,53
479 37 m 1,76,-1
 1161 1497 l 1,77,-1
 1290 1430 l 1,78,-1
 609 -22 l 1,79,-1
 479 37 l 1,76,-1
EndSplineSet
EndChar

StartChar: ampersand
Encoding: 38 38 9
Width: 1617
Flags: W
LayerCount: 2
Fore
SplineSet
901 1119 m 0,0,1
 901 1165 901 1165 884 1200.5 c 128,-1,2
 867 1236 867 1236 835.5 1260.5 c 128,-1,3
 804 1285 804 1285 759.5 1297.5 c 128,-1,4
 715 1310 715 1310 660 1310 c 0,5,6
 604 1310 604 1310 562.5 1300.5 c 128,-1,7
 521 1291 521 1291 492.5 1270 c 128,-1,8
 464 1249 464 1249 447.5 1215 c 128,-1,9
 431 1181 431 1181 427 1131 c 1,10,-1
 427 1121 l 2,11,12
 427 1087 427 1087 440.5 1056.5 c 128,-1,13
 454 1026 454 1026 475 1000 c 128,-1,14
 496 974 496 974 519.5 952.5 c 128,-1,15
 543 931 543 931 564 915.5 c 128,-1,16
 585 900 585 900 598.5 891.5 c 128,-1,17
 612 883 612 883 612 883 c 1,18,19
 696 908 696 908 751.5 930 c 128,-1,20
 807 952 807 952 840 977.5 c 128,-1,21
 873 1003 873 1003 887 1036.5 c 128,-1,22
 901 1070 901 1070 901 1119 c 0,0,1
696 -39 m 0,23,24
 562 -39 562 -39 456.5 -8.5 c 128,-1,25
 351 22 351 22 278.5 79 c 128,-1,26
 206 136 206 136 167.5 216.5 c 128,-1,27
 129 297 129 297 129 396 c 0,28,29
 129 558 129 558 211 665.5 c 128,-1,30
 293 773 293 773 463 822 c 1,31,32
 463 822 463 822 448 832.5 c 128,-1,33
 433 843 433 843 410.5 862 c 128,-1,34
 388 881 388 881 362 907.5 c 128,-1,35
 336 934 336 934 313.5 966.5 c 128,-1,36
 291 999 291 999 276 1036 c 128,-1,37
 261 1073 261 1073 261 1113 c 0,38,39
 261 1187 261 1187 287.5 1248 c 128,-1,40
 314 1309 314 1309 365 1353 c 128,-1,41
 416 1397 416 1397 490.5 1421 c 128,-1,42
 565 1445 565 1445 660 1445 c 0,43,44
 759 1445 759 1445 834 1419.5 c 128,-1,45
 909 1394 909 1394 959.5 1350 c 128,-1,46
 1010 1306 1010 1306 1035.5 1245.5 c 128,-1,47
 1061 1185 1061 1185 1061 1115 c 0,48,49
 1061 1043 1061 1043 1037 992 c 128,-1,50
 1013 941 1013 941 967 903 c 128,-1,51
 921 865 921 865 854 836.5 c 128,-1,52
 787 808 787 808 702 781 c 1,53,-1
 1197 391 l 1,54,55
 1204 494 1204 494 1207.5 594.5 c 128,-1,56
 1211 695 1211 695 1211 796 c 1,57,-1
 1375 796 l 1,58,59
 1375 734 1375 734 1371.5 666 c 128,-1,60
 1368 598 1368 598 1362.5 536 c 128,-1,61
 1357 474 1357 474 1351 422.5 c 128,-1,62
 1345 371 1345 371 1340 341 c 2,63,-1
 1328 277 l 1,64,-1
 1554 95 l 1,65,-1
 1468 -7 l 1,66,-1
 1257 170 l 1,67,68
 1228 115 1228 115 1166.5 75.5 c 128,-1,69
 1105 36 1105 36 1026.5 10.5 c 128,-1,70
 948 -15 948 -15 861.5 -27 c 128,-1,71
 775 -39 775 -39 696 -39 c 0,23,24
311 418 m 0,72,73
 311 334 311 334 332 274 c 128,-1,74
 353 214 353 214 399 175 c 128,-1,75
 445 136 445 136 518.5 118 c 128,-1,76
 592 100 592 100 696 100 c 0,77,78
 1046 100 1046 100 1145 256 c 1,79,-1
 557 726 l 1,80,81
 311 673 311 673 311 418 c 0,72,73
EndSplineSet
EndChar

StartChar: quotesingle
Encoding: 39 39 10
Width: 621
Flags: W
LayerCount: 2
Fore
SplineSet
197 1508 m 1,0,-1
 197 1579 l 1,1,-1
 425 1579 l 1,2,-1
 425 1508 l 1,3,-1
 365 1058 l 1,4,-1
 257 1058 l 1,5,-1
 197 1508 l 1,0,-1
EndSplineSet
EndChar

StartChar: parenleft
Encoding: 40 40 11
Width: 828
Flags: W
LayerCount: 2
Fore
SplineSet
664 1493 m 1,0,1
 623 1457 623 1457 571 1389 c 128,-1,2
 519 1321 519 1321 472.5 1221 c 128,-1,3
 426 1121 426 1121 394 989 c 128,-1,4
 362 857 362 857 362 694 c 256,5,6
 362 531 362 531 391.5 398.5 c 128,-1,7
 421 266 421 266 464.5 166.5 c 128,-1,8
 508 67 508 67 558 0.5 c 128,-1,9
 608 -66 608 -66 648 -97 c 1,10,-1
 565 -205 l 1,11,12
 540 -189 540 -189 501.5 -154.5 c 128,-1,13
 463 -120 463 -120 419.5 -66.5 c 128,-1,14
 376 -13 376 -13 333 60 c 128,-1,15
 290 133 290 133 255 227.5 c 128,-1,16
 220 322 220 322 198 439 c 128,-1,17
 176 556 176 556 176 696 c 0,18,19
 176 824 176 824 195 934.5 c 128,-1,20
 214 1045 214 1045 245.5 1137 c 128,-1,21
 277 1229 277 1229 317 1303.5 c 128,-1,22
 357 1378 357 1378 399 1435 c 128,-1,23
 441 1492 441 1492 481 1532 c 128,-1,24
 521 1572 521 1572 553 1595 c 1,25,-1
 664 1493 l 1,0,1
EndSplineSet
EndChar

StartChar: parenright
Encoding: 41 41 12
Width: 829
Flags: W
LayerCount: 2
Fore
SplineSet
466 694 m 0,0,1
 466 854 466 854 437.5 985.5 c 128,-1,2
 409 1117 409 1117 366 1217.5 c 128,-1,3
 323 1318 323 1318 273 1387 c 128,-1,4
 223 1456 223 1456 181 1491 c 1,5,-1
 264 1599 l 1,6,7
 277 1590 277 1590 311.5 1561.5 c 128,-1,8
 346 1533 346 1533 389 1483.5 c 128,-1,9
 432 1434 432 1434 478.5 1362 c 128,-1,10
 525 1290 525 1290 564 1194.5 c 128,-1,11
 603 1099 603 1099 628 978 c 128,-1,12
 653 857 653 857 653 710 c 0,13,14
 653 572 653 572 633.5 457 c 128,-1,15
 614 342 614 342 582 248 c 128,-1,16
 550 154 550 154 508.5 80 c 128,-1,17
 467 6 467 6 424 -49.5 c 128,-1,18
 381 -105 381 -105 339 -143.5 c 128,-1,19
 297 -182 297 -182 264 -205 c 1,20,-1
 164 -99 l 1,21,22
 206 -63 206 -63 258 6 c 128,-1,23
 310 75 310 75 356.5 175.5 c 128,-1,24
 403 276 403 276 434.5 406 c 128,-1,25
 466 536 466 536 466 694 c 0,0,1
EndSplineSet
EndChar

StartChar: asterisk
Encoding: 42 42 13
Width: 912
Flags: W
LayerCount: 2
Fore
SplineSet
456 1292 m 1,0,-1
 595 1567 l 1,1,-1
 698 1509 l 1,2,-1
 540 1237 l 1,3,-1
 851 1237 l 1,4,-1
 851 1145 l 1,5,-1
 542 1145 l 1,6,-1
 712 872 l 1,7,-1
 610 815 l 1,8,-1
 456 1090 l 1,9,-1
 302 815 l 1,10,-1
 200 872 l 1,11,-1
 370 1145 l 1,12,-1
 61 1145 l 1,13,-1
 61 1237 l 1,14,-1
 372 1237 l 1,15,-1
 214 1509 l 1,16,-1
 317 1567 l 1,17,-1
 456 1292 l 1,0,-1
EndSplineSet
EndChar

StartChar: plus
Encoding: 43 43 14
Width: 1202
Flags: W
LayerCount: 2
Fore
SplineSet
985 518 m 1,0,-1
 671 518 l 1,1,-1
 671 174 l 1,2,-1
 530 174 l 1,3,-1
 530 518 l 1,4,-1
 217 518 l 1,5,-1
 217 651 l 1,6,-1
 530 651 l 1,7,-1
 530 995 l 1,8,-1
 671 995 l 1,9,-1
 671 651 l 1,10,-1
 985 651 l 1,11,-1
 985 518 l 1,0,-1
EndSplineSet
EndChar

StartChar: comma
Encoding: 44 44 15
Width: 616
Flags: W
LayerCount: 2
Fore
SplineSet
160 0 m 1,0,-1
 160 243 l 1,1,-1
 441 243 l 1,2,-1
 441 44 l 2,3,4
 441 -90 441 -90 382.5 -178.5 c 128,-1,5
 324 -267 324 -267 212 -303 c 1,6,-1
 161 -209 l 1,7,8
 199 -193 199 -193 224 -173.5 c 128,-1,9
 249 -154 249 -154 264 -129.5 c 128,-1,10
 279 -105 279 -105 285 -73.5 c 128,-1,11
 291 -42 291 -42 291 0 c 1,12,-1
 160 0 l 1,0,-1
EndSplineSet
EndChar

StartChar: hyphen
Encoding: 45 45 16
Width: 876
Flags: W
LayerCount: 2
Fore
SplineSet
776 508 m 1,0,-1
 100 508 l 1,1,-1
 100 665 l 1,2,-1
 776 665 l 1,3,-1
 776 508 l 1,0,-1
EndSplineSet
EndChar

StartChar: period
Encoding: 46 46 17
Width: 651
Flags: W
LayerCount: 2
Fore
SplineSet
327 213 m 0,0,1
 375 213 375 213 405 179.5 c 128,-1,2
 435 146 435 146 435 98 c 256,3,4
 435 50 435 50 405 16.5 c 128,-1,5
 375 -17 375 -17 327 -17 c 0,6,7
 302 -17 302 -17 281.5 -8 c 128,-1,8
 261 1 261 1 246 17 c 128,-1,9
 231 33 231 33 223 54 c 128,-1,10
 215 75 215 75 215 98 c 256,11,12
 215 121 215 121 223 142 c 128,-1,13
 231 163 231 163 246 178.5 c 128,-1,14
 261 194 261 194 281.5 203.5 c 128,-1,15
 302 213 302 213 327 213 c 0,0,1
EndSplineSet
EndChar

StartChar: slash
Encoding: 47 47 18
Width: 794
Flags: W
LayerCount: 2
Fore
SplineSet
0 -117 m 1,0,-1
 625 1731 l 1,1,-1
 794 1669 l 1,2,-1
 170 -179 l 1,3,-1
 0 -117 l 1,0,-1
EndSplineSet
EndChar

StartChar: zero
Encoding: 48 48 19
Width: 1409
Flags: W
LayerCount: 2
Fore
SplineSet
702 1069 m 0,0,1
 589 1069 589 1069 515.5 1028 c 128,-1,2
 442 987 442 987 398.5 920 c 128,-1,3
 355 853 355 853 338 767.5 c 128,-1,4
 321 682 321 682 321 592 c 0,5,6
 321 491 321 491 338 416 c 128,-1,7
 355 341 355 341 384 287.5 c 128,-1,8
 413 234 413 234 451.5 199.5 c 128,-1,9
 490 165 490 165 532 145.5 c 128,-1,10
 574 126 574 126 618 118.5 c 128,-1,11
 662 111 662 111 702 111 c 0,12,13
 780 111 780 111 838.5 131 c 128,-1,14
 897 151 897 151 940 185.5 c 128,-1,15
 983 220 983 220 1011 267.5 c 128,-1,16
 1039 315 1039 315 1056 370 c 128,-1,17
 1073 425 1073 425 1080 485 c 128,-1,18
 1087 545 1087 545 1087 606 c 0,19,20
 1087 657 1087 657 1080 711.5 c 128,-1,21
 1073 766 1073 766 1056.5 817.5 c 128,-1,22
 1040 869 1040 869 1012 914.5 c 128,-1,23
 984 960 984 960 941 994.5 c 128,-1,24
 898 1029 898 1029 839 1049 c 128,-1,25
 780 1069 780 1069 702 1069 c 0,0,1
1273 590 m 0,26,27
 1273 462 1273 462 1237.5 349 c 128,-1,28
 1202 236 1202 236 1130.5 151.5 c 128,-1,29
 1059 67 1059 67 952 18 c 128,-1,30
 845 -31 845 -31 702 -31 c 0,31,32
 589 -31 589 -31 503 -1.5 c 128,-1,33
 417 28 417 28 354 77.5 c 128,-1,34
 291 127 291 127 249 191.5 c 128,-1,35
 207 256 207 256 181.5 325 c 128,-1,36
 156 394 156 394 145.5 462.5 c 128,-1,37
 135 531 135 531 135 590 c 0,38,39
 135 723 135 723 171 836.5 c 128,-1,40
 207 950 207 950 278 1033 c 128,-1,41
 349 1116 349 1116 455 1163 c 128,-1,42
 561 1210 561 1210 702 1210 c 0,43,44
 815 1210 815 1210 901.5 1181.5 c 128,-1,45
 988 1153 988 1153 1051.5 1104.5 c 128,-1,46
 1115 1056 1115 1056 1157.5 993 c 128,-1,47
 1200 930 1200 930 1225.5 861 c 128,-1,48
 1251 792 1251 792 1262 722 c 128,-1,49
 1273 652 1273 652 1273 590 c 0,26,27
EndSplineSet
EndChar

StartChar: one
Encoding: 49 49 20
Width: 800
Flags: W
LayerCount: 2
Fore
SplineSet
364 0 m 1,0,-1
 364 1057 l 1,1,-1
 157 957 l 1,2,-1
 104 1083 l 1,3,-1
 361 1202 l 1,4,-1
 551 1202 l 1,5,-1
 551 0 l 1,6,-1
 364 0 l 1,0,-1
EndSplineSet
EndChar

StartChar: two
Encoding: 50 50 21
Width: 1170
Flags: W
LayerCount: 2
Fore
SplineSet
369 152 m 1,0,-1
 965 152 l 1,1,-1
 965 0 l 1,2,-1
 150 0 l 1,3,-1
 150 146 l 1,4,-1
 558 480 l 2,5,6
 634 543 634 543 681.5 591.5 c 128,-1,7
 729 640 729 640 756 681.5 c 128,-1,8
 783 723 783 723 793 762 c 128,-1,9
 803 801 803 801 803 846 c 0,10,11
 803 949 803 949 731.5 1004 c 128,-1,12
 660 1059 660 1059 527 1059 c 0,13,14
 500 1059 500 1059 467.5 1054 c 128,-1,15
 435 1049 435 1049 403.5 1041.5 c 128,-1,16
 372 1034 372 1034 344.5 1025.5 c 128,-1,17
 317 1017 317 1017 299 1009 c 2,18,-1
 262 992 l 1,19,-1
 209 1108 l 1,20,21
 209 1108 209 1108 229 1122.5 c 128,-1,22
 249 1137 249 1137 290.5 1153.5 c 128,-1,23
 332 1170 332 1170 396 1184 c 128,-1,24
 460 1198 460 1198 549 1198 c 0,25,26
 632 1198 632 1198 695.5 1183.5 c 128,-1,27
 759 1169 759 1169 805 1143.5 c 128,-1,28
 851 1118 851 1118 882 1083.5 c 128,-1,29
 913 1049 913 1049 931.5 1010 c 128,-1,30
 950 971 950 971 957.5 928.5 c 128,-1,31
 965 886 965 886 965 845 c 0,32,33
 965 790 965 790 951 737.5 c 128,-1,34
 937 685 937 685 901 629 c 128,-1,35
 865 573 865 573 803.5 511 c 128,-1,36
 742 449 742 449 648 376 c 1,37,-1
 369 152 l 1,0,-1
EndSplineSet
EndChar

StartChar: three
Encoding: 51 51 22
Width: 1187
Flags: W
LayerCount: 2
Fore
SplineSet
819 843 m 0,0,1
 819 958 819 958 748 1010.5 c 128,-1,2
 677 1063 677 1063 530 1063 c 0,3,4
 495 1063 495 1063 456.5 1058 c 128,-1,5
 418 1053 418 1053 383 1045 c 128,-1,6
 348 1037 348 1037 318.5 1028 c 128,-1,7
 289 1019 289 1019 271 1010 c 2,8,-1
 233 992 l 1,9,-1
 183 1125 l 1,10,-1
 234 1147 l 2,11,12
 248 1153 248 1153 282.5 1163 c 128,-1,13
 317 1173 317 1173 360.5 1182.5 c 128,-1,14
 404 1192 404 1192 450.5 1199 c 128,-1,15
 497 1206 497 1206 536 1206 c 0,16,17
 580 1206 580 1206 630 1200.5 c 128,-1,18
 680 1195 680 1195 730 1180.5 c 128,-1,19
 780 1166 780 1166 826 1141.5 c 128,-1,20
 872 1117 872 1117 907 1079 c 128,-1,21
 942 1041 942 1041 963 988.5 c 128,-1,22
 984 936 984 936 984 866 c 0,23,24
 984 806 984 806 969 759 c 128,-1,25
 954 712 954 712 929.5 676 c 128,-1,26
 905 640 905 640 874 615.5 c 128,-1,27
 843 591 843 591 811 575 c 128,-1,28
 779 559 779 559 748.5 552 c 128,-1,29
 718 545 718 545 695 545 c 1,30,31
 738 536 738 536 794.5 514.5 c 128,-1,32
 851 493 851 493 902 450 c 128,-1,33
 953 407 953 407 988 338 c 128,-1,34
 1023 269 1023 269 1023 166 c 0,35,36
 1023 71 1023 71 981.5 2.5 c 128,-1,37
 940 -66 940 -66 873.5 -110.5 c 128,-1,38
 807 -155 807 -155 723 -176.5 c 128,-1,39
 639 -198 639 -198 555 -198 c 0,40,41
 505 -198 505 -198 452 -191 c 128,-1,42
 399 -184 399 -184 350.5 -173.5 c 128,-1,43
 302 -163 302 -163 262.5 -150 c 128,-1,44
 223 -137 223 -137 200 -126 c 2,45,-1
 150 -102 l 1,46,-1
 204 31 l 1,47,48
 206 30 206 30 236 15.5 c 128,-1,49
 266 1 266 1 314.5 -15.5 c 128,-1,50
 363 -32 363 -32 426.5 -45.5 c 128,-1,51
 490 -59 490 -59 559 -59 c 0,52,53
 699 -59 699 -59 771 3.5 c 128,-1,54
 843 66 843 66 843 186 c 0,55,56
 843 433 843 433 507 471 c 1,57,-1
 507 614 l 1,58,59
 565 614 565 614 621 625 c 128,-1,60
 677 636 677 636 721 662 c 128,-1,61
 765 688 765 688 792 732.5 c 128,-1,62
 819 777 819 777 819 843 c 0,0,1
EndSplineSet
EndChar

StartChar: four
Encoding: 52 52 23
Width: 1247
Flags: W
LayerCount: 2
Fore
SplineSet
784 1208 m 1,0,-1
 946 1169 l 1,1,-1
 946 207 l 1,2,-1
 1132 207 l 1,3,-1
 1132 68 l 1,4,-1
 946 68 l 1,5,-1
 946 -260 l 1,6,-1
 775 -260 l 1,7,-1
 775 68 l 1,8,-1
 128 68 l 1,9,-1
 100 205 l 1,10,-1
 784 1208 l 1,0,-1
775 930 m 1,11,-1
 285 205 l 1,12,-1
 775 205 l 1,13,-1
 775 930 l 1,11,-1
EndSplineSet
EndChar

StartChar: five
Encoding: 53 53 24
Width: 1209
Flags: W
LayerCount: 2
Fore
SplineSet
541 -56 m 0,0,1
 858 -56 858 -56 858 244 c 0,2,3
 858 395 858 395 781.5 478.5 c 128,-1,4
 705 562 705 562 561 562 c 0,5,6
 454 562 454 562 262 468 c 1,7,-1
 194 537 l 1,8,-1
 194 1169 l 1,9,-1
 942 1169 l 1,10,-1
 942 1018 l 1,11,-1
 339 1018 l 1,12,-1
 339 622 l 2,13,14
 339 621 339 621 352.5 633 c 128,-1,15
 366 645 366 645 395 659.5 c 128,-1,16
 424 674 424 674 469.5 686 c 128,-1,17
 515 698 515 698 579 698 c 0,18,19
 679 698 679 698 762 666 c 128,-1,20
 845 634 845 634 904.5 575.5 c 128,-1,21
 964 517 964 517 997 434 c 128,-1,22
 1030 351 1030 351 1030 248 c 0,23,24
 1030 143 1030 143 996 59 c 128,-1,25
 962 -25 962 -25 898.5 -84.5 c 128,-1,26
 835 -144 835 -144 744 -175.5 c 128,-1,27
 653 -207 653 -207 539 -207 c 0,28,29
 458 -207 458 -207 388.5 -192 c 128,-1,30
 319 -177 319 -177 267.5 -159 c 128,-1,31
 216 -141 216 -141 187 -127 c 128,-1,32
 158 -113 158 -113 158 -115 c 2,33,-1
 209 31 l 1,34,-1
 215 28 l 2,35,36
 227 22 227 22 259 8 c 128,-1,37
 291 -6 291 -6 336 -20 c 128,-1,38
 381 -34 381 -34 434 -45 c 128,-1,39
 487 -56 487 -56 541 -56 c 0,0,1
EndSplineSet
EndChar

StartChar: six
Encoding: 54 54 25
Width: 1277
Flags: W
LayerCount: 2
Fore
SplineSet
972 335 m 0,0,1
 972 417 972 417 949 477.5 c 128,-1,2
 926 538 926 538 886.5 578 c 128,-1,3
 847 618 847 618 794.5 637.5 c 128,-1,4
 742 657 742 657 682 657 c 0,5,6
 624 657 624 657 566.5 642 c 128,-1,7
 509 627 509 627 460.5 606 c 128,-1,8
 412 585 412 585 376.5 562 c 128,-1,9
 341 539 341 539 327 523 c 1,10,11
 321 485 321 485 321 401 c 0,12,13
 321 356 321 356 326 307.5 c 128,-1,14
 331 259 331 259 344.5 212.5 c 128,-1,15
 358 166 358 166 381.5 125 c 128,-1,16
 405 84 405 84 441.5 53 c 128,-1,17
 478 22 478 22 528.5 4 c 128,-1,18
 579 -14 579 -14 648 -14 c 0,19,20
 737 -14 737 -14 799 18 c 128,-1,21
 861 50 861 50 899.5 100.5 c 128,-1,22
 938 151 938 151 955 213 c 128,-1,23
 972 275 972 275 972 335 c 0,0,1
143 425 m 0,24,25
 143 554 143 554 170.5 664.5 c 128,-1,26
 198 775 198 775 246.5 867.5 c 128,-1,27
 295 960 295 960 362 1034 c 128,-1,28
 429 1108 429 1108 508.5 1164 c 128,-1,29
 588 1220 588 1220 676.5 1258.5 c 128,-1,30
 765 1297 765 1297 858 1319 c 1,31,-1
 901 1174 l 1,32,33
 849 1163 849 1163 791 1142.5 c 128,-1,34
 733 1122 733 1122 676 1091 c 128,-1,35
 619 1060 619 1060 565 1018 c 128,-1,36
 511 976 511 976 466 921.5 c 128,-1,37
 421 867 421 867 388.5 799 c 128,-1,38
 356 731 356 731 341 649 c 1,39,40
 462 793 462 793 682 793 c 0,41,42
 790 793 790 793 876 759 c 128,-1,43
 962 725 962 725 1022.5 664.5 c 128,-1,44
 1083 604 1083 604 1115.5 519.5 c 128,-1,45
 1148 435 1148 435 1148 335 c 256,46,47
 1148 235 1148 235 1115.5 145.5 c 128,-1,48
 1083 56 1083 56 1020 -11 c 128,-1,49
 957 -78 957 -78 863.5 -117 c 128,-1,50
 770 -156 770 -156 648 -156 c 0,51,52
 524 -156 524 -156 429.5 -115 c 128,-1,53
 335 -74 335 -74 271.5 1.5 c 128,-1,54
 208 77 208 77 175.5 184.5 c 128,-1,55
 143 292 143 292 143 425 c 0,24,25
EndSplineSet
EndChar

StartChar: seven
Encoding: 55 55 26
Width: 1236
Flags: W
LayerCount: 2
Fore
SplineSet
1004 1229 m 1,0,-1
 1061 1107 l 1,1,-1
 489 -176 l 1,2,-1
 321 -100 l 1,3,-1
 846 1074 l 1,4,-1
 168 1074 l 1,5,-1
 168 1229 l 1,6,-1
 1004 1229 l 1,0,-1
EndSplineSet
EndChar

StartChar: eight
Encoding: 56 56 27
Width: 1225
Flags: W
LayerCount: 2
Fore
SplineSet
618 1334 m 0,0,1
 718 1334 718 1334 804 1309.5 c 128,-1,2
 890 1285 890 1285 952 1238 c 128,-1,3
 1014 1191 1014 1191 1049.5 1122.5 c 128,-1,4
 1085 1054 1085 1054 1085 966 c 0,5,6
 1085 894 1085 894 1062.5 839.5 c 128,-1,7
 1040 785 1040 785 1003 745 c 128,-1,8
 966 705 966 705 919 678 c 128,-1,9
 872 651 872 651 823 634 c 1,10,11
 948 595 948 595 1016.5 492.5 c 128,-1,12
 1085 390 1085 390 1085 231 c 0,13,14
 1085 137 1085 137 1050.5 66 c 128,-1,15
 1016 -5 1016 -5 954 -52.5 c 128,-1,16
 892 -100 892 -100 806.5 -124 c 128,-1,17
 721 -148 721 -148 618 -148 c 0,18,19
 519 -148 519 -148 432 -125 c 128,-1,20
 345 -102 345 -102 279.5 -55 c 128,-1,21
 214 -8 214 -8 176.5 63.5 c 128,-1,22
 139 135 139 135 139 233 c 0,23,24
 139 392 139 392 207.5 494.5 c 128,-1,25
 276 597 276 597 401 636 c 1,26,27
 353 652 353 652 306.5 678.5 c 128,-1,28
 260 705 260 705 222.5 745 c 128,-1,29
 185 785 185 785 162 840 c 128,-1,30
 139 895 139 895 139 968 c 0,31,32
 139 1056 139 1056 175.5 1124 c 128,-1,33
 212 1192 212 1192 276.5 1238.5 c 128,-1,34
 341 1285 341 1285 428.5 1309.5 c 128,-1,35
 516 1334 516 1334 618 1334 c 0,0,1
618 -9 m 0,36,37
 705 -9 705 -9 761 9 c 128,-1,38
 817 27 817 27 849.5 61 c 128,-1,39
 882 95 882 95 894.5 143.5 c 128,-1,40
 907 192 907 192 907 253 c 0,41,42
 907 322 907 322 885.5 380.5 c 128,-1,43
 864 439 864 439 825.5 482.5 c 128,-1,44
 787 526 787 526 734 550.5 c 128,-1,45
 681 575 681 575 618 575 c 0,46,47
 553 575 553 575 498 551 c 128,-1,48
 443 527 443 527 403 484.5 c 128,-1,49
 363 442 363 442 340 383 c 128,-1,50
 317 324 317 324 317 255 c 0,51,52
 317 191 317 191 332 142 c 128,-1,53
 347 93 347 93 382.5 59.5 c 128,-1,54
 418 26 418 26 475.5 8.5 c 128,-1,55
 533 -9 533 -9 618 -9 c 0,36,37
618 691 m 0,56,57
 676 691 676 691 728.5 711.5 c 128,-1,58
 781 732 781 732 821 769 c 128,-1,59
 861 806 861 806 884 855.5 c 128,-1,60
 907 905 907 905 907 964 c 0,61,62
 907 1032 907 1032 883 1077.5 c 128,-1,63
 859 1123 859 1123 818.5 1150 c 128,-1,64
 778 1177 778 1177 726 1188 c 128,-1,65
 674 1199 674 1199 618 1199 c 0,66,67
 565 1199 565 1199 511.5 1189 c 128,-1,68
 458 1179 458 1179 414.5 1153 c 128,-1,69
 371 1127 371 1127 344 1081.5 c 128,-1,70
 317 1036 317 1036 317 966 c 0,71,72
 317 907 317 907 341.5 856.5 c 128,-1,73
 366 806 366 806 407.5 769.5 c 128,-1,74
 449 733 449 733 503.5 712 c 128,-1,75
 558 691 558 691 618 691 c 0,56,57
EndSplineSet
EndChar

StartChar: nine
Encoding: 57 57 28
Width: 1278
Flags: W
LayerCount: 2
Fore
SplineSet
305 823 m 0,0,1
 305 741 305 741 328 680.5 c 128,-1,2
 351 620 351 620 390.5 580 c 128,-1,3
 430 540 430 540 482.5 520.5 c 128,-1,4
 535 501 535 501 595 501 c 0,5,6
 653 501 653 501 710.5 515.5 c 128,-1,7
 768 530 768 530 816.5 551 c 128,-1,8
 865 572 865 572 900.5 595 c 128,-1,9
 936 618 936 618 950 635 c 1,10,11
 956 672 956 672 956 757 c 0,12,13
 956 802 956 802 951 850.5 c 128,-1,14
 946 899 946 899 932.5 945 c 128,-1,15
 919 991 919 991 895.5 1032.5 c 128,-1,16
 872 1074 872 1074 835.5 1105 c 128,-1,17
 799 1136 799 1136 748 1154 c 128,-1,18
 697 1172 697 1172 629 1172 c 0,19,20
 540 1172 540 1172 478.5 1140 c 128,-1,21
 417 1108 417 1108 378.5 1058 c 128,-1,22
 340 1008 340 1008 322.5 946 c 128,-1,23
 305 884 305 884 305 823 c 0,0,1
1134 733 m 0,24,25
 1134 605 1134 605 1107 495 c 128,-1,26
 1080 385 1080 385 1032 293 c 128,-1,27
 984 201 984 201 917.5 126.5 c 128,-1,28
 851 52 851 52 771.5 -4.5 c 128,-1,29
 692 -61 692 -61 602.5 -100 c 128,-1,30
 513 -139 513 -139 419 -161 c 1,31,-1
 376 -16 l 1,32,33
 430 -5 430 -5 488.5 16 c 128,-1,34
 547 37 547 37 604 68.5 c 128,-1,35
 661 100 661 100 714.5 142.5 c 128,-1,36
 768 185 768 185 812.5 239.5 c 128,-1,37
 857 294 857 294 889 361 c 128,-1,38
 921 428 921 428 936 509 c 1,39,40
 814 365 814 365 595 365 c 0,41,42
 487 365 487 365 400.5 398.5 c 128,-1,43
 314 432 314 432 253.5 493 c 128,-1,44
 193 554 193 554 161 638 c 128,-1,45
 129 722 129 722 129 823 c 0,46,47
 129 923 129 923 161.5 1012.5 c 128,-1,48
 194 1102 194 1102 257 1169 c 128,-1,49
 320 1236 320 1236 413.5 1275 c 128,-1,50
 507 1314 507 1314 629 1314 c 0,51,52
 753 1314 753 1314 847.5 1273 c 128,-1,53
 942 1232 942 1232 1005.5 1156.5 c 128,-1,54
 1069 1081 1069 1081 1101.5 973.5 c 128,-1,55
 1134 866 1134 866 1134 733 c 0,24,25
EndSplineSet
EndChar

StartChar: colon
Encoding: 58 58 29
Width: 749
Flags: W
LayerCount: 2
Fore
SplineSet
240 281 m 1,0,-1
 510 281 l 1,1,-1
 510 0 l 1,2,-1
 240 0 l 1,3,-1
 240 281 l 1,0,-1
240 864 m 1,4,-1
 510 864 l 1,5,-1
 510 583 l 1,6,-1
 240 583 l 1,7,-1
 240 864 l 1,4,-1
EndSplineSet
EndChar

StartChar: semicolon
Encoding: 59 59 30
Width: 678
Flags: W
LayerCount: 2
Fore
SplineSet
159 864 m 1,0,-1
 439 864 l 1,1,-1
 439 583 l 1,2,-1
 159 583 l 1,3,-1
 159 864 l 1,0,-1
158 0 m 1,4,-1
 158 293 l 1,5,-1
 439 293 l 1,6,-1
 439 44 l 2,7,8
 439 -71 439 -71 380.5 -146 c 128,-1,9
 322 -221 322 -221 210 -253 c 1,10,-1
 159 -159 l 1,11,12
 197 -146 197 -146 222 -132 c 128,-1,13
 247 -118 247 -118 262 -99 c 128,-1,14
 277 -80 277 -80 283 -56 c 128,-1,15
 289 -32 289 -32 289 0 c 1,16,-1
 158 0 l 1,4,-1
EndSplineSet
EndChar

StartChar: less
Encoding: 60 60 31
Width: 1704
Flags: W
LayerCount: 2
Fore
SplineSet
217 722 m 1,0,-1
 1487 1187 l 1,1,-1
 1487 1019 l 1,2,-1
 405 641 l 1,3,-1
 1487 263 l 1,4,-1
 1487 95 l 1,5,-1
 217 560 l 1,6,-1
 217 722 l 1,0,-1
EndSplineSet
EndChar

StartChar: equal
Encoding: 61 61 32
Width: 1022
Flags: W
LayerCount: 2
Fore
SplineSet
805 508 m 1,0,-1
 217 508 l 1,1,-1
 217 639 l 1,2,-1
 805 639 l 1,3,-1
 805 508 l 1,0,-1
805 280 m 1,4,-1
 217 280 l 1,5,-1
 217 411 l 1,6,-1
 805 411 l 1,7,-1
 805 280 l 1,4,-1
EndSplineSet
EndChar

StartChar: greater
Encoding: 62 62 33
Width: 1704
Flags: W
LayerCount: 2
Fore
SplineSet
1487 560 m 1,0,-1
 217 95 l 1,1,-1
 217 263 l 1,2,-1
 1299 641 l 1,3,-1
 217 1019 l 1,4,-1
 217 1187 l 1,5,-1
 1487 722 l 1,6,-1
 1487 560 l 1,0,-1
EndSplineSet
EndChar

StartChar: question
Encoding: 63 63 34
Width: 1182
Flags: W
LayerCount: 2
Fore
SplineSet
505 675 m 1,0,-1
 505 292 l 1,1,-1
 325 292 l 1,2,-1
 325 777 l 1,3,4
 458 822 458 822 555.5 865.5 c 128,-1,5
 653 909 653 909 717 957.5 c 128,-1,6
 781 1006 781 1006 813 1064 c 128,-1,7
 845 1122 845 1122 848 1197 c 1,8,9
 848 1258 848 1258 830 1300 c 128,-1,10
 812 1342 812 1342 774 1368 c 128,-1,11
 736 1394 736 1394 677.5 1406 c 128,-1,12
 619 1418 619 1418 537 1418 c 0,13,14
 465 1418 465 1418 405 1405 c 128,-1,15
 345 1392 345 1392 301.5 1376.5 c 128,-1,16
 258 1361 258 1361 233.5 1347 c 128,-1,17
 209 1333 209 1333 209 1332 c 2,18,-1
 150 1475 l 2,19,20
 149 1475 149 1475 180.5 1491.5 c 128,-1,21
 212 1508 212 1508 267.5 1527.5 c 128,-1,22
 323 1547 323 1547 397.5 1563 c 128,-1,23
 472 1579 472 1579 556 1579 c 0,24,25
 659 1579 659 1579 747 1559.5 c 128,-1,26
 835 1540 835 1540 900 1496.5 c 128,-1,27
 965 1453 965 1453 1002 1384 c 128,-1,28
 1039 1315 1039 1315 1039 1216 c 0,29,30
 1039 1116 1039 1116 1006.5 1040.5 c 128,-1,31
 974 965 974 965 921 908 c 128,-1,32
 868 851 868 851 801 809.5 c 128,-1,33
 734 768 734 768 664 737 c 1,34,-1
 584 704 l 2,35,36
 567 697 567 697 547.5 690 c 128,-1,37
 528 683 528 683 505 675 c 1,0,-1
406 -40 m 0,38,39
 384 -40 384 -40 365 -31.5 c 128,-1,40
 346 -23 346 -23 332 -8 c 128,-1,41
 318 7 318 7 310 27 c 128,-1,42
 302 47 302 47 302 70 c 0,43,44
 302 92 302 92 311.5 110 c 128,-1,45
 321 128 321 128 336 141 c 128,-1,46
 351 154 351 154 370.5 161.5 c 128,-1,47
 390 169 390 169 410 169 c 0,48,49
 429 169 429 169 447.5 160.5 c 128,-1,50
 466 152 466 152 480 138 c 128,-1,51
 494 124 494 124 502.5 104.5 c 128,-1,52
 511 85 511 85 511 64 c 0,53,54
 511 42 511 42 502.5 23 c 128,-1,55
 494 4 494 4 480 -10 c 128,-1,56
 466 -24 466 -24 446.5 -32 c 128,-1,57
 427 -40 427 -40 406 -40 c 0,38,39
EndSplineSet
EndChar

StartChar: at
Encoding: 64 64 35
Width: 1939
Flags: W
LayerCount: 2
Fore
SplineSet
1234 987 m 1,0,1
 1235 986 1235 986 1209 991.5 c 128,-1,2
 1183 997 1183 997 1140 1002 c 0,3,4
 1118 1004 1118 1004 1097.5 1006 c 128,-1,5
 1077 1008 1077 1008 1058 1008 c 0,6,7
 974 1008 974 1008 896.5 976.5 c 128,-1,8
 819 945 819 945 759.5 888 c 128,-1,9
 700 831 700 831 665 751 c 128,-1,10
 630 671 630 671 630 573 c 0,11,12
 630 330 630 330 855 330 c 0,13,14
 932 330 932 330 1000 363 c 128,-1,15
 1068 396 1068 396 1119 466 c 128,-1,16
 1170 536 1170 536 1200.5 645 c 128,-1,17
 1231 754 1231 754 1233 906 c 2,18,-1
 1234 987 l 1,0,1
1467 134 m 1,19,-1
 1558 42 l 1,20,21
 1518 -3 1518 -3 1458 -39 c 128,-1,22
 1398 -75 1398 -75 1322.5 -101 c 128,-1,23
 1247 -127 1247 -127 1158 -141 c 128,-1,24
 1069 -155 1069 -155 970 -155 c 0,25,26
 750 -155 750 -155 592 -96 c 128,-1,27
 434 -37 434 -37 332.5 63.5 c 128,-1,28
 231 164 231 164 183 297 c 128,-1,29
 135 430 135 430 135 578 c 0,30,31
 135 719 135 719 168.5 839.5 c 128,-1,32
 202 960 202 960 261 1057.5 c 128,-1,33
 320 1155 320 1155 401 1229.5 c 128,-1,34
 482 1304 482 1304 576.5 1354.5 c 128,-1,35
 671 1405 671 1405 775.5 1430.5 c 128,-1,36
 880 1456 880 1456 987 1456 c 0,37,38
 1095 1456 1095 1456 1197.5 1437.5 c 128,-1,39
 1300 1419 1300 1419 1390 1380.5 c 128,-1,40
 1480 1342 1480 1342 1554.5 1284.5 c 128,-1,41
 1629 1227 1629 1227 1682.5 1149.5 c 128,-1,42
 1736 1072 1736 1072 1766 973.5 c 128,-1,43
 1796 875 1796 875 1796 756 c 0,44,45
 1796 649 1796 649 1775 566 c 128,-1,46
 1754 483 1754 483 1718.5 421 c 128,-1,47
 1683 359 1683 359 1637.5 317 c 128,-1,48
 1592 275 1592 275 1543 248.5 c 128,-1,49
 1494 222 1494 222 1445 210.5 c 128,-1,50
 1396 199 1396 199 1355 199 c 0,51,52
 1320 199 1320 199 1300.5 208.5 c 128,-1,53
 1281 218 1281 218 1270.5 234 c 128,-1,54
 1260 250 1260 250 1257.5 271 c 128,-1,55
 1255 292 1255 292 1255 316 c 2,56,-1
 1255 548 l 1,57,58
 1243 489 1243 489 1212.5 427.5 c 128,-1,59
 1182 366 1182 366 1131 315 c 128,-1,60
 1080 264 1080 264 1007.5 231.5 c 128,-1,61
 935 199 935 199 839 199 c 0,62,63
 753 199 753 199 685 226.5 c 128,-1,64
 617 254 617 254 570.5 304.5 c 128,-1,65
 524 355 524 355 499.5 427.5 c 128,-1,66
 475 500 475 500 475 590 c 0,67,68
 475 655 475 655 494.5 720 c 128,-1,69
 514 785 514 785 550 845 c 128,-1,70
 586 905 586 905 637 956.5 c 128,-1,71
 688 1008 688 1008 751 1046 c 128,-1,72
 814 1084 814 1084 887.5 1106 c 128,-1,73
 961 1128 961 1128 1042 1128 c 0,74,75
 1058 1128 1058 1128 1087 1125.5 c 128,-1,76
 1116 1123 1116 1123 1149 1119.5 c 128,-1,77
 1182 1116 1182 1116 1215.5 1111.5 c 128,-1,78
 1249 1107 1249 1107 1273 1104 c 2,79,-1
 1327 1096 l 1,80,-1
 1382 987 l 1,81,-1
 1382 317 l 1,82,83
 1443 317 1443 317 1490.5 341.5 c 128,-1,84
 1538 366 1538 366 1570 419.5 c 128,-1,85
 1602 473 1602 473 1619 556.5 c 128,-1,86
 1636 640 1636 640 1636 758 c 0,87,88
 1636 869 1636 869 1609.5 953.5 c 128,-1,89
 1583 1038 1583 1038 1537.5 1100 c 128,-1,90
 1492 1162 1492 1162 1430 1203.5 c 128,-1,91
 1368 1245 1368 1245 1296.5 1270.5 c 128,-1,92
 1225 1296 1225 1296 1147.5 1306.5 c 128,-1,93
 1070 1317 1070 1317 993 1317 c 0,94,95
 842 1317 842 1317 714 1267 c 128,-1,96
 586 1217 586 1217 492.5 1122 c 128,-1,97
 399 1027 399 1027 346.5 889.5 c 128,-1,98
 294 752 294 752 294 578 c 0,99,100
 294 440 294 440 338 329.5 c 128,-1,101
 382 219 382 219 468.5 142.5 c 128,-1,102
 555 66 555 66 683 25 c 128,-1,103
 811 -16 811 -16 980 -16 c 0,104,105
 1096 -16 1096 -16 1182 3 c 128,-1,106
 1268 22 1268 22 1326.5 46.5 c 128,-1,107
 1385 71 1385 71 1418 95 c 128,-1,108
 1451 119 1451 119 1461 129 c 1,109,-1
 1467 134 l 1,19,-1
EndSplineSet
EndChar

StartChar: A
Encoding: 65 65 36
Width: 1365
Flags: W
LayerCount: 2
Fore
SplineSet
999 485 m 1,0,-1
 682 1460 l 1,1,-1
 365 485 l 1,2,-1
 999 485 l 1,0,-1
1032 383 m 1,3,-1
 332 383 l 1,4,-1
 209 0 l 1,5,-1
 16 0 l 1,6,-1
 532 1579 l 1,7,-1
 832 1579 l 1,8,-1
 1348 0 l 1,9,-1
 1155 0 l 1,10,-1
 1032 383 l 1,3,-1
EndSplineSet
EndChar

StartChar: B
Encoding: 66 66 37
Width: 1466
Flags: W
LayerCount: 2
Fore
SplineSet
1074 1188 m 0,0,1
 1074 1251 1074 1251 1053.5 1298 c 128,-1,2
 1033 1345 1033 1345 977 1375.5 c 128,-1,3
 921 1406 921 1406 822 1421 c 128,-1,4
 723 1436 723 1436 566 1436 c 2,5,-1
 395 1436 l 1,6,-1
 395 915 l 1,7,-1
 654 915 l 2,8,9
 783 915 783 915 864.5 933.5 c 128,-1,10
 946 952 946 952 992.5 987 c 128,-1,11
 1039 1022 1039 1022 1056.5 1072.5 c 128,-1,12
 1074 1123 1074 1123 1074 1188 c 0,0,1
621 143 m 2,13,14
 760 143 760 143 858 158 c 128,-1,15
 956 173 956 173 1018.5 209.5 c 128,-1,16
 1081 246 1081 246 1110 308.5 c 128,-1,17
 1139 371 1139 371 1139 466 c 0,18,19
 1139 554 1139 554 1111.5 615 c 128,-1,20
 1084 676 1084 676 1026 714 c 128,-1,21
 968 752 968 752 876.5 769 c 128,-1,22
 785 786 785 786 658 786 c 2,23,-1
 395 786 l 1,24,-1
 395 143 l 1,25,-1
 621 143 l 2,13,14
914 862 m 1,26,27
 1321 815 1321 815 1321 434 c 0,28,29
 1321 304 1321 304 1266 220 c 128,-1,30
 1211 136 1211 136 1116 87 c 128,-1,31
 1021 38 1021 38 893.5 19 c 128,-1,32
 766 0 766 0 621 0 c 2,33,-1
 201 0 l 1,34,-1
 201 1579 l 1,35,-1
 562 1579 l 2,36,37
 710 1579 710 1579 817.5 1565.5 c 128,-1,38
 925 1552 925 1552 1000.5 1527.5 c 128,-1,39
 1076 1503 1076 1503 1122.5 1468 c 128,-1,40
 1169 1433 1169 1433 1195 1389.5 c 128,-1,41
 1221 1346 1221 1346 1230 1295 c 128,-1,42
 1239 1244 1239 1244 1239 1188 c 0,43,44
 1239 1157 1239 1157 1235.5 1123.5 c 128,-1,45
 1232 1090 1232 1090 1220 1057.5 c 128,-1,46
 1208 1025 1208 1025 1186.5 994.5 c 128,-1,47
 1165 964 1165 964 1128.5 938 c 128,-1,48
 1092 912 1092 912 1039.5 892.5 c 128,-1,49
 987 873 987 873 914 862 c 1,26,27
EndSplineSet
EndChar

StartChar: C
Encoding: 67 67 38
Width: 1356
Flags: W
LayerCount: 2
Fore
SplineSet
1172 1385 m 1,0,1
 1107 1412 1107 1412 1054 1427 c 128,-1,2
 1001 1442 1001 1442 958 1448.5 c 128,-1,3
 915 1455 915 1455 880 1456.5 c 128,-1,4
 845 1458 845 1458 815 1458 c 0,5,6
 675 1458 675 1458 580 1411 c 128,-1,7
 485 1364 485 1364 426 1276.5 c 128,-1,8
 367 1189 367 1189 341.5 1064 c 128,-1,9
 316 939 316 939 316 784 c 0,10,11
 316 596 316 596 353 470.5 c 128,-1,12
 390 345 390 345 456 270 c 128,-1,13
 522 195 522 195 613.5 163.5 c 128,-1,14
 705 132 705 132 815 132 c 0,15,16
 861 132 861 132 910 142 c 128,-1,17
 959 152 959 152 1008 167.5 c 128,-1,18
 1057 183 1057 183 1103 202 c 128,-1,19
 1149 221 1149 221 1189 239 c 1,20,-1
 1245 100 l 1,21,22
 1175 67 1175 67 1114.5 44.5 c 128,-1,23
 1054 22 1054 22 999.5 7.5 c 128,-1,24
 945 -7 945 -7 894.5 -13.5 c 128,-1,25
 844 -20 844 -20 795 -20 c 0,26,27
 657 -20 657 -20 553.5 13 c 128,-1,28
 450 46 450 46 374.5 103.5 c 128,-1,29
 299 161 299 161 249 239 c 128,-1,30
 199 317 199 317 169 406.5 c 128,-1,31
 139 496 139 496 127 593.5 c 128,-1,32
 115 691 115 691 115 788 c 0,33,34
 115 926 115 926 134.5 1034 c 128,-1,35
 154 1142 154 1142 188 1226 c 128,-1,36
 222 1310 222 1310 268.5 1371 c 128,-1,37
 315 1432 315 1432 368.5 1474.5 c 128,-1,38
 422 1517 422 1517 480 1543.5 c 128,-1,39
 538 1570 538 1570 596.5 1585 c 128,-1,40
 655 1600 655 1600 711 1605 c 128,-1,41
 767 1610 767 1610 815 1610 c 0,42,43
 867 1610 867 1610 913 1606 c 128,-1,44
 959 1602 959 1602 1005.5 1593 c 128,-1,45
 1052 1584 1052 1584 1103 1568.5 c 128,-1,46
 1154 1553 1154 1553 1217 1530 c 1,47,-1
 1172 1385 l 1,0,1
EndSplineSet
EndChar

StartChar: D
Encoding: 68 68 39
Width: 1556
Flags: W
LayerCount: 2
Fore
SplineSet
776 1436 m 2,0,-1
 395 1436 l 1,1,-1
 395 143 l 1,2,-1
 776 143 l 2,3,4
 914 143 914 143 1003 192 c 128,-1,5
 1092 241 1092 241 1143 327.5 c 128,-1,6
 1194 414 1194 414 1214 532.5 c 128,-1,7
 1234 651 1234 651 1234 789 c 0,8,9
 1234 932 1234 932 1212.5 1051 c 128,-1,10
 1191 1170 1191 1170 1138.5 1255.5 c 128,-1,11
 1086 1341 1086 1341 998 1388.5 c 128,-1,12
 910 1436 910 1436 776 1436 c 2,0,-1
776 1579 m 2,13,14
 1435 1579 1435 1579 1435 788 c 0,15,16
 1435 0 1435 0 776 0 c 2,17,-1
 201 0 l 1,18,-1
 201 1579 l 1,19,-1
 776 1579 l 2,13,14
EndSplineSet
EndChar

StartChar: E
Encoding: 69 69 40
Width: 1315
Flags: W
LayerCount: 2
Fore
SplineSet
1184 0 m 1,0,-1
 201 0 l 1,1,-1
 201 1579 l 1,2,-1
 1171 1579 l 1,3,-1
 1171 1436 l 1,4,-1
 395 1436 l 1,5,-1
 395 891 l 1,6,-1
 1073 891 l 1,7,-1
 1073 776 l 1,8,-1
 395 776 l 1,9,-1
 395 143 l 1,10,-1
 1184 143 l 1,11,-1
 1184 0 l 1,0,-1
EndSplineSet
EndChar

StartChar: F
Encoding: 70 70 41
Width: 1241
Flags: W
LayerCount: 2
Fore
SplineSet
395 762 m 1,0,-1
 395 0 l 1,1,-1
 201 0 l 1,2,-1
 201 1579 l 1,3,-1
 1122 1579 l 1,4,-1
 1122 1436 l 1,5,-1
 395 1436 l 1,6,-1
 395 879 l 1,7,-1
 1061 879 l 1,8,-1
 1061 762 l 1,9,-1
 395 762 l 1,0,-1
EndSplineSet
EndChar

StartChar: G
Encoding: 71 71 42
Width: 1522
Flags: W
LayerCount: 2
Fore
SplineSet
746 -20 m 0,0,1
 598 -20 598 -20 481 38 c 128,-1,2
 364 96 364 96 282.5 202 c 128,-1,3
 201 308 201 308 158 456.5 c 128,-1,4
 115 605 115 605 115 786 c 256,5,6
 115 967 115 967 148 1098.5 c 128,-1,7
 181 1230 181 1230 236 1321.5 c 128,-1,8
 291 1413 291 1413 363 1469.5 c 128,-1,9
 435 1526 435 1526 512 1557.5 c 128,-1,10
 589 1589 589 1589 666 1599.5 c 128,-1,11
 743 1610 743 1610 809 1610 c 0,12,13
 896 1610 896 1610 971 1593.5 c 128,-1,14
 1046 1577 1046 1577 1103 1555 c 128,-1,15
 1160 1533 1160 1533 1196.5 1511.5 c 128,-1,16
 1233 1490 1233 1490 1245 1480 c 1,17,-1
 1251 1476 l 1,18,-1
 1185 1341 l 2,19,20
 1184 1341 1184 1341 1158.5 1359.5 c 128,-1,21
 1133 1378 1133 1378 1084.5 1400 c 128,-1,22
 1036 1422 1036 1422 966 1440 c 128,-1,23
 896 1458 896 1458 807 1458 c 0,24,25
 664 1458 664 1458 569.5 1408.5 c 128,-1,26
 475 1359 475 1359 419 1270 c 128,-1,27
 363 1181 363 1181 339.5 1056.5 c 128,-1,28
 316 932 316 932 316 782 c 0,29,30
 316 642 316 642 337 524 c 128,-1,31
 358 406 358 406 412 319.5 c 128,-1,32
 466 233 466 233 558 183.5 c 128,-1,33
 650 134 650 134 793 132 c 1,34,35
 878 132 878 132 947.5 149 c 128,-1,36
 1017 166 1017 166 1066.5 199.5 c 128,-1,37
 1116 233 1116 233 1142.5 283 c 128,-1,38
 1169 333 1169 333 1169 399 c 2,39,-1
 1169 684 l 1,40,-1
 767 684 l 1,41,-1
 767 811 l 1,42,-1
 1354 811 l 1,43,-1
 1354 0 l 1,44,-1
 1266 0 l 1,45,-1
 1213 213 l 1,46,47
 1196 149 1196 149 1151.5 104.5 c 128,-1,48
 1107 60 1107 60 1044 32.5 c 128,-1,49
 981 5 981 5 904 -7.5 c 128,-1,50
 827 -20 827 -20 746 -20 c 0,0,1
EndSplineSet
EndChar

StartChar: H
Encoding: 72 72 43
Width: 1622
Flags: W
LayerCount: 2
Fore
SplineSet
1227 0 m 1,0,-1
 1227 764 l 1,1,-1
 395 764 l 1,2,-1
 395 0 l 1,3,-1
 201 0 l 1,4,-1
 201 1579 l 1,5,-1
 395 1579 l 1,6,-1
 395 879 l 1,7,-1
 1227 879 l 1,8,-1
 1227 1579 l 1,9,-1
 1421 1579 l 1,10,-1
 1421 0 l 1,11,-1
 1227 0 l 1,0,-1
EndSplineSet
EndChar

StartChar: I
Encoding: 73 73 44
Width: 995
Flags: W
LayerCount: 2
Fore
SplineSet
201 112 m 1,0,-1
 405 112 l 1,1,-1
 405 1461 l 1,2,-1
 201 1461 l 1,3,-1
 201 1579 l 1,4,-1
 794 1579 l 1,5,-1
 794 1461 l 1,6,-1
 599 1461 l 1,7,-1
 599 112 l 1,8,-1
 794 112 l 1,9,-1
 794 0 l 1,10,-1
 201 0 l 1,11,-1
 201 112 l 1,0,-1
EndSplineSet
EndChar

StartChar: J
Encoding: 74 74 45
Width: 615
Flags: W
LayerCount: 2
Fore
SplineSet
-55 -280 m 1,0,-1
 -106 -155 l 1,1,2
 -27 -143 -27 -143 27 -124 c 128,-1,3
 81 -105 81 -105 116 -79.5 c 128,-1,4
 151 -54 151 -54 170.5 -23 c 128,-1,5
 190 8 190 8 200 43 c 0,6,7
 220 112 220 112 220 289 c 2,8,-1
 220 1579 l 1,9,-1
 414 1579 l 1,10,-1
 414 324 l 2,11,12
 414 223 414 223 408 147.5 c 128,-1,13
 402 72 402 72 385.5 13.5 c 128,-1,14
 369 -45 369 -45 341 -91.5 c 128,-1,15
 313 -138 313 -138 269 -180 c 0,16,17
 165 -280 165 -280 -55 -280 c 1,0,-1
EndSplineSet
EndChar

StartChar: K
Encoding: 75 75 46
Width: 1325
Flags: W
LayerCount: 2
Fore
SplineSet
395 733 m 1,0,-1
 395 0 l 1,1,-1
 201 0 l 1,2,-1
 201 1579 l 1,3,-1
 395 1579 l 1,4,-1
 395 854 l 1,5,-1
 628 854 l 1,6,-1
 1098 1579 l 1,7,-1
 1301 1579 l 1,8,-1
 772 798 l 1,9,-1
 1368 0 l 1,10,-1
 1155 0 l 1,11,-1
 620 733 l 1,12,-1
 395 733 l 1,0,-1
EndSplineSet
EndChar

StartChar: L
Encoding: 76 76 47
Width: 1152
Flags: W
LayerCount: 2
Fore
SplineSet
1141 0 m 1,0,-1
 201 0 l 1,1,-1
 201 1579 l 1,2,-1
 395 1579 l 1,3,-1
 395 143 l 1,4,-1
 1141 143 l 1,5,-1
 1141 0 l 1,0,-1
EndSplineSet
EndChar

StartChar: M
Encoding: 77 77 48
Width: 1968
Flags: W
LayerCount: 2
Fore
SplineSet
886 100 m 1,0,-1
 383 1459 l 1,1,-1
 373 0 l 1,2,-1
 201 0 l 1,3,-1
 218 1579 l 1,4,-1
 509 1579 l 1,5,-1
 984 248 l 1,6,-1
 1459 1579 l 1,7,-1
 1750 1579 l 1,8,-1
 1768 0 l 1,9,-1
 1595 0 l 1,10,-1
 1585 1459 l 1,11,-1
 1082 100 l 1,12,-1
 886 100 l 1,0,-1
EndSplineSet
EndChar

StartChar: N
Encoding: 78 78 49
Width: 1655
Flags: W
LayerCount: 2
Fore
SplineSet
1282 175 m 1,0,-1
 1282 1579 l 1,1,-1
 1454 1579 l 1,2,-1
 1454 0 l 1,3,-1
 1202 0 l 1,4,-1
 373 1404 l 1,5,-1
 373 0 l 1,6,-1
 201 0 l 1,7,-1
 201 1579 l 1,8,-1
 453 1579 l 1,9,-1
 1282 175 l 1,0,-1
EndSplineSet
EndChar

StartChar: O
Encoding: 79 79 50
Width: 1550
Flags: W
LayerCount: 2
Fore
SplineSet
315 795 m 0,0,1
 315 661 315 661 333 560 c 128,-1,2
 351 459 351 459 383 385 c 128,-1,3
 415 311 415 311 458.5 262.5 c 128,-1,4
 502 214 502 214 553.5 185 c 128,-1,5
 605 156 605 156 661.5 144 c 128,-1,6
 718 132 718 132 775 132 c 256,7,8
 832 132 832 132 888.5 144 c 128,-1,9
 945 156 945 156 996.5 185 c 128,-1,10
 1048 214 1048 214 1091.5 262.5 c 128,-1,11
 1135 311 1135 311 1167 385 c 128,-1,12
 1199 459 1199 459 1217 560 c 128,-1,13
 1235 661 1235 661 1235 795 c 0,14,15
 1235 930 1235 930 1217 1031.5 c 128,-1,16
 1199 1133 1199 1133 1167 1206.5 c 128,-1,17
 1135 1280 1135 1280 1091.5 1328.5 c 128,-1,18
 1048 1377 1048 1377 996.5 1406 c 128,-1,19
 945 1435 945 1435 889 1446.5 c 128,-1,20
 833 1458 833 1458 775 1458 c 256,21,22
 717 1458 717 1458 661 1446.5 c 128,-1,23
 605 1435 605 1435 553.5 1406 c 128,-1,24
 502 1377 502 1377 458.5 1328.5 c 128,-1,25
 415 1280 415 1280 383 1206.5 c 128,-1,26
 351 1133 351 1133 333 1031.5 c 128,-1,27
 315 930 315 930 315 795 c 0,0,1
775 -20 m 256,28,29
 712 -20 712 -20 639 -9.5 c 128,-1,30
 566 1 566 1 492.5 32 c 128,-1,31
 419 63 419 63 351 119 c 128,-1,32
 283 175 283 175 230.5 265.5 c 128,-1,33
 178 356 178 356 146.5 486 c 128,-1,34
 115 616 115 616 115 795 c 256,35,36
 115 974 115 974 146.5 1104 c 128,-1,37
 178 1234 178 1234 230.5 1324.5 c 128,-1,38
 283 1415 283 1415 351 1471 c 128,-1,39
 419 1527 419 1527 492.5 1558 c 128,-1,40
 566 1589 566 1589 639 1599.5 c 128,-1,41
 712 1610 712 1610 775 1610 c 256,42,43
 838 1610 838 1610 911 1599.5 c 128,-1,44
 984 1589 984 1589 1057.5 1558 c 128,-1,45
 1131 1527 1131 1527 1199 1471 c 128,-1,46
 1267 1415 1267 1415 1319.5 1324.5 c 128,-1,47
 1372 1234 1372 1234 1403.5 1104 c 128,-1,48
 1435 974 1435 974 1435 795 c 256,49,50
 1435 616 1435 616 1403.5 486 c 128,-1,51
 1372 356 1372 356 1319.5 265.5 c 128,-1,52
 1267 175 1267 175 1199 119 c 128,-1,53
 1131 63 1131 63 1057.5 32 c 128,-1,54
 984 1 984 1 911 -9.5 c 128,-1,55
 838 -20 838 -20 775 -20 c 256,28,29
EndSplineSet
EndChar

StartChar: P
Encoding: 80 80 51
Width: 1368
Flags: W
LayerCount: 2
Fore
SplineSet
565 784 m 2,0,1
 736 784 736 784 843.5 805.5 c 128,-1,2
 951 827 951 827 1011.5 866 c 128,-1,3
 1072 905 1072 905 1094 960.5 c 128,-1,4
 1116 1016 1116 1016 1116 1084 c 0,5,6
 1116 1137 1116 1137 1111.5 1184 c 128,-1,7
 1107 1231 1107 1231 1091 1270 c 128,-1,8
 1075 1309 1075 1309 1042.5 1340 c 128,-1,9
 1010 1371 1010 1371 953.5 1392 c 128,-1,10
 897 1413 897 1413 813 1424.5 c 128,-1,11
 729 1436 729 1436 610 1436 c 2,12,-1
 395 1436 l 1,13,-1
 395 784 l 1,14,-1
 565 784 l 2,0,1
1298 1108 m 0,15,16
 1298 998 1298 998 1262 911.5 c 128,-1,17
 1226 825 1226 825 1141.5 764 c 128,-1,18
 1057 703 1057 703 916 671 c 128,-1,19
 775 639 775 639 565 639 c 2,20,-1
 395 639 l 1,21,-1
 395 0 l 1,22,-1
 201 0 l 1,23,-1
 201 1579 l 1,24,-1
 598 1579 l 2,25,26
 801 1579 801 1579 936 1549.5 c 128,-1,27
 1071 1520 1071 1520 1151.5 1461 c 128,-1,28
 1232 1402 1232 1402 1265 1314 c 128,-1,29
 1298 1226 1298 1226 1298 1108 c 0,15,16
EndSplineSet
EndChar

StartChar: Q
Encoding: 81 81 52
Width: 1550
Flags: W
LayerCount: 2
Fore
SplineSet
672 -64 m 1,0,1
 672 -52 672 -52 672 -41.5 c 128,-1,2
 672 -31 672 -31 673 -21 c 1,3,4
 611 -14 611 -14 546 6 c 128,-1,5
 481 26 481 26 419 64 c 128,-1,6
 357 102 357 102 301.5 162 c 128,-1,7
 246 222 246 222 205 310 c 128,-1,8
 164 398 164 398 139.5 517 c 128,-1,9
 115 636 115 636 115 792 c 0,10,11
 115 971 115 971 146.5 1101 c 128,-1,12
 178 1231 178 1231 230.5 1322 c 128,-1,13
 283 1413 283 1413 351 1469.5 c 128,-1,14
 419 1526 419 1526 492.5 1557 c 128,-1,15
 566 1588 566 1588 639 1599 c 128,-1,16
 712 1610 712 1610 775 1610 c 256,17,18
 838 1610 838 1610 911 1599 c 128,-1,19
 984 1588 984 1588 1057.5 1557 c 128,-1,20
 1131 1526 1131 1526 1199 1469.5 c 128,-1,21
 1267 1413 1267 1413 1319.5 1322 c 128,-1,22
 1372 1231 1372 1231 1403.5 1101 c 128,-1,23
 1435 971 1435 971 1435 792 c 0,24,25
 1435 634 1435 634 1410.5 514.5 c 128,-1,26
 1386 395 1386 395 1343.5 307 c 128,-1,27
 1301 219 1301 219 1245 159 c 128,-1,28
 1189 99 1189 99 1126 61.5 c 128,-1,29
 1063 24 1063 24 997.5 5 c 128,-1,30
 932 -14 932 -14 870 -21 c 1,31,-1
 905 -48 l 1,32,-1
 1284 -312 l 1,33,-1
 1165 -443 l 1,34,-1
 672 -64 l 1,0,1
775 1458 m 256,35,36
 680 1458 680 1458 609 1434.5 c 128,-1,37
 538 1411 538 1411 487 1368 c 128,-1,38
 436 1325 436 1325 402.5 1264.5 c 128,-1,39
 369 1204 369 1204 349.5 1130 c 128,-1,40
 330 1056 330 1056 322.5 970.5 c 128,-1,41
 315 885 315 885 315 792 c 256,42,43
 315 699 315 699 322.5 613.5 c 128,-1,44
 330 528 330 528 349.5 454 c 128,-1,45
 369 380 369 380 402.5 319 c 128,-1,46
 436 258 436 258 487 215 c 128,-1,47
 538 172 538 172 609 148.5 c 128,-1,48
 680 125 680 125 775 125 c 0,49,50
 917 125 917 125 1007 177 c 128,-1,51
 1097 229 1097 229 1147.5 319 c 128,-1,52
 1198 409 1198 409 1216.5 530.5 c 128,-1,53
 1235 652 1235 652 1235 792 c 0,54,55
 1235 885 1235 885 1227.5 970.5 c 128,-1,56
 1220 1056 1220 1056 1200.5 1130 c 128,-1,57
 1181 1204 1181 1204 1147.5 1264.5 c 128,-1,58
 1114 1325 1114 1325 1063 1368 c 128,-1,59
 1012 1411 1012 1411 941 1434.5 c 128,-1,60
 870 1458 870 1458 775 1458 c 256,35,36
EndSplineSet
EndChar

StartChar: R
Encoding: 82 82 53
Width: 1353
Flags: W
LayerCount: 2
Fore
SplineSet
881 797 m 1,0,1
 978 786 978 786 1054.5 759.5 c 128,-1,2
 1131 733 1131 733 1184 685.5 c 128,-1,3
 1237 638 1237 638 1264.5 567.5 c 128,-1,4
 1292 497 1292 497 1292 397 c 2,5,-1
 1292 0 l 1,6,-1
 1110 0 l 1,7,-1
 1110 412 l 2,8,9
 1110 494 1110 494 1087 554 c 128,-1,10
 1064 614 1064 614 1004 654 c 128,-1,11
 944 694 944 694 840.5 713.5 c 128,-1,12
 737 733 737 733 575 733 c 2,13,-1
 395 733 l 1,14,-1
 395 0 l 1,15,-1
 201 0 l 1,16,-1
 201 1579 l 1,17,-1
 647 1579 l 2,18,19
 725 1579 725 1579 803.5 1575.5 c 128,-1,20
 882 1572 882 1572 953.5 1558.5 c 128,-1,21
 1025 1545 1025 1545 1087.5 1518.5 c 128,-1,22
 1150 1492 1150 1492 1195.5 1445.5 c 128,-1,23
 1241 1399 1241 1399 1267.5 1329 c 128,-1,24
 1294 1259 1294 1259 1294 1160 c 0,25,26
 1294 1081 1294 1081 1264.5 1014.5 c 128,-1,27
 1235 948 1235 948 1180.5 899.5 c 128,-1,28
 1126 851 1126 851 1050 824 c 128,-1,29
 974 797 974 797 881 797 c 1,0,1
549 862 m 1,30,-1
 636 862 l 1,31,-1
 723 865 l 1,32,33
 813 870 813 870 885.5 886.5 c 128,-1,34
 958 903 958 903 1009.5 936.5 c 128,-1,35
 1061 970 1061 970 1090.5 1024.5 c 128,-1,36
 1120 1079 1120 1079 1124 1160 c 1,37,38
 1121 1249 1121 1249 1096.5 1303.5 c 128,-1,39
 1072 1358 1072 1358 1017.5 1387.5 c 128,-1,40
 963 1417 963 1417 872.5 1426.5 c 128,-1,41
 782 1436 782 1436 647 1436 c 2,42,-1
 395 1436 l 1,43,-1
 395 862 l 1,44,-1
 549 862 l 1,30,-1
EndSplineSet
EndChar

StartChar: S
Encoding: 83 83 54
Width: 1343
Flags: W
LayerCount: 2
Fore
SplineSet
204 82 m 1,0,-1
 224 242 l 1,1,2
 265 221 265 221 307 201 c 128,-1,3
 349 181 349 181 398 165.5 c 128,-1,4
 447 150 447 150 507 141 c 128,-1,5
 567 132 567 132 644 132 c 0,6,7
 736 132 736 132 810 145.5 c 128,-1,8
 884 159 884 159 936.5 192 c 128,-1,9
 989 225 989 225 1017 279.5 c 128,-1,10
 1045 334 1045 334 1045 416 c 0,11,12
 1045 477 1045 477 1027 521.5 c 128,-1,13
 1009 566 1009 566 975 600 c 128,-1,14
 941 634 941 634 892.5 659 c 128,-1,15
 844 684 844 684 784 705 c 2,16,-1
 493 807 l 2,17,18
 391 843 391 843 322 887.5 c 128,-1,19
 253 932 253 932 211.5 984 c 128,-1,20
 170 1036 170 1036 152.5 1094.5 c 128,-1,21
 135 1153 135 1153 135 1217 c 0,22,23
 135 1297 135 1297 159.5 1357 c 128,-1,24
 184 1417 184 1417 225 1461 c 128,-1,25
 266 1505 266 1505 319.5 1533.5 c 128,-1,26
 373 1562 373 1562 431 1579 c 128,-1,27
 489 1596 489 1596 546.5 1603 c 128,-1,28
 604 1610 604 1610 654 1610 c 0,29,30
 912 1610 912 1610 1127 1484 c 1,31,-1
 1097 1337 l 1,32,33
 1064 1358 1064 1358 1018.5 1379.5 c 128,-1,34
 973 1401 973 1401 920 1418.5 c 128,-1,35
 867 1436 867 1436 809.5 1447 c 128,-1,36
 752 1458 752 1458 696 1458 c 0,37,38
 584 1458 584 1458 511 1440 c 128,-1,39
 438 1422 438 1422 395 1389 c 128,-1,40
 352 1356 352 1356 335 1310 c 128,-1,41
 318 1264 318 1264 318 1208 c 0,42,43
 318 1162 318 1162 331 1127.5 c 128,-1,44
 344 1093 344 1093 372.5 1066 c 128,-1,45
 401 1039 401 1039 447 1017 c 128,-1,46
 493 995 493 995 558 974 c 2,47,-1
 841 882 l 2,48,49
 922 856 922 856 992.5 819.5 c 128,-1,50
 1063 783 1063 783 1115.5 729 c 128,-1,51
 1168 675 1168 675 1198.5 601 c 128,-1,52
 1229 527 1229 527 1229 426 c 0,53,54
 1229 381 1229 381 1220 330.5 c 128,-1,55
 1211 280 1211 280 1187.5 230.5 c 128,-1,56
 1164 181 1164 181 1123.5 135.5 c 128,-1,57
 1083 90 1083 90 1020.5 55.5 c 128,-1,58
 958 21 958 21 870.5 0.5 c 128,-1,59
 783 -20 783 -20 666 -20 c 0,60,61
 601 -20 601 -20 535 -12 c 128,-1,62
 469 -4 469 -4 408 10 c 128,-1,63
 347 24 347 24 294 42.5 c 128,-1,64
 241 61 241 61 204 82 c 1,0,-1
EndSplineSet
EndChar

StartChar: T
Encoding: 84 84 55
Width: 1096
Flags: W
LayerCount: 2
Fore
SplineSet
1102 1436 m 1,0,-1
 646 1436 l 1,1,-1
 646 0 l 1,2,-1
 452 0 l 1,3,-1
 452 1436 l 1,4,-1
 -6 1436 l 1,5,-1
 -6 1579 l 1,6,-1
 1102 1579 l 1,7,-1
 1102 1436 l 1,0,-1
EndSplineSet
EndChar

StartChar: U
Encoding: 85 85 56
Width: 1608
Flags: W
LayerCount: 2
Fore
SplineSet
804 -20 m 256,0,1
 636 -20 636 -20 517 29.5 c 128,-1,2
 398 79 398 79 322.5 175 c 128,-1,3
 247 271 247 271 212.5 412 c 128,-1,4
 178 553 178 553 178 736 c 2,5,-1
 178 1579 l 1,6,-1
 372 1579 l 1,7,-1
 372 732 l 2,8,9
 372 602 372 602 387.5 507 c 128,-1,10
 403 412 403 412 430.5 345.5 c 128,-1,11
 458 279 458 279 497.5 237 c 128,-1,12
 537 195 537 195 585 172 c 128,-1,13
 633 149 633 149 688.5 140.5 c 128,-1,14
 744 132 744 132 804 132 c 256,15,16
 864 132 864 132 919.5 140.5 c 128,-1,17
 975 149 975 149 1023 172 c 128,-1,18
 1071 195 1071 195 1110.5 237 c 128,-1,19
 1150 279 1150 279 1177.5 345.5 c 128,-1,20
 1205 412 1205 412 1220.5 507 c 128,-1,21
 1236 602 1236 602 1236 732 c 2,22,-1
 1236 1579 l 1,23,-1
 1430 1579 l 1,24,-1
 1430 736 l 2,25,26
 1430 553 1430 553 1395.5 412 c 128,-1,27
 1361 271 1361 271 1285.5 175 c 128,-1,28
 1210 79 1210 79 1091 29.5 c 128,-1,29
 972 -20 972 -20 804 -20 c 256,0,1
EndSplineSet
EndChar

StartChar: V
Encoding: 86 86 57
Width: 1267
Flags: W
LayerCount: 2
Fore
SplineSet
512 0 m 1,0,-1
 16 1579 l 1,1,-1
 200 1579 l 1,2,-1
 634 180 l 1,3,-1
 1068 1579 l 1,4,-1
 1250 1579 l 1,5,-1
 756 0 l 1,6,-1
 512 0 l 1,0,-1
EndSplineSet
EndChar

StartChar: W
Encoding: 87 87 58
Width: 1978
Flags: W
LayerCount: 2
Fore
SplineSet
1126 1489 m 1,0,-1
 1420 135 l 1,1,-1
 1730 1579 l 1,2,-1
 1911 1579 l 1,3,-1
 1575 0 l 1,4,-1
 1288 0 l 1,5,-1
 1052 1067 l 1,6,-1
 989 1373 l 1,7,-1
 925 1067 l 1,8,-1
 690 0 l 1,9,-1
 404 0 l 1,10,-1
 68 1579 l 1,11,-1
 248 1579 l 1,12,-1
 558 135 l 1,13,-1
 852 1489 l 1,14,-1
 1126 1489 l 1,0,-1
EndSplineSet
EndChar

StartChar: X
Encoding: 88 88 59
Width: 1337
Flags: W
LayerCount: 2
Fore
SplineSet
647 613 m 1,0,-1
 279 0 l 1,1,-1
 61 0 l 1,2,-1
 558 809 l 1,3,-1
 63 1579 l 1,4,-1
 259 1579 l 1,5,-1
 667 942 l 1,6,-1
 1075 1579 l 1,7,-1
 1271 1579 l 1,8,-1
 776 809 l 1,9,-1
 1273 0 l 1,10,-1
 1055 0 l 1,11,-1
 667 645 l 1,12,-1
 647 613 l 1,0,-1
EndSplineSet
EndChar

StartChar: Y
Encoding: 89 89 60
Width: 1210
Flags: W
LayerCount: 2
Fore
SplineSet
608 669 m 1,0,-1
 667 802 l 1,1,-1
 1023 1579 l 1,2,-1
 1214 1579 l 1,3,-1
 700 485 l 1,4,-1
 700 0 l 1,5,-1
 510 0 l 1,6,-1
 510 485 l 1,7,-1
 -4 1579 l 1,8,-1
 193 1579 l 1,9,-1
 547 806 l 1,10,-1
 608 669 l 1,0,-1
EndSplineSet
EndChar

StartChar: Z
Encoding: 90 90 61
Width: 1216
Flags: W
LayerCount: 2
Fore
SplineSet
1122 1579 m 1,0,-1
 1122 1419 l 1,1,-1
 289 143 l 1,2,-1
 1124 143 l 1,3,-1
 1124 0 l 1,4,-1
 92 0 l 1,5,-1
 92 180 l 1,6,-1
 921 1447 l 1,7,-1
 92 1447 l 1,8,-1
 92 1579 l 1,9,-1
 1122 1579 l 1,0,-1
EndSplineSet
EndChar

StartChar: bracketleft
Encoding: 91 91 62
Width: 1039
Flags: W
LayerCount: 2
Fore
SplineSet
176 1579 m 1,0,-1
 840 1579 l 1,1,-1
 840 1436 l 1,2,-1
 369 1436 l 1,3,-1
 369 143 l 1,4,-1
 840 143 l 1,5,-1
 840 0 l 1,6,-1
 176 0 l 1,7,-1
 176 1579 l 1,0,-1
EndSplineSet
EndChar

StartChar: backslash
Encoding: 92 92 63
Width: 781
Flags: W
LayerCount: 2
Fore
SplineSet
158 1731 m 1,0,-1
 781 -114 l 1,1,-1
 621 -172 l 1,2,-1
 0 1679 l 1,3,-1
 158 1731 l 1,0,-1
EndSplineSet
EndChar

StartChar: bracketright
Encoding: 93 93 64
Width: 1039
Flags: W
LayerCount: 2
Fore
SplineSet
199 1579 m 1,0,-1
 863 1579 l 1,1,-1
 863 0 l 1,2,-1
 199 0 l 1,3,-1
 199 143 l 1,4,-1
 670 143 l 1,5,-1
 670 1436 l 1,6,-1
 199 1436 l 1,7,-1
 199 1579 l 1,0,-1
EndSplineSet
EndChar

StartChar: asciicircum
Encoding: 94 94 65
Width: 1114
Flags: W
LayerCount: 2
Fore
SplineSet
345 432 m 1,0,-1
 217 510 l 1,1,-1
 509 1011 l 1,2,-1
 605 1011 l 1,3,-1
 897 510 l 1,4,-1
 769 432 l 1,5,-1
 557 809 l 1,6,-1
 345 432 l 1,0,-1
EndSplineSet
EndChar

StartChar: underscore
Encoding: 95 95 66
Width: 900
Flags: W
LayerCount: 2
Fore
SplineSet
920 -111 m 1,0,-1
 -20 -111 l 1,1,-1
 -20 33 l 1,2,-1
 920 33 l 1,3,-1
 920 -111 l 1,0,-1
EndSplineSet
EndChar

StartChar: grave
Encoding: 96 96 67
Width: 940
Flags: W
LayerCount: 2
Fore
SplineSet
565 1498 m 1,0,-1
 498 1472 l 1,1,-1
 170 2027 l 1,2,-1
 412 2116 l 1,3,-1
 565 1498 l 1,0,-1
EndSplineSet
EndChar

StartChar: a
Encoding: 97 97 68
Width: 1274
Flags: W
LayerCount: 2
Fore
SplineSet
562 119 m 0,0,1
 650 119 650 119 733.5 154.5 c 128,-1,2
 817 190 817 190 898 271 c 1,3,-1
 898 569 l 1,4,5
 767 590 767 590 636 590 c 0,6,7
 539 590 539 590 476.5 573 c 128,-1,8
 414 556 414 556 378 524.5 c 128,-1,9
 342 493 342 493 328 449 c 128,-1,10
 314 405 314 405 314 350 c 0,11,12
 314 286 314 286 328.5 242 c 128,-1,13
 343 198 343 198 373.5 170.5 c 128,-1,14
 404 143 404 143 450.5 131 c 128,-1,15
 497 119 497 119 562 119 c 0,0,1
898 665 m 1,16,-1
 898 713 l 2,17,18
 898 798 898 798 888 861.5 c 128,-1,19
 878 925 878 925 849 967 c 128,-1,20
 820 1009 820 1009 766.5 1030 c 128,-1,21
 713 1051 713 1051 626 1051 c 0,22,23
 556 1051 556 1051 490.5 1033 c 128,-1,24
 425 1015 425 1015 374 993.5 c 128,-1,25
 323 972 323 972 293 954 c 128,-1,26
 263 936 263 936 263 935 c 2,27,-1
 196 1057 l 1,28,-1
 208 1064 l 2,29,30
 224 1074 224 1074 261.5 1095 c 128,-1,31
 299 1116 299 1116 352.5 1137 c 128,-1,32
 406 1158 406 1158 473.5 1174 c 128,-1,33
 541 1190 541 1190 616 1190 c 0,34,35
 753 1190 753 1190 844 1162.5 c 128,-1,36
 935 1135 935 1135 989 1075 c 128,-1,37
 1043 1015 1043 1015 1065.5 919 c 128,-1,38
 1088 823 1088 823 1088 686 c 2,39,-1
 1088 0 l 1,40,-1
 948 0 l 1,41,-1
 920 178 l 1,42,43
 847 77 847 77 746.5 28.5 c 128,-1,44
 646 -20 646 -20 515 -20 c 0,45,46
 329 -20 329 -20 226 71.5 c 128,-1,47
 123 163 123 163 123 339 c 2,48,-1
 123 343 l 2,49,50
 123 432 123 432 155 501.5 c 128,-1,51
 187 571 187 571 245 618.5 c 128,-1,52
 303 666 303 666 385 690.5 c 128,-1,53
 467 715 467 715 567 715 c 0,54,55
 600 715 600 715 646.5 710.5 c 128,-1,56
 693 706 693 706 741 699 c 128,-1,57
 789 692 789 692 831.5 683 c 128,-1,58
 874 674 874 674 898 665 c 1,16,-1
EndSplineSet
EndChar

StartChar: b
Encoding: 98 98 69
Width: 1312
Flags: W
LayerCount: 2
Fore
SplineSet
724 -20 m 0,0,1
 669 -20 669 -20 617.5 -4.5 c 128,-1,2
 566 11 566 11 519 38 c 128,-1,3
 472 65 472 65 430.5 101 c 128,-1,4
 389 137 389 137 354 178 c 1,5,-1
 326 0 l 1,6,-1
 186 0 l 1,7,-1
 186 1579 l 1,8,-1
 376 1614 l 1,9,-1
 376 1030 l 1,10,11
 383 1037 383 1037 399.5 1051.5 c 128,-1,12
 416 1066 416 1066 441 1084 c 128,-1,13
 466 1102 466 1102 497.5 1120.5 c 128,-1,14
 529 1139 529 1139 565.5 1154.5 c 128,-1,15
 602 1170 602 1170 642 1180 c 128,-1,16
 682 1190 682 1190 724 1190 c 0,17,18
 819 1190 819 1190 891.5 1162 c 128,-1,19
 964 1134 964 1134 1017 1086.5 c 128,-1,20
 1070 1039 1070 1039 1105 977 c 128,-1,21
 1140 915 1140 915 1161.5 847 c 128,-1,22
 1183 779 1183 779 1191.5 710 c 128,-1,23
 1200 641 1200 641 1200 580 c 0,24,25
 1200 463 1200 463 1173.5 354.5 c 128,-1,26
 1147 246 1147 246 1090 163 c 128,-1,27
 1033 80 1033 80 942.5 30 c 128,-1,28
 852 -20 852 -20 724 -20 c 0,0,1
1018 584 m 0,29,30
 1018 817 1018 817 946.5 934 c 128,-1,31
 875 1051 875 1051 731 1051 c 0,32,33
 680 1051 680 1051 627.5 1036.5 c 128,-1,34
 575 1022 575 1022 527 999.5 c 128,-1,35
 479 977 479 977 439.5 951 c 128,-1,36
 400 925 400 925 376 902 c 1,37,-1
 376 273 l 1,38,39
 455 198 455 198 544.5 158.5 c 128,-1,40
 634 119 634 119 733 119 c 0,41,42
 792 119 792 119 836 138.5 c 128,-1,43
 880 158 880 158 911.5 191.5 c 128,-1,44
 943 225 943 225 964 270.5 c 128,-1,45
 985 316 985 316 997 367.5 c 128,-1,46
 1009 419 1009 419 1013.5 474.5 c 128,-1,47
 1018 530 1018 530 1018 584 c 0,29,30
EndSplineSet
EndChar

StartChar: c
Encoding: 99 99 70
Width: 1139
Flags: W
LayerCount: 2
Fore
SplineSet
303 580 m 0,0,1
 303 449 303 449 329.5 361 c 128,-1,2
 356 273 356 273 400 219 c 128,-1,3
 444 165 444 165 502.5 142 c 128,-1,4
 561 119 561 119 626 119 c 0,5,6
 728 119 728 119 809.5 149.5 c 128,-1,7
 891 180 891 180 955 245 c 1,8,-1
 1012 111 l 1,9,10
 918 44 918 44 821 12 c 128,-1,11
 724 -20 724 -20 621 -20 c 0,12,13
 570 -20 570 -20 513 -9 c 128,-1,14
 456 2 456 2 399.5 28 c 128,-1,15
 343 54 343 54 291 98.5 c 128,-1,16
 239 143 239 143 199.5 209.5 c 128,-1,17
 160 276 160 276 136.5 367.5 c 128,-1,18
 113 459 113 459 113 580 c 256,19,20
 113 701 113 701 136.5 793 c 128,-1,21
 160 885 160 885 199.5 953 c 128,-1,22
 239 1021 239 1021 291 1066.5 c 128,-1,23
 343 1112 343 1112 399.5 1139.5 c 128,-1,24
 456 1167 456 1167 514 1178.5 c 128,-1,25
 572 1190 572 1190 624 1190 c 0,26,27
 825 1190 825 1190 1012 1057 c 1,28,-1
 955 924 l 1,29,30
 888 982 888 982 810 1016.5 c 128,-1,31
 732 1051 732 1051 641 1051 c 0,32,33
 477 1051 477 1051 390 933.5 c 128,-1,34
 303 816 303 816 303 580 c 0,0,1
EndSplineSet
EndChar

StartChar: d
Encoding: 100 100 71
Width: 1316
Flags: W
LayerCount: 2
Fore
SplineSet
113 584 m 0,0,1
 113 708 113 708 142.5 818 c 128,-1,2
 172 928 172 928 230 1010.5 c 128,-1,3
 288 1093 288 1093 374.5 1141.5 c 128,-1,4
 461 1190 461 1190 575 1190 c 0,5,6
 634 1190 634 1190 689.5 1175.5 c 128,-1,7
 745 1161 745 1161 793 1138 c 128,-1,8
 841 1115 841 1115 879 1086 c 128,-1,9
 917 1057 917 1057 940 1028 c 1,10,-1
 940 1579 l 1,11,-1
 1130 1614 l 1,12,-1
 1130 0 l 1,13,-1
 989 0 l 1,14,-1
 961 179 l 1,15,16
 932 141 932 141 892 105.5 c 128,-1,17
 852 70 852 70 804.5 42 c 128,-1,18
 757 14 757 14 704 -3 c 128,-1,19
 651 -20 651 -20 597 -20 c 0,20,21
 468 -20 468 -20 376.5 29 c 128,-1,22
 285 78 285 78 226.5 161 c 128,-1,23
 168 244 168 244 140.5 353.5 c 128,-1,24
 113 463 113 463 113 584 c 0,0,1
302 587 m 0,25,26
 302 354 302 354 377.5 236.5 c 128,-1,27
 453 119 453 119 608 119 c 0,28,29
 661 119 661 119 710.5 133.5 c 128,-1,30
 760 148 760 148 803 171 c 128,-1,31
 846 194 846 194 881 221.5 c 128,-1,32
 916 249 916 249 940 275 c 1,33,-1
 940 903 l 1,34,35
 851 975 851 975 767.5 1013 c 128,-1,36
 684 1051 684 1051 606 1051 c 0,37,38
 575 1051 575 1051 540.5 1045 c 128,-1,39
 506 1039 506 1039 472.5 1021.5 c 128,-1,40
 439 1004 439 1004 408 972.5 c 128,-1,41
 377 941 377 941 353.5 889.5 c 128,-1,42
 330 838 330 838 316 763.5 c 128,-1,43
 302 689 302 689 302 587 c 0,25,26
EndSplineSet
EndChar

StartChar: e
Encoding: 101 101 72
Width: 1152
Flags: W
LayerCount: 2
Fore
SplineSet
901 717 m 2,0,1
 901 827 901 827 874 893 c 128,-1,2
 847 959 847 959 806.5 994 c 128,-1,3
 766 1029 766 1029 718 1040 c 128,-1,4
 670 1051 670 1051 629 1051 c 0,5,6
 578 1051 578 1051 524.5 1036.5 c 128,-1,7
 471 1022 471 1022 425.5 981.5 c 128,-1,8
 380 941 380 941 347 869 c 128,-1,9
 314 797 314 797 304 682 c 1,10,-1
 901 682 l 1,11,-1
 901 717 l 2,0,1
304 567 m 1,12,13
 306 467 306 467 324 384.5 c 128,-1,14
 342 302 342 302 382.5 243 c 128,-1,15
 423 184 423 184 488 151.5 c 128,-1,16
 553 119 553 119 649 119 c 0,17,18
 818 119 818 119 955 236 c 1,19,-1
 1017 119 l 1,20,21
 979 87 979 87 928.5 61 c 128,-1,22
 878 35 878 35 825.5 17 c 128,-1,23
 773 -1 773 -1 723.5 -11 c 128,-1,24
 674 -21 674 -21 637 -21 c 0,25,26
 511 -21 511 -21 413.5 20.5 c 128,-1,27
 316 62 316 62 249 139.5 c 128,-1,28
 182 217 182 217 147.5 328 c 128,-1,29
 113 439 113 439 113 578 c 0,30,31
 113 725 113 725 152 839 c 128,-1,32
 191 953 191 953 259.5 1031 c 128,-1,33
 328 1109 328 1109 422.5 1149.5 c 128,-1,34
 517 1190 517 1190 628 1190 c 0,35,36
 738 1190 738 1190 822.5 1153 c 128,-1,37
 907 1116 907 1116 964 1048.5 c 128,-1,38
 1021 981 1021 981 1050.5 886.5 c 128,-1,39
 1080 792 1080 792 1080 676 c 0,40,41
 1080 652 1080 652 1078 625 c 128,-1,42
 1076 598 1076 598 1072 567 c 1,43,-1
 304 567 l 1,12,13
EndSplineSet
EndChar

StartChar: f
Encoding: 102 102 73
Width: 854
Flags: W
LayerCount: 2
Fore
SplineSet
597 1516 m 0,0,1
 549 1516 549 1516 517.5 1508.5 c 128,-1,2
 486 1501 486 1501 467 1479 c 128,-1,3
 448 1457 448 1457 440 1418 c 128,-1,4
 432 1379 432 1379 432 1316 c 2,5,-1
 432 1243 l 1,6,-1
 432 1169 l 1,7,-1
 780 1169 l 1,8,-1
 780 1064 l 1,9,-1
 432 1064 l 1,10,-1
 432 0 l 1,11,-1
 242 0 l 1,12,-1
 242 1064 l 1,13,-1
 47 1064 l 1,14,-1
 47 1169 l 1,15,-1
 242 1169 l 1,16,-1
 242 1198 l 2,17,18
 242 1338 242 1338 265.5 1427.5 c 128,-1,19
 289 1517 289 1517 332.5 1568.5 c 128,-1,20
 376 1620 376 1620 437 1639.5 c 128,-1,21
 498 1659 498 1659 573 1659 c 0,22,23
 617 1659 617 1659 660.5 1645.5 c 128,-1,24
 704 1632 704 1632 738.5 1615.5 c 128,-1,25
 773 1599 773 1599 794 1584 c 128,-1,26
 815 1569 815 1569 815 1567 c 2,27,-1
 752 1442 l 1,28,29
 669 1516 669 1516 597 1516 c 0,0,1
EndSplineSet
EndChar

StartChar: g
Encoding: 103 103 74
Width: 1199
Flags: W
LayerCount: 2
Fore
SplineSet
930 1020 m 1,0,1
 947 990 947 990 960 957 c 0,2,3
 971 928 971 928 980.5 893 c 128,-1,4
 990 858 990 858 990 820 c 0,5,6
 990 745 990 745 962 681 c 128,-1,7
 934 617 934 617 881 570 c 128,-1,8
 828 523 828 523 752 496.5 c 128,-1,9
 676 470 676 470 580 470 c 0,10,11
 524 470 524 470 478 468.5 c 128,-1,12
 432 467 432 467 399 457.5 c 128,-1,13
 366 448 366 448 348 427.5 c 128,-1,14
 330 407 330 407 330 370 c 0,15,16
 330 343 330 343 335 323.5 c 128,-1,17
 340 304 340 304 347.5 292 c 128,-1,18
 355 280 355 280 363.5 274.5 c 128,-1,19
 372 269 372 269 380 269 c 2,20,-1
 588 269 l 2,21,22
 708 269 708 269 800 254 c 128,-1,23
 892 239 892 239 954.5 204.5 c 128,-1,24
 1017 170 1017 170 1048.5 112.5 c 128,-1,25
 1080 55 1080 55 1080 -30 c 0,26,27
 1080 -118 1080 -118 1042.5 -184 c 128,-1,28
 1005 -250 1005 -250 937 -293.5 c 128,-1,29
 869 -337 869 -337 773 -358.5 c 128,-1,30
 677 -380 677 -380 560 -380 c 0,31,32
 467 -380 467 -380 388 -366.5 c 128,-1,33
 309 -353 309 -353 251.5 -318.5 c 128,-1,34
 194 -284 194 -284 162 -226.5 c 128,-1,35
 130 -169 130 -169 130 -80 c 0,36,37
 130 -23 130 -23 155 20.5 c 128,-1,38
 180 64 180 64 210 95 c 0,39,40
 245 131 245 131 291 158 c 1,41,42
 262 167 262 167 239 183.5 c 128,-1,43
 216 200 216 200 200 222.5 c 128,-1,44
 184 245 184 245 175.5 271 c 128,-1,45
 167 297 167 297 167 325 c 0,46,47
 167 354 167 354 176.5 383 c 128,-1,48
 186 412 186 412 206 438 c 128,-1,49
 226 464 226 464 257 485 c 128,-1,50
 288 506 288 506 330 520 c 1,51,52
 272 552 272 552 227 596 c 0,53,54
 207 615 207 615 188.5 638.5 c 128,-1,55
 170 662 170 662 156 690 c 128,-1,56
 142 718 142 718 133 750.5 c 128,-1,57
 124 783 124 783 124 820 c 0,58,59
 124 895 124 895 152 962 c 128,-1,60
 180 1029 180 1029 237 1080 c 128,-1,61
 294 1131 294 1131 379.5 1160.5 c 128,-1,62
 465 1190 465 1190 580 1190 c 0,63,64
 637 1190 637 1190 682.5 1176.5 c 128,-1,65
 728 1163 728 1163 761 1147 c 0,66,67
 800 1128 800 1128 830 1104 c 1,68,69
 884 1128 884 1128 938 1147 c 0,70,71
 984 1163 984 1163 1036 1176.5 c 128,-1,72
 1088 1190 1088 1190 1130 1190 c 1,73,-1
 1130 1020 l 1,74,-1
 930 1020 l 1,0,1
580 -236 m 0,75,76
 660 -236 660 -236 720 -220 c 128,-1,77
 780 -204 780 -204 820 -177 c 128,-1,78
 860 -150 860 -150 880 -113.5 c 128,-1,79
 900 -77 900 -77 900 -36 c 0,80,81
 900 20 900 20 880 52.5 c 128,-1,82
 860 85 860 85 820 101.5 c 128,-1,83
 780 118 780 118 720 122.5 c 128,-1,84
 660 127 660 127 580 127 c 2,85,-1
 430 127 l 1,86,87
 392 108 392 108 362 83 c 0,88,89
 336 62 336 62 315.5 32 c 128,-1,90
 295 2 295 2 295 -36 c 0,91,92
 295 -92 295 -92 311.5 -130.5 c 128,-1,93
 328 -169 328 -169 362.5 -192.5 c 128,-1,94
 397 -216 397 -216 451 -226 c 128,-1,95
 505 -236 505 -236 580 -236 c 0,75,76
465 590 m 1,96,97
 552 590 552 590 618.5 601.5 c 128,-1,98
 685 613 685 613 729.5 640 c 128,-1,99
 774 667 774 667 797 711 c 128,-1,100
 820 755 820 755 820 820 c 0,101,102
 820 875 820 875 807.5 918 c 128,-1,103
 795 961 795 961 766.5 990.5 c 128,-1,104
 738 1020 738 1020 692.5 1035.5 c 128,-1,105
 647 1051 647 1051 580 1051 c 0,106,107
 509 1051 509 1051 454 1040 c 128,-1,108
 399 1029 399 1029 361 1004.5 c 128,-1,109
 323 980 323 980 303.5 939.5 c 128,-1,110
 284 899 284 899 284 840 c 0,111,112
 284 806 284 806 291.5 777.5 c 128,-1,113
 299 749 299 749 312 725 c 128,-1,114
 325 701 325 701 341 682 c 128,-1,115
 357 663 357 663 374 648 c 0,116,117
 414 613 414 613 465 590 c 1,96,97
EndSplineSet
EndChar

StartChar: h
Encoding: 104 104 75
Width: 1347
Flags: W
LayerCount: 2
Fore
SplineSet
983 727 m 2,0,1
 983 815 983 815 969 876.5 c 128,-1,2
 955 938 955 938 928 977 c 128,-1,3
 901 1016 901 1016 861.5 1033.5 c 128,-1,4
 822 1051 822 1051 771 1051 c 0,5,6
 700 1051 700 1051 635 1031.5 c 128,-1,7
 570 1012 570 1012 517.5 985.5 c 128,-1,8
 465 959 465 959 428 931.5 c 128,-1,9
 391 904 391 904 376 888 c 1,10,-1
 376 0 l 1,11,-1
 186 0 l 1,12,-1
 186 1579 l 1,13,-1
 376 1616 l 1,14,-1
 376 1009 l 1,15,16
 414 1043 414 1043 456 1076 c 128,-1,17
 498 1109 498 1109 546 1134 c 128,-1,18
 594 1159 594 1159 650 1174.5 c 128,-1,19
 706 1190 706 1190 771 1190 c 0,20,21
 861 1190 861 1190 935.5 1166.5 c 128,-1,22
 1010 1143 1010 1143 1062.5 1088.5 c 128,-1,23
 1115 1034 1115 1034 1144 945.5 c 128,-1,24
 1173 857 1173 857 1173 727 c 2,25,-1
 1173 0 l 1,26,-1
 983 0 l 1,27,-1
 983 727 l 2,0,1
EndSplineSet
EndChar

StartChar: i
Encoding: 105 105 76
Width: 605
Flags: W
LayerCount: 2
Fore
SplineSet
395 0 m 1,0,-1
 205 0 l 1,1,-1
 205 1169 l 1,2,-1
 395 1169 l 1,3,-1
 395 0 l 1,0,-1
305 1577 m 0,4,5
 353 1577 353 1577 383 1543.5 c 128,-1,6
 413 1510 413 1510 413 1462 c 256,7,8
 413 1414 413 1414 383 1380.5 c 128,-1,9
 353 1347 353 1347 305 1347 c 0,10,11
 280 1347 280 1347 259.5 1356 c 128,-1,12
 239 1365 239 1365 224 1381 c 128,-1,13
 209 1397 209 1397 201 1418 c 128,-1,14
 193 1439 193 1439 193 1462 c 256,15,16
 193 1485 193 1485 201 1506 c 128,-1,17
 209 1527 209 1527 224 1542.5 c 128,-1,18
 239 1558 239 1558 259.5 1567.5 c 128,-1,19
 280 1577 280 1577 305 1577 c 0,4,5
EndSplineSet
EndChar

StartChar: j
Encoding: 106 106 77
Width: 545
Flags: W
LayerCount: 2
Fore
SplineSet
-37 -258 m 1,0,1
 30 -215 30 -215 68 -168 c 128,-1,2
 106 -121 106 -121 124.5 -67.5 c 128,-1,3
 143 -14 143 -14 147 46.5 c 128,-1,4
 151 107 151 107 151 176 c 2,5,-1
 151 1169 l 1,6,-1
 341 1169 l 1,7,-1
 341 154 l 2,8,9
 341 38 341 38 314 -52.5 c 128,-1,10
 287 -143 287 -143 241.5 -209 c 128,-1,11
 196 -275 196 -275 136 -316 c 128,-1,12
 76 -357 76 -357 10 -373 c 1,13,-1
 -37 -258 l 1,0,1
245 1577 m 0,14,15
 293 1577 293 1577 323 1543.5 c 128,-1,16
 353 1510 353 1510 353 1462 c 256,17,18
 353 1414 353 1414 323 1380.5 c 128,-1,19
 293 1347 293 1347 245 1347 c 0,20,21
 220 1347 220 1347 199.5 1356 c 128,-1,22
 179 1365 179 1365 164 1381 c 128,-1,23
 149 1397 149 1397 141 1418 c 128,-1,24
 133 1439 133 1439 133 1462 c 256,25,26
 133 1485 133 1485 141 1506 c 128,-1,27
 149 1527 149 1527 164 1542.5 c 128,-1,28
 179 1558 179 1558 199.5 1567.5 c 128,-1,29
 220 1577 220 1577 245 1577 c 0,14,15
EndSplineSet
EndChar

StartChar: k
Encoding: 107 107 78
Width: 1199
Flags: W
LayerCount: 2
Fore
SplineSet
1160 1169 m 1,0,-1
 607 648 l 1,1,-1
 1193 0 l 1,2,-1
 972 0 l 1,3,-1
 492 555 l 1,4,-1
 376 459 l 1,5,-1
 376 0 l 1,6,-1
 186 0 l 1,7,-1
 186 1579 l 1,8,-1
 376 1614 l 1,9,-1
 376 627 l 1,10,-1
 935 1169 l 1,11,-1
 1160 1169 l 1,0,-1
EndSplineSet
EndChar

StartChar: l
Encoding: 108 108 79
Width: 575
Flags: W
LayerCount: 2
Fore
SplineSet
193 0 m 1,0,-1
 193 1579 l 1,1,-1
 383 1614 l 1,2,-1
 383 0 l 1,3,-1
 193 0 l 1,0,-1
EndSplineSet
EndChar

StartChar: m
Encoding: 109 109 80
Width: 2018
Flags: W
LayerCount: 2
Fore
SplineSet
1075 967 m 1,0,1
 1110 1018 1110 1018 1157 1059 c 128,-1,2
 1204 1100 1204 1100 1258 1129.5 c 128,-1,3
 1312 1159 1312 1159 1370.5 1174.5 c 128,-1,4
 1429 1190 1429 1190 1488 1190 c 0,5,6
 1573 1190 1573 1190 1639.5 1159.5 c 128,-1,7
 1706 1129 1706 1129 1751.5 1073.5 c 128,-1,8
 1797 1018 1797 1018 1820.5 940 c 128,-1,9
 1844 862 1844 862 1844 766 c 2,10,-1
 1844 0 l 1,11,-1
 1654 0 l 1,12,-1
 1654 768 l 2,13,14
 1654 853 1654 853 1640 908 c 128,-1,15
 1626 963 1626 963 1600.5 995 c 128,-1,16
 1575 1027 1575 1027 1539.5 1039 c 128,-1,17
 1504 1051 1504 1051 1460 1051 c 0,18,19
 1369 1051 1369 1051 1282.5 1002 c 128,-1,20
 1196 953 1196 953 1105 858 c 1,21,-1
 1105 0 l 1,22,-1
 915 0 l 1,23,-1
 915 768 l 2,24,25
 915 852 915 852 902 906.5 c 128,-1,26
 889 961 889 961 864.5 993.5 c 128,-1,27
 840 1026 840 1026 804 1038.5 c 128,-1,28
 768 1051 768 1051 723 1051 c 0,29,30
 646 1051 646 1051 558 1002.5 c 128,-1,31
 470 954 470 954 376 860 c 1,32,-1
 376 0 l 1,33,-1
 186 0 l 1,34,-1
 186 1169 l 1,35,-1
 327 1169 l 1,36,-1
 354 963 l 1,37,38
 384 1011 384 1011 426.5 1052.5 c 128,-1,39
 469 1094 469 1094 520.5 1124.5 c 128,-1,40
 572 1155 572 1155 631.5 1172.5 c 128,-1,41
 691 1190 691 1190 754 1190 c 0,42,43
 820 1190 820 1190 872.5 1172.5 c 128,-1,44
 925 1155 925 1155 965 1124.5 c 128,-1,45
 1005 1094 1005 1094 1032.5 1053.5 c 128,-1,46
 1060 1013 1060 1013 1075 967 c 1,0,1
EndSplineSet
EndChar

StartChar: n
Encoding: 110 110 81
Width: 1344
Flags: W
LayerCount: 2
Fore
SplineSet
376 880 m 1,0,-1
 376 0 l 1,1,-1
 186 0 l 1,2,-1
 186 1169 l 1,3,-1
 326 1169 l 1,4,-1
 350 982 l 1,5,6
 380 1020 380 1020 430.5 1057 c 128,-1,7
 481 1094 481 1094 541.5 1123.5 c 128,-1,8
 602 1153 602 1153 669 1171.5 c 128,-1,9
 736 1190 736 1190 799 1190 c 0,10,11
 836 1190 836 1190 878.5 1183 c 128,-1,12
 921 1176 921 1176 962 1157.5 c 128,-1,13
 1003 1139 1003 1139 1040.5 1106 c 128,-1,14
 1078 1073 1078 1073 1107 1021.5 c 128,-1,15
 1136 970 1136 970 1153 897.5 c 128,-1,16
 1170 825 1170 825 1170 727 c 2,17,-1
 1170 0 l 1,18,-1
 980 0 l 1,19,-1
 980 727 l 2,20,21
 980 797 980 797 969.5 856.5 c 128,-1,22
 959 916 959 916 933.5 959 c 128,-1,23
 908 1002 908 1002 864.5 1026.5 c 128,-1,24
 821 1051 821 1051 756 1051 c 0,25,26
 723 1051 723 1051 686 1042 c 128,-1,27
 649 1033 649 1033 611.5 1018.5 c 128,-1,28
 574 1004 574 1004 537.5 985.5 c 128,-1,29
 501 967 501 967 470 948 c 128,-1,30
 439 929 439 929 414.5 911 c 128,-1,31
 390 893 390 893 376 880 c 1,0,-1
EndSplineSet
EndChar

StartChar: o
Encoding: 111 111 82
Width: 1285
Flags: W
LayerCount: 2
Fore
SplineSet
643 -20 m 256,0,1
 509 -20 509 -20 409.5 27.5 c 128,-1,2
 310 75 310 75 244 157 c 128,-1,3
 178 239 178 239 145.5 349 c 128,-1,4
 113 459 113 459 113 585 c 256,5,6
 113 711 113 711 145.5 821 c 128,-1,7
 178 931 178 931 244 1013 c 128,-1,8
 310 1095 310 1095 409.5 1142.5 c 128,-1,9
 509 1190 509 1190 643 1190 c 256,10,11
 777 1190 777 1190 876.5 1142.5 c 128,-1,12
 976 1095 976 1095 1042 1013 c 128,-1,13
 1108 931 1108 931 1140.5 821 c 128,-1,14
 1173 711 1173 711 1173 585 c 256,15,16
 1173 459 1173 459 1140.5 349 c 128,-1,17
 1108 239 1108 239 1042 157 c 128,-1,18
 976 75 976 75 876.5 27.5 c 128,-1,19
 777 -20 777 -20 643 -20 c 256,0,1
643 119 m 256,20,21
 709 119 709 119 760 138.5 c 128,-1,22
 811 158 811 158 848.5 192.5 c 128,-1,23
 886 227 886 227 912 272.5 c 128,-1,24
 938 318 938 318 953.5 369.5 c 128,-1,25
 969 421 969 421 976 476.5 c 128,-1,26
 983 532 983 532 983 585 c 256,27,28
 983 638 983 638 976 693.5 c 128,-1,29
 969 749 969 749 953.5 800.5 c 128,-1,30
 938 852 938 852 912 897.5 c 128,-1,31
 886 943 886 943 848.5 977.5 c 128,-1,32
 811 1012 811 1012 760 1031.5 c 128,-1,33
 709 1051 709 1051 643 1051 c 256,34,35
 577 1051 577 1051 526 1031.5 c 128,-1,36
 475 1012 475 1012 437.5 977.5 c 128,-1,37
 400 943 400 943 374 897.5 c 128,-1,38
 348 852 348 852 332.5 800.5 c 128,-1,39
 317 749 317 749 310 693.5 c 128,-1,40
 303 638 303 638 303 585 c 256,41,42
 303 532 303 532 310 476.5 c 128,-1,43
 317 421 317 421 332.5 369.5 c 128,-1,44
 348 318 348 318 374 272.5 c 128,-1,45
 400 227 400 227 437.5 192.5 c 128,-1,46
 475 158 475 158 526 138.5 c 128,-1,47
 577 119 577 119 643 119 c 256,20,21
EndSplineSet
EndChar

StartChar: p
Encoding: 112 112 83
Width: 1316
Flags: W
LayerCount: 2
Fore
SplineSet
735 -20 m 0,0,1
 682 -20 682 -20 630.5 -5.5 c 128,-1,2
 579 9 579 9 533 34 c 128,-1,3
 487 59 487 59 447 92.5 c 128,-1,4
 407 126 407 126 376 164 c 1,5,-1
 376 -465 l 1,6,-1
 186 -487 l 1,7,-1
 186 1169 l 1,8,-1
 327 1169 l 1,9,-1
 360 991 l 1,10,11
 393 1031 393 1031 434.5 1067 c 128,-1,12
 476 1103 476 1103 524 1130.5 c 128,-1,13
 572 1158 572 1158 625 1174 c 128,-1,14
 678 1190 678 1190 734 1190 c 0,15,16
 828 1190 828 1190 899.5 1162.5 c 128,-1,17
 971 1135 971 1135 1023 1088 c 128,-1,18
 1075 1041 1075 1041 1110 979.5 c 128,-1,19
 1145 918 1145 918 1166 851 c 128,-1,20
 1187 784 1187 784 1195.5 715 c 128,-1,21
 1204 646 1204 646 1204 584 c 0,22,23
 1204 470 1204 470 1177.5 361.5 c 128,-1,24
 1151 253 1151 253 1094 168 c 128,-1,25
 1037 83 1037 83 948 31.5 c 128,-1,26
 859 -20 859 -20 735 -20 c 0,0,1
1014 543 m 0,27,28
 1014 595 1014 595 1010 653.5 c 128,-1,29
 1006 712 1006 712 995 768 c 128,-1,30
 984 824 984 824 964.5 875.5 c 128,-1,31
 945 927 945 927 914 966 c 128,-1,32
 883 1005 883 1005 839 1028 c 128,-1,33
 795 1051 795 1051 735 1051 c 0,34,35
 674 1051 674 1051 615 1030.5 c 128,-1,36
 556 1010 556 1010 506.5 983 c 128,-1,37
 457 956 457 956 422.5 929.5 c 128,-1,38
 388 903 388 903 376 890 c 1,39,-1
 376 285 l 1,40,41
 383 277 383 277 414.5 250.5 c 128,-1,42
 446 224 446 224 493.5 194.5 c 128,-1,43
 541 165 541 165 599.5 142 c 128,-1,44
 658 119 658 119 718 119 c 0,45,46
 782 119 782 119 836.5 151.5 c 128,-1,47
 891 184 891 184 930.5 241 c 128,-1,48
 970 298 970 298 992 375.5 c 128,-1,49
 1014 453 1014 453 1014 543 c 0,27,28
EndSplineSet
EndChar

StartChar: q
Encoding: 113 113 84
Width: 1316
Flags: W
LayerCount: 2
Fore
SplineSet
574 1190 m 0,0,1
 631 1190 631 1190 687 1172 c 128,-1,2
 743 1154 743 1154 793 1124 c 128,-1,3
 843 1094 843 1094 885.5 1054.5 c 128,-1,4
 928 1015 928 1015 957 971 c 1,5,-1
 991 1169 l 1,6,-1
 1130 1169 l 1,7,-1
 1130 -479 l 1,8,-1
 940 -502 l 1,9,-1
 940 164 l 1,10,11
 910 126 910 126 870.5 92.5 c 128,-1,12
 831 59 831 59 785 34 c 128,-1,13
 739 9 739 9 688.5 -5.5 c 128,-1,14
 638 -20 638 -20 584 -20 c 0,15,16
 457 -20 457 -20 367.5 32 c 128,-1,17
 278 84 278 84 221.5 169 c 128,-1,18
 165 254 165 254 139 362.5 c 128,-1,19
 113 471 113 471 113 584 c 0,20,21
 113 701 113 701 138 810 c 128,-1,22
 163 919 163 919 218.5 1003.5 c 128,-1,23
 274 1088 274 1088 361.5 1139 c 128,-1,24
 449 1190 449 1190 574 1190 c 0,0,1
303 584 m 0,25,26
 303 483 303 483 316 409.5 c 128,-1,27
 329 336 329 336 351 284.5 c 128,-1,28
 373 233 373 233 401.5 200.5 c 128,-1,29
 430 168 430 168 461 150 c 128,-1,30
 492 132 492 132 524 125.5 c 128,-1,31
 556 119 556 119 584 119 c 0,32,33
 637 119 637 119 691.5 134.5 c 128,-1,34
 746 150 746 150 794 172.5 c 128,-1,35
 842 195 842 195 880.5 221 c 128,-1,36
 919 247 919 247 940 268 c 1,37,-1
 940 891 l 1,38,39
 906 925 906 925 859.5 954.5 c 128,-1,40
 813 984 813 984 762.5 1005.5 c 128,-1,41
 712 1027 712 1027 663 1039 c 128,-1,42
 614 1051 614 1051 574 1051 c 0,43,44
 439 1051 439 1051 371 934 c 128,-1,45
 303 817 303 817 303 584 c 0,25,26
EndSplineSet
EndChar

StartChar: r
Encoding: 114 114 85
Width: 792
Flags: W
LayerCount: 2
Fore
SplineSet
681 1190 m 0,0,1
 740 1190 740 1190 781 1178 c 1,2,-1
 781 1026 l 1,3,4
 777 1030 777 1030 719 1030 c 0,5,6
 677 1030 677 1030 637 1021 c 128,-1,7
 597 1012 597 1012 560 998 c 128,-1,8
 523 984 523 984 491 967.5 c 128,-1,9
 459 951 459 951 435 936 c 128,-1,10
 411 921 411 921 395.5 909.5 c 128,-1,11
 380 898 380 898 376 894 c 1,12,-1
 376 0 l 1,13,-1
 186 0 l 1,14,-1
 186 1169 l 1,15,-1
 329 1169 l 1,16,-1
 359 977 l 1,17,18
 522 1190 522 1190 681 1190 c 0,0,1
EndSplineSet
EndChar

StartChar: s
Encoding: 115 115 86
Width: 1043
Flags: W
LayerCount: 2
Fore
SplineSet
121 100 m 1,0,-1
 185 235 l 1,1,2
 218 209 218 209 260 187.5 c 128,-1,3
 302 166 302 166 346 151 c 128,-1,4
 390 136 390 136 433.5 127.5 c 128,-1,5
 477 119 477 119 512 119 c 0,6,7
 568 119 568 119 615.5 130.5 c 128,-1,8
 663 142 663 142 697.5 165.5 c 128,-1,9
 732 189 732 189 751.5 226 c 128,-1,10
 771 263 771 263 771 314 c 0,11,12
 771 354 771 354 759 383 c 128,-1,13
 747 412 747 412 723 434 c 128,-1,14
 699 456 699 456 663 472.5 c 128,-1,15
 627 489 627 489 580 505 c 2,16,-1
 408 566 l 1,17,18
 318 596 318 596 260 628 c 128,-1,19
 202 660 202 660 169 698.5 c 128,-1,20
 136 737 136 737 123.5 784 c 128,-1,21
 111 831 111 831 111 891 c 0,22,23
 111 936 111 936 130 988 c 128,-1,24
 149 1040 149 1040 195 1084.5 c 128,-1,25
 241 1129 241 1129 317.5 1158.5 c 128,-1,26
 394 1188 394 1188 508 1190 c 1,27,28
 579 1190 579 1190 639.5 1177.5 c 128,-1,29
 700 1165 700 1165 749 1146 c 128,-1,30
 798 1127 798 1127 833.5 1106 c 128,-1,31
 869 1085 869 1085 890 1067 c 1,32,-1
 828 943 l 1,33,34
 678 1051 678 1051 519 1051 c 0,35,36
 451 1051 451 1051 405.5 1038.5 c 128,-1,37
 360 1026 360 1026 331.5 1003.5 c 128,-1,38
 303 981 303 981 291 949.5 c 128,-1,39
 279 918 279 918 279 880 c 0,40,41
 279 857 279 857 284.5 838 c 128,-1,42
 290 819 290 819 306.5 802.5 c 128,-1,43
 323 786 323 786 354 770.5 c 128,-1,44
 385 755 385 755 435 737 c 2,45,-1
 603 678 l 2,46,47
 710 640 710 640 776.5 600.5 c 128,-1,48
 843 561 843 561 880 516 c 128,-1,49
 917 471 917 471 930 420 c 128,-1,50
 943 369 943 369 943 309 c 0,51,52
 943 245 943 245 924.5 195.5 c 128,-1,53
 906 146 906 146 874 109.5 c 128,-1,54
 842 73 842 73 799 48 c 128,-1,55
 756 23 756 23 707.5 7.5 c 128,-1,56
 659 -8 659 -8 607 -14.5 c 128,-1,57
 555 -21 555 -21 505 -21 c 0,58,59
 456 -21 456 -21 399 -10 c 128,-1,60
 342 1 342 1 289 18.5 c 128,-1,61
 236 36 236 36 191 57.5 c 128,-1,62
 146 79 146 79 121 100 c 1,0,-1
EndSplineSet
EndChar

StartChar: t
Encoding: 116 116 87
Width: 868
Flags: W
LayerCount: 2
Fore
SplineSet
522 -20 m 0,0,1
 444 -20 444 -20 390 0 c 128,-1,2
 336 20 336 20 302.5 63.5 c 128,-1,3
 269 107 269 107 253.5 176.5 c 128,-1,4
 238 246 238 246 238 346 c 2,5,-1
 238 1065 l 1,6,-1
 55 1065 l 1,7,-1
 55 1169 l 1,8,-1
 238 1169 l 1,9,-1
 266 1530 l 1,10,-1
 428 1576 l 1,11,-1
 428 1169 l 1,12,-1
 761 1169 l 1,13,-1
 761 1065 l 1,14,-1
 428 1065 l 1,15,-1
 428 294 l 2,16,17
 428 240 428 240 434 206 c 128,-1,18
 440 172 440 172 452 152.5 c 128,-1,19
 464 133 464 133 482.5 126 c 128,-1,20
 501 119 501 119 526 119 c 0,21,22
 565 119 565 119 617 138 c 128,-1,23
 669 157 669 157 752 205 c 1,24,-1
 819 82 l 1,25,26
 797 69 797 69 763.5 51.5 c 128,-1,27
 730 34 730 34 690 18 c 128,-1,28
 650 2 650 2 606.5 -9 c 128,-1,29
 563 -20 563 -20 522 -20 c 0,0,1
EndSplineSet
EndChar

StartChar: u
Encoding: 117 117 88
Width: 1298
Flags: W
LayerCount: 2
Fore
SplineSet
364 442 m 2,0,1
 364 365 364 365 376.5 305 c 128,-1,2
 389 245 389 245 416.5 203.5 c 128,-1,3
 444 162 444 162 488.5 140.5 c 128,-1,4
 533 119 533 119 596 119 c 0,5,6
 693 119 693 119 781 158.5 c 128,-1,7
 869 198 869 198 950 274 c 1,8,-1
 950 1169 l 1,9,-1
 1140 1169 l 1,10,-1
 1140 0 l 1,11,-1
 999 0 l 1,12,-1
 972 176 l 1,13,14
 882 75 882 75 789 27.5 c 128,-1,15
 696 -20 696 -20 586 -20 c 0,16,17
 490 -20 490 -20 413.5 6.5 c 128,-1,18
 337 33 337 33 283.5 89.5 c 128,-1,19
 230 146 230 146 202 233 c 128,-1,20
 174 320 174 320 174 442 c 2,21,-1
 174 1169 l 1,22,-1
 364 1169 l 1,23,-1
 364 442 l 2,0,1
EndSplineSet
EndChar

StartChar: v
Encoding: 118 118 89
Width: 1166
Flags: W
LayerCount: 2
Fore
SplineSet
675 0 m 1,0,-1
 489 0 l 1,1,-1
 61 1169 l 1,2,-1
 249 1169 l 1,3,-1
 585 199 l 1,4,-1
 915 1169 l 1,5,-1
 1105 1169 l 1,6,-1
 675 0 l 1,0,-1
EndSplineSet
EndChar

StartChar: w
Encoding: 119 119 90
Width: 1726
Flags: W
LayerCount: 2
Fore
SplineSet
860 1015 m 1,0,-1
 612 0 l 1,1,-1
 406 0 l 1,2,-1
 86 1169 l 1,3,-1
 270 1169 l 1,4,-1
 514 164 l 1,5,-1
 762 1169 l 1,6,-1
 964 1169 l 1,7,-1
 1224 162 l 1,8,-1
 1454 1169 l 1,9,-1
 1640 1169 l 1,10,-1
 1320 0 l 1,11,-1
 1114 0 l 1,12,-1
 860 1015 l 1,0,-1
EndSplineSet
EndChar

StartChar: x
Encoding: 120 120 91
Width: 1124
Flags: W
LayerCount: 2
Fore
SplineSet
59 1169 m 1,0,-1
 275 1169 l 1,1,-1
 557 702 l 1,2,-1
 847 1169 l 1,3,-1
 1057 1169 l 1,4,-1
 651 584 l 1,5,-1
 1049 0 l 1,6,-1
 845 0 l 1,7,-1
 563 477 l 1,8,-1
 275 0 l 1,9,-1
 63 0 l 1,10,-1
 471 584 l 1,11,-1
 59 1169 l 1,0,-1
EndSplineSet
EndChar

StartChar: y
Encoding: 121 121 92
Width: 1155
Flags: W
LayerCount: 2
Fore
SplineSet
598 249 m 1,0,-1
 899 1169 l 1,1,-1
 1094 1169 l 1,2,-1
 657 -37 l 2,3,4
 633 -103 633 -103 617.5 -144.5 c 128,-1,5
 602 -186 602 -186 594 -203 c 0,6,7
 533 -336 533 -336 440.5 -397.5 c 128,-1,8
 348 -459 348 -459 223 -459 c 1,9,-1
 172 -334 l 1,10,11
 322 -309 322 -309 389 -239 c 0,12,13
 455 -170 455 -170 512 23 c 1,14,-1
 61 1169 l 1,15,-1
 243 1169 l 1,16,-1
 598 249 l 1,0,-1
EndSplineSet
EndChar

StartChar: z
Encoding: 122 122 93
Width: 978
Flags: W
LayerCount: 2
Fore
SplineSet
890 1169 m 1,0,-1
 890 1004 l 1,1,-1
 264 145 l 1,2,-1
 890 145 l 1,3,-1
 890 0 l 1,4,-1
 88 0 l 1,5,-1
 88 166 l 1,6,-1
 726 1029 l 1,7,-1
 118 1029 l 1,8,-1
 118 1169 l 1,9,-1
 890 1169 l 1,0,-1
EndSplineSet
EndChar

StartChar: braceleft
Encoding: 123 123 94
Width: 1160
Flags: W
LayerCount: 2
Fore
SplineSet
256 759 m 1,0,1
 494 759 494 759 494 1067 c 0,2,3
 494 1184 494 1184 517.5 1272.5 c 128,-1,4
 541 1361 541 1361 591 1420.5 c 128,-1,5
 641 1480 641 1480 718.5 1509.5 c 128,-1,6
 796 1539 796 1539 903 1539 c 1,7,-1
 904 1370 l 1,8,9
 873 1370 873 1370 848 1368.5 c 128,-1,10
 823 1367 823 1367 802 1362 c 128,-1,11
 781 1357 781 1357 763 1347 c 128,-1,12
 745 1337 745 1337 727 1321 c 0,13,14
 710 1305 710 1305 699.5 1280.5 c 128,-1,15
 689 1256 689 1256 678 1211 c 0,16,17
 672 1189 672 1189 668 1147 c 128,-1,18
 664 1105 664 1105 664 1042 c 0,19,20
 664 728 664 728 423 665 c 1,21,22
 664 602 664 602 664 288 c 1,23,24
 665 225 665 225 668 185.5 c 128,-1,25
 671 146 671 146 676 120.5 c 128,-1,26
 681 95 681 95 687.5 79.5 c 128,-1,27
 694 64 694 64 700 49 c 0,28,29
 713 18 713 18 733.5 0.5 c 128,-1,30
 754 -17 754 -17 780 -26 c 128,-1,31
 806 -35 806 -35 837.5 -37.5 c 128,-1,32
 869 -40 869 -40 904 -40 c 1,33,-1
 903 -209 l 1,34,35
 796 -209 796 -209 718.5 -179.5 c 128,-1,36
 641 -150 641 -150 591 -90.5 c 128,-1,37
 541 -31 541 -31 517.5 57.5 c 128,-1,38
 494 146 494 146 494 263 c 0,39,40
 494 571 494 571 256 571 c 1,41,-1
 256 759 l 1,0,1
EndSplineSet
EndChar

StartChar: bar
Encoding: 124 124 95
Width: 698
Flags: W
LayerCount: 2
Fore
SplineSet
260 -111 m 1,0,-1
 260 1696 l 1,1,-1
 438 1696 l 1,2,-1
 438 -111 l 1,3,-1
 260 -111 l 1,0,-1
EndSplineSet
EndChar

StartChar: braceright
Encoding: 125 125 96
Width: 1160
Flags: W
LayerCount: 2
Fore
SplineSet
904 571 m 1,0,1
 666 571 666 571 666 263 c 0,2,3
 666 146 666 146 642.5 58 c 128,-1,4
 619 -30 619 -30 569 -89.5 c 128,-1,5
 519 -149 519 -149 441.5 -179 c 128,-1,6
 364 -209 364 -209 257 -209 c 1,7,-1
 256 -40 l 1,8,9
 291 -40 291 -40 322 -37.5 c 128,-1,10
 353 -35 353 -35 379.5 -26 c 128,-1,11
 406 -17 406 -17 426.5 0.5 c 128,-1,12
 447 18 447 18 460 49 c 0,13,14
 466 64 466 64 472 79.5 c 128,-1,15
 478 95 478 95 483 120.5 c 128,-1,16
 488 146 488 146 491.5 185.5 c 128,-1,17
 495 225 495 225 496 288 c 1,18,19
 496 602 496 602 737 665 c 1,20,21
 496 728 496 728 496 1042 c 0,22,23
 496 1105 496 1105 491.5 1147 c 128,-1,24
 487 1189 487 1189 482 1211 c 0,25,26
 470 1256 470 1256 460 1280.5 c 128,-1,27
 450 1305 450 1305 433 1321 c 0,28,29
 415 1337 415 1337 397 1347 c 128,-1,30
 379 1357 379 1357 358 1362 c 128,-1,31
 337 1367 337 1367 312 1368.5 c 128,-1,32
 287 1370 287 1370 256 1370 c 1,33,-1
 257 1539 l 1,34,35
 364 1539 364 1539 441.5 1509 c 128,-1,36
 519 1479 519 1479 569 1419.5 c 128,-1,37
 619 1360 619 1360 642.5 1272 c 128,-1,38
 666 1184 666 1184 666 1067 c 0,39,40
 666 759 666 759 904 759 c 1,41,-1
 904 571 l 1,0,1
EndSplineSet
EndChar

StartChar: asciitilde
Encoding: 126 126 97
Width: 1194
Flags: W
LayerCount: 2
Fore
SplineSet
785 390 m 0,0,1
 729 390 729 390 677 408.5 c 128,-1,2
 625 427 625 427 580 449.5 c 128,-1,3
 535 472 535 472 497 490.5 c 128,-1,4
 459 509 459 509 432 509 c 0,5,6
 403 509 403 509 388 484.5 c 128,-1,7
 373 460 373 460 373 394 c 1,8,-1
 217 394 l 1,9,10
 217 654 217 654 418 654 c 0,11,12
 474 654 474 654 520.5 634.5 c 128,-1,13
 567 615 567 615 608.5 591.5 c 128,-1,14
 650 568 650 568 687 548.5 c 128,-1,15
 724 529 724 529 762 529 c 0,16,17
 821 529 821 529 821 640 c 1,18,-1
 977 640 l 1,19,20
 977 583 977 583 963.5 537 c 128,-1,21
 950 491 950 491 925 458.5 c 128,-1,22
 900 426 900 426 864.5 408 c 128,-1,23
 829 390 829 390 785 390 c 0,0,1
EndSplineSet
EndChar

StartChar: exclamdown
Encoding: 161 161 98
Width: 455
Flags: W
LayerCount: 2
Fore
SplineSet
120 1393 m 1,0,-1
 120 1595 l 1,1,-1
 329 1595 l 1,2,-1
 329 1393 l 1,3,-1
 120 1393 l 1,0,-1
344 0 m 1,4,-1
 170 0 l 1,5,-1
 170 1180 l 1,6,-1
 344 1180 l 1,7,-1
 344 0 l 1,4,-1
EndSplineSet
EndChar

StartChar: cent
Encoding: 162 162 99
Width: 1315
Flags: W
LayerCount: 2
Fore
SplineSet
646 -22 m 1,0,1
 596 -19 596 -19 541.5 -5 c 128,-1,2
 487 9 487 9 434.5 37.5 c 128,-1,3
 382 66 382 66 334.5 111 c 128,-1,4
 287 156 287 156 251 222 c 128,-1,5
 215 288 215 288 193.5 376.5 c 128,-1,6
 172 465 172 465 172 580 c 0,7,8
 172 694 172 694 193 782.5 c 128,-1,9
 214 871 214 871 250 937.5 c 128,-1,10
 286 1004 286 1004 333.5 1049.5 c 128,-1,11
 381 1095 381 1095 433.5 1124.5 c 128,-1,12
 486 1154 486 1154 540.5 1169 c 128,-1,13
 595 1184 595 1184 646 1189 c 1,14,-1
 646 1329 l 1,15,-1
 749 1329 l 1,16,-1
 749 1186 l 1,17,18
 803 1186 803 1186 859.5 1169 c 128,-1,19
 916 1152 916 1152 962.5 1131.5 c 128,-1,20
 1009 1111 1009 1111 1039.5 1094 c 128,-1,21
 1070 1077 1070 1077 1071 1077 c 2,22,-1
 1014 944 l 2,23,24
 1013 944 1013 944 991 958.5 c 128,-1,25
 969 973 969 973 932 990.5 c 128,-1,26
 895 1008 895 1008 847.5 1023 c 128,-1,27
 800 1038 800 1038 749 1038 c 1,28,-1
 749 130 l 1,29,30
 802 130 802 130 850.5 141.5 c 128,-1,31
 899 153 899 153 935.5 167.5 c 128,-1,32
 972 182 972 182 993 193.5 c 128,-1,33
 1014 205 1014 205 1014 205 c 1,34,-1
 1060 68 l 2,35,36
 1060 66 1060 66 1030.5 52 c 128,-1,37
 1001 38 1001 38 955.5 22.5 c 128,-1,38
 910 7 910 7 855 -6 c 128,-1,39
 800 -19 800 -19 749 -19 c 1,40,-1
 749 -159 l 1,41,-1
 646 -159 l 1,42,-1
 646 -22 l 1,0,1
646 1037 m 1,43,44
 362 999 362 999 362 580 c 0,45,46
 362 460 362 460 385 377 c 128,-1,47
 408 294 408 294 447 241 c 128,-1,48
 486 188 486 188 537.5 161.5 c 128,-1,49
 589 135 589 135 646 129 c 1,50,-1
 646 1037 l 1,43,44
EndSplineSet
EndChar

StartChar: sterling
Encoding: 163 163 100
Width: 1197
Flags: W
LayerCount: 2
Fore
SplineSet
189 132 m 1,0,1
 198 145 198 145 221 181 c 128,-1,2
 244 217 244 217 267 276 c 128,-1,3
 290 335 290 335 308 416.5 c 128,-1,4
 326 498 326 498 326 603 c 1,5,-1
 129 603 l 1,6,-1
 129 706 l 1,7,-1
 302 706 l 2,8,9
 300 706 300 706 281.5 725 c 128,-1,10
 263 744 263 744 242 778 c 128,-1,11
 221 812 221 812 203.5 857.5 c 128,-1,12
 186 903 186 903 186 956 c 0,13,14
 186 1038 186 1038 219.5 1105.5 c 128,-1,15
 253 1173 253 1173 307.5 1221 c 128,-1,16
 362 1269 362 1269 432.5 1295.5 c 128,-1,17
 503 1322 503 1322 577 1322 c 0,18,19
 643 1322 643 1322 699 1315.5 c 128,-1,20
 755 1309 755 1309 801.5 1299 c 128,-1,21
 848 1289 848 1289 884 1277 c 128,-1,22
 920 1265 920 1265 946 1254 c 0,23,24
 964 1246 964 1246 977.5 1240 c 128,-1,25
 991 1234 991 1234 999 1229 c 0,26,27
 1009 1224 1009 1224 1016 1219 c 1,28,-1
 966 1088 l 1,29,-1
 948 1097 l 2,30,31
 930 1107 930 1107 897.5 1121.5 c 128,-1,32
 865 1136 865 1136 823 1149 c 128,-1,33
 781 1162 781 1162 733 1171 c 128,-1,34
 685 1180 685 1180 636 1180 c 0,35,36
 368 1180 368 1180 368 959 c 0,37,38
 368 850 368 850 453 741 c 1,39,-1
 484 706 l 1,40,-1
 912 706 l 1,41,-1
 912 603 l 1,42,-1
 484 603 l 1,43,44
 484 512 484 512 472 438 c 128,-1,45
 460 364 460 364 443 307.5 c 128,-1,46
 426 251 426 251 408 212 c 128,-1,47
 390 173 390 173 378 151 c 1,48,-1
 365 132 l 1,49,-1
 981 132 l 1,50,-1
 981 0 l 1,51,-1
 184 0 l 1,52,-1
 184 126 l 1,53,-1
 189 132 l 1,0,1
EndSplineSet
EndChar

StartChar: currency
Encoding: 164 164 101
Width: 1303
Flags: W
LayerCount: 2
Fore
SplineSet
443 1177 m 1,0,1
 356 1088 356 1088 356 975 c 0,2,3
 356 919 356 919 378.5 869 c 128,-1,4
 401 819 401 819 438.5 781.5 c 128,-1,5
 476 744 476 744 526 721.5 c 128,-1,6
 576 699 576 699 630 699 c 0,7,8
 687 699 687 699 739.5 723.5 c 128,-1,9
 792 748 792 748 832.5 788.5 c 128,-1,10
 873 829 873 829 897.5 882 c 128,-1,11
 922 935 922 935 922 992 c 0,12,13
 922 1047 922 1047 899.5 1097 c 128,-1,14
 877 1147 877 1147 839.5 1184.5 c 128,-1,15
 802 1222 802 1222 752 1244 c 128,-1,16
 702 1266 702 1266 648 1266 c 0,17,18
 532 1266 532 1266 443 1177 c 1,0,1
281 742 m 1,19,20
 213 845 213 845 213 967 c 0,21,22
 213 1097 213 1097 288 1208 c 1,23,-1
 94 1402 l 1,24,-1
 218 1526 l 1,25,-1
 412 1333 l 1,26,27
 524 1409 524 1409 655 1409 c 0,28,29
 777 1409 777 1409 880 1341 c 1,30,-1
 1066 1526 l 1,31,-1
 1190 1402 l 1,32,-1
 1003 1215 l 1,33,34
 1064 1118 1064 1118 1064 1000 c 0,35,36
 1064 869 1064 869 988 757 c 1,37,-1
 1190 555 l 1,38,-1
 1066 430 l 1,39,-1
 863 633 l 1,40,41
 753 558 753 558 623 558 c 0,42,43
 505 558 505 558 407 619 c 1,44,-1
 218 430 l 1,45,-1
 94 555 l 1,46,-1
 281 742 l 1,19,20
EndSplineSet
EndChar

StartChar: yen
Encoding: 165 165 102
Width: 1303
Flags: W
LayerCount: 2
Fore
SplineSet
565 688 m 1,0,-1
 82 1579 l 1,1,-1
 276 1579 l 1,2,-1
 696 788 l 1,3,-1
 1116 1579 l 1,4,-1
 1310 1579 l 1,5,-1
 829 688 l 1,6,-1
 1092 688 l 1,7,-1
 1092 584 l 1,8,-1
 796 584 l 1,9,-1
 796 488 l 1,10,-1
 1092 488 l 1,11,-1
 1092 389 l 1,12,-1
 796 389 l 1,13,-1
 796 0 l 1,14,-1
 606 0 l 1,15,-1
 606 389 l 1,16,-1
 304 389 l 1,17,-1
 304 488 l 1,18,-1
 606 488 l 1,19,-1
 606 584 l 1,20,-1
 304 584 l 1,21,-1
 304 688 l 1,22,-1
 565 688 l 1,0,-1
EndSplineSet
EndChar

StartChar: brokenbar
Encoding: 166 166 103
Width: 474
Flags: W
LayerCount: 2
Fore
SplineSet
144 889 m 1,0,-1
 144 1579 l 1,1,-1
 332 1579 l 1,2,-1
 332 889 l 1,3,-1
 144 889 l 1,0,-1
144 0 m 1,4,-1
 144 690 l 1,5,-1
 332 690 l 1,6,-1
 332 0 l 1,7,-1
 144 0 l 1,4,-1
EndSplineSet
EndChar

StartChar: section
Encoding: 167 167 104
Width: 974
Flags: W
LayerCount: 2
Fore
SplineSet
102 20 m 1,0,-1
 163 158 l 1,1,2
 192 132 192 132 229 112 c 128,-1,3
 266 92 266 92 305.5 78.5 c 128,-1,4
 345 65 345 65 383.5 57.5 c 128,-1,5
 422 50 422 50 454 50 c 0,6,7
 507 50 507 50 554 59 c 128,-1,8
 601 68 601 68 636.5 88.5 c 128,-1,9
 672 109 672 109 692.5 142 c 128,-1,10
 713 175 713 175 713 223 c 0,11,12
 713 262 713 262 700.5 290 c 128,-1,13
 688 318 688 318 665 339 c 128,-1,14
 642 360 642 360 608 375.5 c 128,-1,15
 574 391 574 391 532 405 c 2,16,-1
 372 459 l 2,17,18
 286 488 286 488 231.5 519 c 128,-1,19
 177 550 177 550 146 587.5 c 128,-1,20
 115 625 115 625 103.5 670 c 128,-1,21
 92 715 92 715 92 771 c 0,22,23
 92 801 92 801 103.5 836.5 c 128,-1,24
 115 872 115 872 144 904.5 c 128,-1,25
 173 937 173 937 222 961.5 c 128,-1,26
 271 986 271 986 347 995 c 1,27,28
 266 1026 266 1026 216.5 1058 c 128,-1,29
 167 1090 167 1090 139 1125.5 c 128,-1,30
 111 1161 111 1161 101.5 1200.5 c 128,-1,31
 92 1240 92 1240 92 1285 c 0,32,33
 92 1327 92 1327 110.5 1377 c 128,-1,34
 129 1427 129 1427 172.5 1469.5 c 128,-1,35
 216 1512 216 1512 288.5 1540.5 c 128,-1,36
 361 1569 361 1569 469 1569 c 0,37,38
 519 1569 519 1569 575 1557 c 128,-1,39
 631 1545 631 1545 681.5 1527 c 128,-1,40
 732 1509 732 1509 772.5 1488.5 c 128,-1,41
 813 1468 813 1468 831 1452 c 1,42,-1
 773 1316 l 1,43,44
 707 1367 707 1367 632 1395.5 c 128,-1,45
 557 1424 557 1424 479 1424 c 0,46,47
 248 1424 248 1424 248 1275 c 0,48,49
 248 1252 248 1252 254.5 1234 c 128,-1,50
 261 1216 261 1216 278.5 1200.5 c 128,-1,51
 296 1185 296 1185 326.5 1170.5 c 128,-1,52
 357 1156 357 1156 404 1139 c 2,53,-1
 559 1083 l 2,54,55
 668 1044 668 1044 731.5 1004 c 128,-1,56
 795 964 795 964 828 923 c 128,-1,57
 861 882 861 882 870.5 838 c 128,-1,58
 880 794 880 794 880 746 c 0,59,60
 880 702 880 702 862 663 c 128,-1,61
 844 624 844 624 811.5 594 c 128,-1,62
 779 564 779 564 733 545 c 128,-1,63
 687 526 687 526 631 522 c 1,64,65
 714 493 714 493 763.5 456.5 c 128,-1,66
 813 420 813 420 839.5 380 c 128,-1,67
 866 340 866 340 874 298.5 c 128,-1,68
 882 257 882 257 882 219 c 0,69,70
 882 127 882 127 843.5 66.5 c 128,-1,71
 805 6 805 6 745 -30 c 128,-1,72
 685 -66 685 -66 611 -81 c 128,-1,73
 537 -96 537 -96 466 -96 c 0,74,75
 420 -96 420 -96 366 -85 c 128,-1,76
 312 -74 312 -74 261 -57 c 128,-1,77
 210 -40 210 -40 167.5 -19.5 c 128,-1,78
 125 1 125 1 102 20 c 1,0,-1
481 600 m 0,79,80
 599 600 599 600 659.5 639 c 128,-1,81
 720 678 720 678 720 751 c 0,82,83
 720 806 720 806 695 837 c 128,-1,84
 670 868 670 868 633.5 883.5 c 128,-1,85
 597 899 597 899 555.5 902.5 c 128,-1,86
 514 906 514 906 481 906 c 0,87,88
 356 906 356 906 301 867 c 128,-1,89
 246 828 246 828 246 753 c 0,90,91
 246 600 246 600 481 600 c 0,79,80
EndSplineSet
EndChar

StartChar: dieresis
Encoding: 168 168 105
Width: 1140
Flags: W
LayerCount: 2
Fore
SplineSet
327 1588 m 0,0,1
 375 1588 375 1588 405 1554.5 c 128,-1,2
 435 1521 435 1521 435 1473 c 256,3,4
 435 1425 435 1425 405 1391.5 c 128,-1,5
 375 1358 375 1358 327 1358 c 0,6,7
 302 1358 302 1358 281.5 1367 c 128,-1,8
 261 1376 261 1376 246 1392 c 128,-1,9
 231 1408 231 1408 223 1429 c 128,-1,10
 215 1450 215 1450 215 1473 c 256,11,12
 215 1496 215 1496 223 1517 c 128,-1,13
 231 1538 231 1538 246 1553.5 c 128,-1,14
 261 1569 261 1569 281.5 1578.5 c 128,-1,15
 302 1588 302 1588 327 1588 c 0,0,1
817 1588 m 0,16,17
 865 1588 865 1588 895 1554.5 c 128,-1,18
 925 1521 925 1521 925 1473 c 256,19,20
 925 1425 925 1425 895 1391.5 c 128,-1,21
 865 1358 865 1358 817 1358 c 0,22,23
 792 1358 792 1358 771.5 1367 c 128,-1,24
 751 1376 751 1376 736 1392 c 128,-1,25
 721 1408 721 1408 713 1429 c 128,-1,26
 705 1450 705 1450 705 1473 c 256,27,28
 705 1496 705 1496 713 1517 c 128,-1,29
 721 1538 721 1538 736 1553.5 c 128,-1,30
 751 1569 751 1569 771.5 1578.5 c 128,-1,31
 792 1588 792 1588 817 1588 c 0,16,17
EndSplineSet
EndChar

StartChar: copyright
Encoding: 169 169 106
Width: 2316
Flags: W
LayerCount: 2
Fore
SplineSet
1195 336 m 0,0,1
 1039 336 1039 336 937.5 378 c 128,-1,2
 836 420 836 420 777.5 489 c 128,-1,3
 719 558 719 558 696 647 c 128,-1,4
 673 736 673 736 673 831 c 256,5,6
 673 926 673 926 696 1015 c 128,-1,7
 719 1104 719 1104 777.5 1173 c 128,-1,8
 836 1242 836 1242 937.5 1284 c 128,-1,9
 1039 1326 1039 1326 1195 1326 c 0,10,11
 1322 1326 1322 1326 1475 1248 c 1,12,-1
 1475 1122 l 1,13,14
 1324 1198 1324 1198 1181 1198 c 0,15,16
 1094 1198 1094 1198 1029 1181 c 128,-1,17
 964 1164 964 1164 921 1122 c 128,-1,18
 878 1080 878 1080 856.5 1009 c 128,-1,19
 835 938 835 938 835 831 c 256,20,21
 835 724 835 724 856.5 653 c 128,-1,22
 878 582 878 582 921 540 c 128,-1,23
 964 498 964 498 1029 481 c 128,-1,24
 1094 464 1094 464 1181 464 c 0,25,26
 1324 464 1324 464 1475 540 c 1,27,-1
 1475 414 l 1,28,29
 1322 336 1322 336 1195 336 c 0,0,1
283 830 m 256,30,31
 283 961 283 961 318 1075 c 128,-1,32
 353 1189 353 1189 415 1284 c 128,-1,33
 477 1379 477 1379 561 1454 c 128,-1,34
 645 1529 645 1529 742 1581 c 128,-1,35
 839 1633 839 1633 945 1660 c 128,-1,36
 1051 1687 1051 1687 1158 1687 c 256,37,38
 1265 1687 1265 1687 1371.5 1659.5 c 128,-1,39
 1478 1632 1478 1632 1575.5 1580 c 128,-1,40
 1673 1528 1673 1528 1756.5 1453 c 128,-1,41
 1840 1378 1840 1378 1901.5 1283 c 128,-1,42
 1963 1188 1963 1188 1998 1074 c 128,-1,43
 2033 960 2033 960 2033 830 c 1,44,45
 2032 702 2032 702 1999 589 c 128,-1,46
 1966 476 1966 476 1906.5 381.5 c 128,-1,47
 1847 287 1847 287 1765 211.5 c 128,-1,48
 1683 136 1683 136 1586 84 c 128,-1,49
 1489 32 1489 32 1380 4.5 c 128,-1,50
 1271 -23 1271 -23 1158 -23 c 0,51,52
 1047 -23 1047 -23 939 4 c 128,-1,53
 831 31 831 31 733.5 82 c 128,-1,54
 636 133 636 133 553.5 207.5 c 128,-1,55
 471 282 471 282 411 377 c 128,-1,56
 351 472 351 472 317 585.5 c 128,-1,57
 283 699 283 699 283 830 c 256,30,31
431 829 m 0,58,59
 431 677 431 677 483.5 544.5 c 128,-1,60
 536 412 536 412 631.5 313.5 c 128,-1,61
 727 215 727 215 861 158 c 128,-1,62
 995 101 995 101 1158 101 c 256,63,64
 1321 101 1321 101 1455 158 c 128,-1,65
 1589 215 1589 215 1684.5 313.5 c 128,-1,66
 1780 412 1780 412 1832.5 544.5 c 128,-1,67
 1885 677 1885 677 1885 829 c 0,68,69
 1885 942 1885 942 1855 1040.5 c 128,-1,70
 1825 1139 1825 1139 1773.5 1220.5 c 128,-1,71
 1722 1302 1722 1302 1651.5 1365.5 c 128,-1,72
 1581 1429 1581 1429 1500.5 1472.5 c 128,-1,73
 1420 1516 1420 1516 1332.5 1539 c 128,-1,74
 1245 1562 1245 1562 1158 1562 c 0,75,76
 1070 1562 1070 1562 982 1539 c 128,-1,77
 894 1516 894 1516 813 1472 c 128,-1,78
 732 1428 732 1428 662.5 1364.5 c 128,-1,79
 593 1301 593 1301 541.5 1219.5 c 128,-1,80
 490 1138 490 1138 460.5 1040 c 128,-1,81
 431 942 431 942 431 829 c 0,58,59
EndSplineSet
EndChar

StartChar: ordfeminine
Encoding: 170 170 107
Width: 965
Flags: W
LayerCount: 2
Fore
SplineSet
179 575 m 1,0,-1
 863 575 l 1,1,-1
 863 446 l 1,2,-1
 179 446 l 1,3,-1
 179 575 l 1,0,-1
470 781 m 0,4,5
 526 781 526 781 571 800 c 128,-1,6
 616 819 616 819 647 842 c 128,-1,7
 678 865 678 865 693.5 884 c 128,-1,8
 709 903 709 903 708 903 c 1,9,-1
 708 1141 l 1,10,11
 657 1149 657 1149 613 1153.5 c 128,-1,12
 569 1158 569 1158 532 1158 c 0,13,14
 276 1158 276 1158 276 971 c 0,15,16
 276 918 276 918 286 882 c 128,-1,17
 296 846 296 846 318.5 823.5 c 128,-1,18
 341 801 341 801 378 791 c 128,-1,19
 415 781 415 781 470 781 c 0,4,5
115 960 m 0,20,21
 115 1032 115 1032 141 1087.5 c 128,-1,22
 167 1143 167 1143 214.5 1181 c 128,-1,23
 262 1219 262 1219 328 1238.5 c 128,-1,24
 394 1258 394 1258 474 1258 c 0,25,26
 518 1258 518 1258 560 1252.5 c 128,-1,27
 602 1247 602 1247 635 1240.5 c 128,-1,28
 668 1234 668 1234 688 1227.5 c 128,-1,29
 708 1221 708 1221 708 1218 c 2,30,-1
 708 1276 l 2,31,32
 708 1334 708 1334 701.5 1378.5 c 128,-1,33
 695 1423 695 1423 674.5 1453 c 128,-1,34
 654 1483 654 1483 616.5 1498 c 128,-1,35
 579 1513 579 1513 516 1513 c 0,36,37
 456 1513 456 1513 402.5 1501.5 c 128,-1,38
 349 1490 349 1490 309 1476.5 c 128,-1,39
 269 1463 269 1463 246.5 1452.5 c 128,-1,40
 224 1442 224 1442 225 1443 c 1,41,-1
 172 1552 l 2,42,43
 173 1552 173 1552 199 1565 c 128,-1,44
 225 1578 225 1578 270 1594.5 c 128,-1,45
 315 1611 315 1611 376 1624.5 c 128,-1,46
 437 1638 437 1638 508 1638 c 0,47,48
 610 1638 610 1638 679 1616 c 128,-1,49
 748 1594 748 1594 790.5 1545.5 c 128,-1,50
 833 1497 833 1497 851 1420.5 c 128,-1,51
 869 1344 869 1344 869 1235 c 2,52,-1
 869 686 l 1,53,-1
 753 686 l 1,54,-1
 726 828 l 2,55,56
 725 828 725 828 710 803 c 128,-1,57
 695 778 695 778 661 748 c 128,-1,58
 627 718 627 718 571 693 c 128,-1,59
 515 668 515 668 432 668 c 0,60,61
 358 668 358 668 299.5 687.5 c 128,-1,62
 241 707 241 707 200 744 c 128,-1,63
 159 781 159 781 137 835.5 c 128,-1,64
 115 890 115 890 115 960 c 0,20,21
EndSplineSet
EndChar

StartChar: guillemotleft
Encoding: 171 171 108
Width: 1453
Flags: W
LayerCount: 2
Fore
SplineSet
1310 842 m 1,0,-1
 873 577 l 1,1,-1
 1310 306 l 1,2,-1
 1310 99 l 1,3,-1
 702 481 l 1,4,-1
 702 666 l 1,5,-1
 1310 1049 l 1,6,-1
 1310 842 l 1,0,-1
702 842 m 1,7,-1
 266 577 l 1,8,-1
 702 306 l 1,9,-1
 702 99 l 1,10,-1
 94 481 l 1,11,-1
 94 666 l 1,12,-1
 702 1049 l 1,13,-1
 702 842 l 1,7,-1
EndSplineSet
EndChar

StartChar: logicalnot
Encoding: 172 172 109
Width: 1788
Flags: W
LayerCount: 2
Fore
SplineSet
1395 338 m 1,0,-1
 1395 1023 l 1,1,-1
 217 1023 l 1,2,-1
 217 1174 l 1,3,-1
 1571 1174 l 1,4,-1
 1571 338 l 1,5,-1
 1395 338 l 1,0,-1
EndSplineSet
EndChar

StartChar: uni00AD
Encoding: 173 173 110
Width: 755
Flags: W
LayerCount: 2
Fore
SplineSet
612 508 m 1,0,-1
 144 508 l 1,1,-1
 144 639 l 1,2,-1
 612 639 l 1,3,-1
 612 508 l 1,0,-1
EndSplineSet
EndChar

StartChar: registered
Encoding: 174 174 111
Width: 2090
Flags: W
LayerCount: 2
Fore
SplineSet
1015 997 m 2,0,1
 1109 997 1109 997 1157.5 1027 c 128,-1,2
 1206 1057 1206 1057 1206 1134 c 0,3,4
 1206 1156 1206 1156 1196 1173 c 128,-1,5
 1186 1190 1186 1190 1158.5 1201 c 128,-1,6
 1131 1212 1131 1212 1081.5 1218 c 128,-1,7
 1032 1224 1032 1224 953 1224 c 1,8,-1
 953 997 l 1,9,-1
 1015 997 l 2,0,1
1341 1140 m 0,10,11
 1341 1093 1341 1093 1331 1058 c 128,-1,12
 1321 1023 1321 1023 1296.5 996 c 128,-1,13
 1272 969 1272 969 1230.5 949.5 c 128,-1,14
 1189 930 1189 930 1126 914 c 1,15,-1
 1359 591 l 1,16,-1
 1230 524 l 1,17,18
 1167 626 1167 626 1118 707 c 0,19,20
 1097 741 1097 741 1076.5 774 c 128,-1,21
 1056 807 1056 807 1040 833 c 128,-1,22
 1024 859 1024 859 1014 875 c 128,-1,23
 1004 891 1004 891 1004 891 c 1,24,-1
 948 891 l 1,25,-1
 948 553 l 1,26,-1
 811 553 l 1,27,-1
 811 1330 l 1,28,-1
 966 1330 l 2,29,30
 1027 1330 1027 1330 1075 1326.5 c 128,-1,31
 1123 1323 1123 1323 1161 1313.5 c 128,-1,32
 1199 1304 1199 1304 1230 1288 c 128,-1,33
 1261 1272 1261 1272 1287 1247 c 1,34,35
 1341 1199 1341 1199 1341 1140 c 0,10,11
1044 211 m 0,36,37
 881 211 881 211 741.5 268.5 c 128,-1,38
 602 326 602 326 500 425.5 c 128,-1,39
 398 525 398 525 340.5 658 c 128,-1,40
 283 791 283 791 283 942 c 0,41,42
 283 1042 283 1042 309.5 1135 c 128,-1,43
 336 1228 336 1228 384.5 1309 c 128,-1,44
 433 1390 433 1390 501.5 1457.5 c 128,-1,45
 570 1525 570 1525 654.5 1573 c 128,-1,46
 739 1621 739 1621 837.5 1647.5 c 128,-1,47
 936 1674 936 1674 1044 1674 c 0,48,49
 1151 1674 1151 1674 1249 1648 c 128,-1,50
 1347 1622 1347 1622 1431.5 1575 c 128,-1,51
 1516 1528 1516 1528 1585.5 1461.5 c 128,-1,52
 1655 1395 1655 1395 1704 1313.5 c 128,-1,53
 1753 1232 1753 1232 1780 1138 c 128,-1,54
 1807 1044 1807 1044 1807 942 c 256,55,56
 1807 840 1807 840 1780.5 746.5 c 128,-1,57
 1754 653 1754 653 1704.5 571.5 c 128,-1,58
 1655 490 1655 490 1586 423.5 c 128,-1,59
 1517 357 1517 357 1432.5 310 c 128,-1,60
 1348 263 1348 263 1249.5 237 c 128,-1,61
 1151 211 1151 211 1044 211 c 0,36,37
1043 338 m 0,62,63
 1178 338 1178 338 1292.5 385 c 128,-1,64
 1407 432 1407 432 1490 514 c 128,-1,65
 1573 596 1573 596 1620 705 c 128,-1,66
 1667 814 1667 814 1667 939 c 0,67,68
 1667 1067 1667 1067 1619 1177.5 c 128,-1,69
 1571 1288 1571 1288 1487 1369 c 128,-1,70
 1403 1450 1403 1450 1289 1496 c 128,-1,71
 1175 1542 1175 1542 1043 1542 c 0,72,73
 910 1542 910 1542 796.5 1495.5 c 128,-1,74
 683 1449 683 1449 600 1368 c 128,-1,75
 517 1287 517 1287 470 1176.5 c 128,-1,76
 423 1066 423 1066 423 938 c 0,77,78
 423 811 423 811 469.5 701.5 c 128,-1,79
 516 592 516 592 599 511 c 128,-1,80
 682 430 682 430 795.5 384 c 128,-1,81
 909 338 909 338 1043 338 c 0,62,63
EndSplineSet
EndChar

StartChar: macron
Encoding: 175 175 112
Width: 1024
Flags: W
LayerCount: 2
Fore
SplineSet
895 98 m 1,0,-1
 213 98 l 1,1,-1
 213 215 l 1,2,-1
 895 215 l 1,3,-1
 895 98 l 1,0,-1
EndSplineSet
EndChar

StartChar: degree
Encoding: 176 176 113
Width: 870
Flags: W
LayerCount: 2
Fore
SplineSet
437 1048 m 0,0,1
 405 1048 405 1048 378.5 1036 c 128,-1,2
 352 1024 352 1024 333 1004 c 128,-1,3
 314 984 314 984 303 956.5 c 128,-1,4
 292 929 292 929 292 899 c 0,5,6
 292 868 292 868 303.5 841 c 128,-1,7
 315 814 315 814 334.5 793.5 c 128,-1,8
 354 773 354 773 380.5 761.5 c 128,-1,9
 407 750 407 750 437 750 c 0,10,11
 468 750 468 750 494 761.5 c 128,-1,12
 520 773 520 773 539 793.5 c 128,-1,13
 558 814 558 814 568 841 c 128,-1,14
 578 868 578 868 578 899 c 256,15,16
 578 930 578 930 568 957.5 c 128,-1,17
 558 985 558 985 539 1005 c 128,-1,18
 520 1025 520 1025 494 1036.5 c 128,-1,19
 468 1048 468 1048 437 1048 c 0,0,1
439 1139 m 0,20,21
 491 1139 491 1139 534.5 1121 c 128,-1,22
 578 1103 578 1103 609 1070.5 c 128,-1,23
 640 1038 640 1038 657.5 994 c 128,-1,24
 675 950 675 950 675 899 c 256,25,26
 675 848 675 848 658 804 c 128,-1,27
 641 760 641 760 610 728 c 128,-1,28
 579 696 579 696 535.5 678 c 128,-1,29
 492 660 492 660 439 660 c 0,30,31
 385 660 385 660 340 678.5 c 128,-1,32
 295 697 295 697 262.5 729 c 128,-1,33
 230 761 230 761 212.5 804.5 c 128,-1,34
 195 848 195 848 195 899 c 0,35,36
 195 951 195 951 213 995 c 128,-1,37
 231 1039 231 1039 263.5 1071 c 128,-1,38
 296 1103 296 1103 341 1121 c 128,-1,39
 386 1139 386 1139 439 1139 c 0,20,21
EndSplineSet
EndChar

StartChar: plusminus
Encoding: 177 177 114
Width: 936
Flags: W
LayerCount: 2
Fore
SplineSet
852 518 m 1,0,-1
 538 518 l 1,1,-1
 538 174 l 1,2,-1
 397 174 l 1,3,-1
 397 518 l 1,4,-1
 84 518 l 1,5,-1
 84 651 l 1,6,-1
 397 651 l 1,7,-1
 397 995 l 1,8,-1
 538 995 l 1,9,-1
 538 651 l 1,10,-1
 852 651 l 1,11,-1
 852 518 l 1,0,-1
819 -55 m 1,12,-1
 118 -55 l 1,13,-1
 118 88 l 1,14,-1
 819 88 l 1,15,-1
 819 -55 l 1,12,-1
EndSplineSet
EndChar

StartChar: uni00B2
Encoding: 178 178 115
Width: 927
Flags: W
LayerCount: 2
Fore
SplineSet
368 820 m 1,0,-1
 774 820 l 1,1,-1
 774 668 l 1,2,-1
 136 668 l 1,3,-1
 136 805 l 1,4,-1
 407 1045 l 2,5,6
 475 1105 475 1105 518.5 1148 c 128,-1,7
 562 1191 562 1191 586.5 1225 c 128,-1,8
 611 1259 611 1259 620.5 1289 c 128,-1,9
 630 1319 630 1319 630 1354 c 0,10,11
 630 1424 630 1424 578 1459.5 c 128,-1,12
 526 1495 526 1495 441 1495 c 0,13,14
 402 1495 402 1495 352.5 1486.5 c 128,-1,15
 303 1478 303 1478 258.5 1468.5 c 128,-1,16
 214 1459 214 1459 183.5 1451 c 128,-1,17
 153 1443 153 1443 153 1443 c 1,18,-1
 153 1588 l 1,19,20
 153 1588 153 1588 175.5 1596 c 128,-1,21
 198 1604 198 1604 238.5 1613 c 128,-1,22
 279 1622 279 1622 335 1630 c 128,-1,23
 391 1638 391 1638 459 1638 c 0,24,25
 559 1638 559 1638 625 1610 c 128,-1,26
 691 1582 691 1582 730.5 1540 c 128,-1,27
 770 1498 770 1498 786 1448.5 c 128,-1,28
 802 1399 802 1399 802 1357 c 0,29,30
 802 1309 802 1309 790 1266.5 c 128,-1,31
 778 1224 778 1224 750 1180.5 c 128,-1,32
 722 1137 722 1137 675.5 1089 c 128,-1,33
 629 1041 629 1041 559 982 c 2,34,-1
 368 820 l 1,0,-1
EndSplineSet
EndChar

StartChar: uni00B3
Encoding: 179 179 116
Width: 959
Flags: W
LayerCount: 2
Fore
SplineSet
655 1383 m 1,0,1
 655 1458 655 1458 600.5 1499.5 c 128,-1,2
 546 1541 546 1541 431 1541 c 0,3,4
 402 1541 402 1541 371.5 1536.5 c 128,-1,5
 341 1532 341 1532 313.5 1525.5 c 128,-1,6
 286 1519 286 1519 262.5 1511.5 c 128,-1,7
 239 1504 239 1504 226 1498 c 2,8,-1
 197 1484 l 1,9,-1
 150 1611 l 1,10,11
 152 1612 152 1612 175.5 1622.5 c 128,-1,12
 199 1633 199 1633 238 1645 c 128,-1,13
 277 1657 277 1657 328 1667 c 128,-1,14
 379 1677 379 1677 436 1677 c 0,15,16
 473 1677 473 1677 515 1671.5 c 128,-1,17
 557 1666 557 1666 598.5 1653.5 c 128,-1,18
 640 1641 640 1641 678 1620 c 128,-1,19
 716 1599 716 1599 745 1567.5 c 128,-1,20
 774 1536 774 1536 791.5 1493 c 128,-1,21
 809 1450 809 1450 809 1394 c 0,22,23
 808 1324 808 1324 780 1276 c 128,-1,24
 752 1228 752 1228 713.5 1198 c 128,-1,25
 675 1168 675 1168 633.5 1155 c 128,-1,26
 592 1142 592 1142 564 1142 c 1,27,28
 589 1137 589 1137 619 1127.5 c 128,-1,29
 649 1118 649 1118 679.5 1102.5 c 128,-1,30
 710 1087 710 1087 738.5 1063.5 c 128,-1,31
 767 1040 767 1040 789.5 1007.5 c 128,-1,32
 812 975 812 975 825.5 932.5 c 128,-1,33
 839 890 839 890 840 835 c 1,34,35
 840 758 840 758 805 702 c 128,-1,36
 770 646 770 646 714 610 c 128,-1,37
 658 574 658 574 588.5 557 c 128,-1,38
 519 540 519 540 451 540 c 0,39,40
 284 540 284 540 137 610 c 0,41,42
 123 616 123 616 123 618 c 2,43,-1
 174 745 l 1,44,45
 174 745 174 745 196.5 734 c 128,-1,46
 219 723 219 723 257 709 c 128,-1,47
 295 695 295 695 346 683.5 c 128,-1,48
 397 672 397 672 454 672 c 1,49,50
 502 673 502 673 542.5 686 c 128,-1,51
 583 699 583 699 612.5 722.5 c 128,-1,52
 642 746 642 746 658 779 c 128,-1,53
 674 812 674 812 674 853 c 0,54,55
 674 945 674 945 609.5 1001 c 128,-1,56
 545 1057 545 1057 412 1072 c 1,57,-1
 412 1207 l 1,58,59
 458 1207 458 1207 501.5 1217.5 c 128,-1,60
 545 1228 545 1228 578.5 1249.5 c 128,-1,61
 612 1271 612 1271 633 1304.5 c 128,-1,62
 654 1338 654 1338 655 1383 c 1,0,1
EndSplineSet
EndChar

StartChar: acute
Encoding: 180 180 117
Width: 936
Flags: W
LayerCount: 2
Fore
SplineSet
428 1472 m 1,0,-1
 371 1498 l 1,1,-1
 530 2109 l 1,2,-1
 762 2018 l 1,3,-1
 428 1472 l 1,0,-1
EndSplineSet
EndChar

StartChar: paragraph
Encoding: 182 182 118
Width: 1360
Flags: W
LayerCount: 2
Fore
SplineSet
1138 1578 m 1,0,-1
 1138 0 l 1,1,-1
 972 0 l 1,2,-1
 972 1428 l 1,3,-1
 817 1428 l 1,4,-1
 817 0 l 1,5,-1
 653 0 l 1,6,-1
 653 905 l 1,7,8
 559 905 559 905 470 921 c 128,-1,9
 381 937 381 937 311.5 976.5 c 128,-1,10
 242 1016 242 1016 200 1082.5 c 128,-1,11
 158 1149 158 1149 158 1250 c 0,12,13
 158 1321 158 1321 178.5 1373 c 128,-1,14
 199 1425 199 1425 235.5 1461 c 128,-1,15
 272 1497 272 1497 322 1519.5 c 128,-1,16
 372 1542 372 1542 431.5 1555 c 128,-1,17
 491 1568 491 1568 557 1572.5 c 128,-1,18
 623 1577 623 1577 692 1578 c 1,19,-1
 1138 1578 l 1,0,-1
EndSplineSet
EndChar

StartChar: periodcentered
Encoding: 183 183 119
Width: 459
Flags: W
LayerCount: 2
Fore
SplineSet
231 765 m 0,0,1
 279 765 279 765 309 731.5 c 128,-1,2
 339 698 339 698 339 650 c 256,3,4
 339 602 339 602 309 568.5 c 128,-1,5
 279 535 279 535 231 535 c 0,6,7
 206 535 206 535 185.5 544 c 128,-1,8
 165 553 165 553 150 569 c 128,-1,9
 135 585 135 585 127 606 c 128,-1,10
 119 627 119 627 119 650 c 256,11,12
 119 673 119 673 127 694 c 128,-1,13
 135 715 135 715 150 730.5 c 128,-1,14
 165 746 165 746 185.5 755.5 c 128,-1,15
 206 765 206 765 231 765 c 0,0,1
EndSplineSet
EndChar

StartChar: cedilla
Encoding: 184 184 120
Width: 651
Flags: W
LayerCount: 2
Fore
SplineSet
124 -540 m 1,0,-1
 124 -423 l 1,1,2
 122 -423 122 -423 142.5 -429.5 c 128,-1,3
 163 -436 163 -436 191.5 -443.5 c 128,-1,4
 220 -451 220 -451 248 -457.5 c 128,-1,5
 276 -464 276 -464 288 -464 c 0,6,7
 322 -464 322 -464 347.5 -460 c 128,-1,8
 373 -456 373 -456 390 -442 c 128,-1,9
 407 -428 407 -428 416 -401 c 128,-1,10
 425 -374 425 -374 427 -328 c 1,11,12
 427 -289 427 -289 412.5 -261.5 c 128,-1,13
 398 -234 398 -234 367.5 -217.5 c 128,-1,14
 337 -201 337 -201 289 -193.5 c 128,-1,15
 241 -186 241 -186 174 -186 c 1,16,-1
 174 76 l 1,17,-1
 295 76 l 1,18,-1
 295 -98 l 1,19,20
 356 -98 356 -98 405 -110.5 c 128,-1,21
 454 -123 454 -123 488.5 -151.5 c 128,-1,22
 523 -180 523 -180 541.5 -226.5 c 128,-1,23
 560 -273 560 -273 560 -342 c 0,24,25
 560 -578 560 -578 308 -578 c 0,26,27
 281 -578 281 -578 253 -573.5 c 128,-1,28
 225 -569 225 -569 201 -563 c 128,-1,29
 177 -557 177 -557 158 -551 c 128,-1,30
 139 -545 139 -545 130 -542 c 2,31,-1
 124 -540 l 1,0,-1
EndSplineSet
EndChar

StartChar: uni00B9
Encoding: 185 185 121
Width: 581
Flags: W
LayerCount: 2
Fore
SplineSet
270 478 m 1,0,-1
 270 1304 l 1,1,-1
 99 1232 l 1,2,-1
 62 1345 l 1,3,-1
 299 1440 l 1,4,-1
 439 1414 l 1,5,-1
 439 478 l 1,6,-1
 270 478 l 1,0,-1
EndSplineSet
EndChar

StartChar: ordmasculine
Encoding: 186 186 122
Width: 1077
Flags: W
LayerCount: 2
Fore
SplineSet
200 575 m 1,0,-1
 884 575 l 1,1,-1
 884 446 l 1,2,-1
 200 446 l 1,3,-1
 200 575 l 1,0,-1
271 1154 m 256,4,5
 271 1077 271 1077 286 1011.5 c 128,-1,6
 301 946 301 946 333 898.5 c 128,-1,7
 365 851 365 851 415.5 824 c 128,-1,8
 466 797 466 797 538 797 c 256,9,10
 610 797 610 797 660.5 823.5 c 128,-1,11
 711 850 711 850 743 897.5 c 128,-1,12
 775 945 775 945 790 1010.5 c 128,-1,13
 805 1076 805 1076 805 1154 c 0,14,15
 805 1230 805 1230 790 1295.5 c 128,-1,16
 775 1361 775 1361 743 1409 c 128,-1,17
 711 1457 711 1457 660.5 1484.5 c 128,-1,18
 610 1512 610 1512 538 1512 c 256,19,20
 466 1512 466 1512 415.5 1485 c 128,-1,21
 365 1458 365 1458 333 1410 c 128,-1,22
 301 1362 301 1362 286 1296.5 c 128,-1,23
 271 1231 271 1231 271 1154 c 256,4,5
114 1152 m 0,24,25
 114 1251 114 1251 139.5 1339 c 128,-1,26
 165 1427 165 1427 217.5 1493.5 c 128,-1,27
 270 1560 270 1560 349.5 1599 c 128,-1,28
 429 1638 429 1638 538 1638 c 256,29,30
 647 1638 647 1638 727 1599 c 128,-1,31
 807 1560 807 1560 859.5 1493.5 c 128,-1,32
 912 1427 912 1427 937.5 1339 c 128,-1,33
 963 1251 963 1251 963 1152 c 0,34,35
 963 1052 963 1052 937.5 964.5 c 128,-1,36
 912 877 912 877 859.5 811.5 c 128,-1,37
 807 746 807 746 727 708 c 128,-1,38
 647 670 647 670 538 670 c 0,39,40
 430 670 430 670 350.5 707.5 c 128,-1,41
 271 745 271 745 218.5 810 c 128,-1,42
 166 875 166 875 140 963 c 128,-1,43
 114 1051 114 1051 114 1152 c 0,24,25
EndSplineSet
EndChar

StartChar: guillemotright
Encoding: 187 187 123
Width: 1454
Flags: W
LayerCount: 2
Fore
SplineSet
144 1049 m 1,0,-1
 753 666 l 1,1,-1
 753 481 l 1,2,-1
 144 99 l 1,3,-1
 144 306 l 1,4,-1
 591 577 l 1,5,-1
 144 842 l 1,6,-1
 144 1049 l 1,0,-1
751 1049 m 1,7,-1
 1360 666 l 1,8,-1
 1360 481 l 1,9,-1
 751 99 l 1,10,-1
 751 306 l 1,11,-1
 1198 577 l 1,12,-1
 751 842 l 1,13,-1
 751 1049 l 1,7,-1
EndSplineSet
EndChar

StartChar: onequarter
Encoding: 188 188 124
Width: 1721
Flags: W
LayerCount: 2
Fore
SplineSet
1376 946 m 1,0,-1
 1504 915 l 1,1,-1
 1504 145 l 1,2,-1
 1655 145 l 1,3,-1
 1655 34 l 1,4,-1
 1504 34 l 1,5,-1
 1504 -227 l 1,6,-1
 1359 -250 l 1,7,-1
 1359 34 l 1,8,-1
 834 34 l 1,9,-1
 812 144 l 1,10,-1
 1376 946 l 1,0,-1
971 144 m 1,11,-1
 1359 144 l 1,12,-1
 1359 703 l 1,13,-1
 1237 514 l 1,14,-1
 971 144 l 1,11,-1
345 568 m 1,15,-1
 345 1413 l 1,16,-1
 175 1341 l 1,17,-1
 137 1434 l 1,18,-1
 375 1529 l 1,19,-1
 505 1503 l 1,20,-1
 505 568 l 1,21,-1
 345 568 l 1,15,-1
207 -30 m 1,22,-1
 1246 1365 l 1,23,-1
 1368 1272 l 1,24,-1
 327 -123 l 1,25,-1
 207 -30 l 1,22,-1
EndSplineSet
EndChar

StartChar: onehalf
Encoding: 189 189 125
Width: 1943
Flags: W
LayerCount: 2
Fore
SplineSet
345 568 m 1,0,-1
 345 1413 l 1,1,-1
 175 1341 l 1,2,-1
 137 1434 l 1,3,-1
 375 1529 l 1,4,-1
 505 1503 l 1,5,-1
 505 568 l 1,6,-1
 345 568 l 1,0,-1
207 -30 m 1,7,-1
 1246 1365 l 1,8,-1
 1368 1272 l 1,9,-1
 327 -123 l 1,10,-1
 207 -30 l 1,7,-1
1379 -20 m 1,11,-1
 1785 -20 l 1,12,-1
 1785 -172 l 1,13,-1
 1147 -172 l 1,14,-1
 1147 -35 l 1,15,-1
 1418 205 l 2,16,17
 1486 265 1486 265 1529.5 308 c 128,-1,18
 1573 351 1573 351 1597.5 385 c 128,-1,19
 1622 419 1622 419 1631.5 449 c 128,-1,20
 1641 479 1641 479 1641 514 c 0,21,22
 1641 584 1641 584 1589 619.5 c 128,-1,23
 1537 655 1537 655 1452 655 c 0,24,25
 1413 655 1413 655 1363.5 646.5 c 128,-1,26
 1314 638 1314 638 1269.5 628.5 c 128,-1,27
 1225 619 1225 619 1194.5 611 c 128,-1,28
 1164 603 1164 603 1164 603 c 1,29,-1
 1164 748 l 1,30,31
 1164 748 1164 748 1186.5 756 c 128,-1,32
 1209 764 1209 764 1249.5 773 c 128,-1,33
 1290 782 1290 782 1346 790 c 128,-1,34
 1402 798 1402 798 1470 798 c 0,35,36
 1570 798 1570 798 1636 770 c 128,-1,37
 1702 742 1702 742 1741.5 700 c 128,-1,38
 1781 658 1781 658 1797 608.5 c 128,-1,39
 1813 559 1813 559 1813 517 c 0,40,41
 1813 469 1813 469 1801 426.5 c 128,-1,42
 1789 384 1789 384 1761 340.5 c 128,-1,43
 1733 297 1733 297 1686.5 249 c 128,-1,44
 1640 201 1640 201 1570 142 c 2,45,-1
 1379 -20 l 1,11,-1
EndSplineSet
EndChar

StartChar: threequarters
Encoding: 190 190 126
Width: 1960
Flags: W
LayerCount: 2
Fore
SplineSet
1615 946 m 1,0,-1
 1743 915 l 1,1,-1
 1743 145 l 1,2,-1
 1894 145 l 1,3,-1
 1894 34 l 1,4,-1
 1743 34 l 1,5,-1
 1743 -227 l 1,6,-1
 1598 -250 l 1,7,-1
 1598 34 l 1,8,-1
 1073 34 l 1,9,-1
 1051 144 l 1,10,-1
 1615 946 l 1,0,-1
1210 144 m 1,11,-1
 1598 144 l 1,12,-1
 1598 703 l 1,13,-1
 1476 514 l 1,14,-1
 1210 144 l 1,11,-1
446 -30 m 1,15,-1
 1476 1365 l 1,16,-1
 1607 1272 l 1,17,-1
 566 -123 l 1,18,-1
 446 -30 l 1,15,-1
630 1383 m 1,19,20
 630 1458 630 1458 575.5 1499.5 c 128,-1,21
 521 1541 521 1541 406 1541 c 0,22,23
 377 1541 377 1541 346.5 1536.5 c 128,-1,24
 316 1532 316 1532 288.5 1525.5 c 128,-1,25
 261 1519 261 1519 237.5 1511.5 c 128,-1,26
 214 1504 214 1504 201 1498 c 2,27,-1
 172 1484 l 1,28,-1
 125 1611 l 1,29,30
 127 1612 127 1612 150.5 1622.5 c 128,-1,31
 174 1633 174 1633 213 1645 c 128,-1,32
 252 1657 252 1657 303 1667 c 128,-1,33
 354 1677 354 1677 411 1677 c 0,34,35
 448 1677 448 1677 490 1671.5 c 128,-1,36
 532 1666 532 1666 573.5 1653.5 c 128,-1,37
 615 1641 615 1641 653 1620 c 128,-1,38
 691 1599 691 1599 720 1567.5 c 128,-1,39
 749 1536 749 1536 766.5 1493 c 128,-1,40
 784 1450 784 1450 784 1394 c 0,41,42
 783 1324 783 1324 755 1276 c 128,-1,43
 727 1228 727 1228 688.5 1198 c 128,-1,44
 650 1168 650 1168 608.5 1155 c 128,-1,45
 567 1142 567 1142 539 1142 c 1,46,47
 564 1137 564 1137 594 1127.5 c 128,-1,48
 624 1118 624 1118 654.5 1102.5 c 128,-1,49
 685 1087 685 1087 713.5 1063.5 c 128,-1,50
 742 1040 742 1040 764.5 1007.5 c 128,-1,51
 787 975 787 975 800.5 932.5 c 128,-1,52
 814 890 814 890 815 835 c 1,53,54
 815 758 815 758 780 702 c 128,-1,55
 745 646 745 646 689 610 c 128,-1,56
 633 574 633 574 563.5 557 c 128,-1,57
 494 540 494 540 426 540 c 1,58,59
 372 539 372 539 323 547 c 128,-1,60
 274 555 274 555 232.5 566 c 128,-1,61
 191 577 191 577 160.5 589.5 c 128,-1,62
 130 602 130 602 114 610 c 2,63,-1
 98 618 l 1,64,-1
 149 745 l 1,65,66
 149 745 149 745 171.5 734 c 128,-1,67
 194 723 194 723 232 709 c 128,-1,68
 270 695 270 695 321 683.5 c 128,-1,69
 372 672 372 672 429 672 c 1,70,71
 477 673 477 673 517.5 686 c 128,-1,72
 558 699 558 699 587.5 722.5 c 128,-1,73
 617 746 617 746 633 779 c 128,-1,74
 649 812 649 812 649 853 c 0,75,76
 649 945 649 945 584.5 1001 c 128,-1,77
 520 1057 520 1057 387 1072 c 1,78,-1
 387 1207 l 1,79,80
 433 1207 433 1207 476.5 1217.5 c 128,-1,81
 520 1228 520 1228 553.5 1249.5 c 128,-1,82
 587 1271 587 1271 608 1304.5 c 128,-1,83
 629 1338 629 1338 630 1383 c 1,19,20
EndSplineSet
EndChar

StartChar: questiondown
Encoding: 191 191 127
Width: 1087
Flags: W
LayerCount: 2
Fore
SplineSet
677 790 m 1,0,-1
 677 1173 l 1,1,-1
 857 1173 l 1,2,-1
 857 688 l 1,3,4
 725 642 725 642 628 599 c 128,-1,5
 531 556 531 556 466.5 507.5 c 128,-1,6
 402 459 402 459 369 401 c 128,-1,7
 336 343 336 343 334 268 c 1,8,9
 334 206 334 206 352 164 c 128,-1,10
 370 122 370 122 407.5 96 c 128,-1,11
 445 70 445 70 504 58.5 c 128,-1,12
 563 47 563 47 645 47 c 0,13,14
 716 47 716 47 776.5 59.5 c 128,-1,15
 837 72 837 72 880.5 88 c 128,-1,16
 924 104 924 104 948.5 117.5 c 128,-1,17
 973 131 973 131 973 133 c 2,18,-1
 1032 -10 l 2,19,20
 1032 -9 1032 -9 1001.5 -25.5 c 128,-1,21
 971 -42 971 -42 917 -61.5 c 128,-1,22
 863 -81 863 -81 788.5 -97.5 c 128,-1,23
 714 -114 714 -114 626 -114 c 0,24,25
 523 -114 523 -114 435 -94.5 c 128,-1,26
 347 -75 347 -75 282 -31.5 c 128,-1,27
 217 12 217 12 180 81 c 128,-1,28
 143 150 143 150 143 249 c 0,29,30
 143 337 143 337 168.5 406 c 128,-1,31
 194 475 194 475 236.5 529.5 c 128,-1,32
 279 584 279 584 334.5 624.5 c 128,-1,33
 390 665 390 665 449.5 696 c 128,-1,34
 509 727 509 727 568 749.5 c 128,-1,35
 627 772 627 772 677 790 c 1,0,-1
776 1505 m 0,36,37
 798 1505 798 1505 817 1496.5 c 128,-1,38
 836 1488 836 1488 850 1473 c 128,-1,39
 864 1458 864 1458 872 1438 c 128,-1,40
 880 1418 880 1418 880 1395 c 0,41,42
 880 1373 880 1373 870.5 1355 c 128,-1,43
 861 1337 861 1337 846 1324 c 128,-1,44
 831 1311 831 1311 811.5 1303.5 c 128,-1,45
 792 1296 792 1296 772 1296 c 0,46,47
 751 1296 751 1296 733 1304.5 c 128,-1,48
 715 1313 715 1313 701 1327.5 c 128,-1,49
 687 1342 687 1342 679 1361 c 128,-1,50
 671 1380 671 1380 671 1401 c 0,51,52
 671 1423 671 1423 679.5 1442 c 128,-1,53
 688 1461 688 1461 702 1475 c 128,-1,54
 716 1489 716 1489 735.5 1497 c 128,-1,55
 755 1505 755 1505 776 1505 c 0,36,37
EndSplineSet
EndChar

StartChar: AE
Encoding: 198 198 134
Width: 1931
Flags: W
LayerCount: 2
Fore
SplineSet
1800 0 m 1,0,-1
 961 0 l 1,1,-1
 961 371 l 1,2,-1
 409 371 l 1,3,-1
 217 0 l 1,4,-1
 8 0 l 1,5,-1
 834 1579 l 1,6,-1
 1772 1579 l 1,7,-1
 1772 1436 l 1,8,-1
 1124 1436 l 1,9,-1
 1124 891 l 1,10,-1
 1729 891 l 1,11,-1
 1729 764 l 1,12,-1
 1126 764 l 1,13,-1
 1126 143 l 1,14,-1
 1800 143 l 1,15,-1
 1800 0 l 1,0,-1
959 1459 m 1,16,-1
 469 493 l 1,17,-1
 959 493 l 1,18,-1
 959 1459 l 1,16,-1
EndSplineSet
EndChar

StartChar: Eth
Encoding: 208 208 144
Width: 1587
Flags: W
LayerCount: 2
Fore
SplineSet
725 1436 m 2,0,-1
 366 1436 l 1,1,-1
 366 143 l 1,2,-1
 725 143 l 2,3,4
 863 143 863 143 952 192 c 128,-1,5
 1041 241 1041 241 1092 327.5 c 128,-1,6
 1143 414 1143 414 1163 532.5 c 128,-1,7
 1183 651 1183 651 1183 789 c 0,8,9
 1183 932 1183 932 1161.5 1051 c 128,-1,10
 1140 1170 1140 1170 1087.5 1255.5 c 128,-1,11
 1035 1341 1035 1341 947 1388.5 c 128,-1,12
 859 1436 859 1436 725 1436 c 2,0,-1
725 1579 m 1,13,14
 1062 1572 1062 1572 1223 1372.5 c 128,-1,15
 1384 1173 1384 1173 1384 788 c 0,16,17
 1384 0 1384 0 725 0 c 2,18,-1
 172 0 l 1,19,-1
 172 1579 l 1,20,-1
 725 1579 l 1,13,14
600 764 m 1,21,-1
 10 764 l 1,22,-1
 10 895 l 1,23,-1
 600 895 l 1,24,-1
 600 764 l 1,21,-1
EndSplineSet
EndChar

StartChar: multiply
Encoding: 215 215 151
Width: 1272
Flags: W
LayerCount: 2
Fore
SplineSet
217 863 m 1,0,-1
 319 965 l 1,1,-1
 636 648 l 1,2,-1
 953 965 l 1,3,-1
 1055 863 l 1,4,-1
 738 546 l 1,5,-1
 1055 229 l 1,6,-1
 953 127 l 1,7,-1
 636 444 l 1,8,-1
 319 127 l 1,9,-1
 217 229 l 1,10,-1
 534 546 l 1,11,-1
 217 863 l 1,0,-1
EndSplineSet
EndChar

StartChar: Oslash
Encoding: 216 216 152
Width: 1612
Flags: W
LayerCount: 2
Fore
SplineSet
328 -113 m 1,0,-1
 1153 1710 l 1,1,-1
 1254 1668 l 1,2,-1
 429 -159 l 1,3,-1
 328 -113 l 1,0,-1
1413 784 m 0,4,5
 1413 667 1413 667 1398 561 c 128,-1,6
 1383 455 1383 455 1350.5 363 c 128,-1,7
 1318 271 1318 271 1266.5 196.5 c 128,-1,8
 1215 122 1215 122 1142 69 c 128,-1,9
 1069 16 1069 16 973.5 -12.5 c 128,-1,10
 878 -41 878 -41 757 -41 c 0,11,12
 695 -41 695 -41 622.5 -31 c 128,-1,13
 550 -21 550 -21 477.5 9.5 c 128,-1,14
 405 40 405 40 337 96 c 128,-1,15
 269 152 269 152 217 243.5 c 128,-1,16
 165 335 165 335 133.5 467.5 c 128,-1,17
 102 600 102 600 102 784 c 0,18,19
 102 965 102 965 133.5 1096.5 c 128,-1,20
 165 1228 165 1228 216.5 1320 c 128,-1,21
 268 1412 268 1412 335 1468.5 c 128,-1,22
 402 1525 402 1525 473 1556.5 c 128,-1,23
 544 1588 544 1588 614.5 1599 c 128,-1,24
 685 1610 685 1610 743 1610 c 0,25,26
 867 1610 867 1610 964.5 1582 c 128,-1,27
 1062 1554 1062 1554 1136.5 1501.5 c 128,-1,28
 1211 1449 1211 1449 1263.5 1375 c 128,-1,29
 1316 1301 1316 1301 1349 1209 c 128,-1,30
 1382 1117 1382 1117 1397.5 1010 c 128,-1,31
 1413 903 1413 903 1413 784 c 0,4,5
1212 784 m 0,32,33
 1212 972 1212 972 1180.5 1101 c 128,-1,34
 1149 1230 1149 1230 1090 1309.5 c 128,-1,35
 1031 1389 1031 1389 947 1423.5 c 128,-1,36
 863 1458 863 1458 758 1458 c 0,37,38
 668 1458 668 1458 599 1434 c 128,-1,39
 530 1410 530 1410 479.5 1366.5 c 128,-1,40
 429 1323 429 1323 395 1262 c 128,-1,41
 361 1201 361 1201 340.5 1126 c 128,-1,42
 320 1051 320 1051 311.5 964.5 c 128,-1,43
 303 878 303 878 303 784 c 0,44,45
 303 600 303 600 334.5 472 c 128,-1,46
 366 344 366 344 425.5 263.5 c 128,-1,47
 485 183 485 183 569 147 c 128,-1,48
 653 111 653 111 758 111 c 0,49,50
 851 111 851 111 921 136.5 c 128,-1,51
 991 162 991 162 1041 208 c 128,-1,52
 1091 254 1091 254 1124.5 317 c 128,-1,53
 1158 380 1158 380 1177 454.5 c 128,-1,54
 1196 529 1196 529 1204 613 c 128,-1,55
 1212 697 1212 697 1212 784 c 0,32,33
EndSplineSet
EndChar

StartChar: Yacute
Encoding: 221 221 157
Width: 1251
Flags: W
LayerCount: 2
Fore
SplineSet
610 677 m 1,0,-1
 1023 1579 l 1,1,-1
 1214 1579 l 1,2,-1
 700 485 l 1,3,-1
 700 0 l 1,4,-1
 510 0 l 1,5,-1
 510 485 l 1,6,-1
 -4 1579 l 1,7,-1
 193 1579 l 1,8,-1
 547 806 l 1,9,-1
 610 677 l 1,0,-1
661 1732 m 1,10,-1
 547 1758 l 1,11,-1
 763 2369 l 1,12,-1
 995 2278 l 1,13,-1
 661 1732 l 1,10,-1
EndSplineSet
EndChar

StartChar: Thorn
Encoding: 222 222 158
Width: 1364
Flags: W
LayerCount: 2
Fore
SplineSet
1290 973 m 0,0,1
 1290 868 1290 868 1256 781.5 c 128,-1,2
 1222 695 1222 695 1138.5 633.5 c 128,-1,3
 1055 572 1055 572 913.5 538 c 128,-1,4
 772 504 772 504 557 504 c 2,5,-1
 395 504 l 1,6,-1
 395 0 l 1,7,-1
 201 0 l 1,8,-1
 201 1579 l 1,9,-1
 395 1579 l 1,10,-1
 395 1444 l 1,11,-1
 592 1444 l 2,12,13
 735 1444 735 1444 842 1429.5 c 128,-1,14
 949 1415 949 1415 1026.5 1387 c 128,-1,15
 1104 1359 1104 1359 1155 1318 c 128,-1,16
 1206 1277 1206 1277 1236 1225 c 128,-1,17
 1266 1173 1266 1173 1278 1109.5 c 128,-1,18
 1290 1046 1290 1046 1290 973 c 0,0,1
557 649 m 2,19,20
 678 649 678 649 765.5 660 c 128,-1,21
 853 671 853 671 914.5 691 c 128,-1,22
 976 711 976 711 1014 739 c 128,-1,23
 1052 767 1052 767 1072.5 801.5 c 128,-1,24
 1093 836 1093 836 1100.5 875.5 c 128,-1,25
 1108 915 1108 915 1108 959 c 0,26,27
 1108 1054 1108 1054 1088 1118.5 c 128,-1,28
 1068 1183 1068 1183 1012.5 1222.5 c 128,-1,29
 957 1262 957 1262 859 1280 c 128,-1,30
 761 1298 761 1298 604 1300 c 1,31,-1
 395 1300 l 1,32,-1
 395 649 l 1,33,-1
 557 649 l 2,19,20
EndSplineSet
EndChar

StartChar: germandbls
Encoding: 223 223 159
Width: 1425
Flags: W
LayerCount: 2
Fore
SplineSet
549 905 m 1,0,1
 750 917 750 917 818 934 c 0,2,3
 862 946 862 946 892.5 966 c 128,-1,4
 923 986 923 986 941.5 1018 c 128,-1,5
 960 1050 960 1050 968.5 1094.5 c 128,-1,6
 977 1139 977 1139 977 1200 c 0,7,8
 977 1268 977 1268 955 1313.5 c 128,-1,9
 933 1359 933 1359 891.5 1386 c 128,-1,10
 850 1413 850 1413 790.5 1424.5 c 128,-1,11
 731 1436 731 1436 656 1436 c 0,12,13
 569 1436 569 1436 515 1412.5 c 128,-1,14
 461 1389 461 1389 431 1339 c 128,-1,15
 401 1289 401 1289 391 1209.5 c 128,-1,16
 381 1130 381 1130 381 1018 c 2,17,-1
 381 16 l 1,18,-1
 187 -6 l 1,19,-1
 187 991 l 2,20,21
 187 1005 187 1005 186.5 1018.5 c 128,-1,22
 186 1032 186 1032 186 1046 c 0,23,24
 186 1181 186 1181 211.5 1281 c 128,-1,25
 237 1381 237 1381 293 1447.5 c 128,-1,26
 349 1514 349 1514 438.5 1546.5 c 128,-1,27
 528 1579 528 1579 656 1579 c 0,28,29
 1149 1579 1149 1579 1149 1176 c 0,30,31
 1149 1107 1149 1107 1133 1049 c 128,-1,32
 1117 991 1117 991 1086 948 c 128,-1,33
 1055 905 1055 905 1009 878 c 128,-1,34
 963 851 963 851 903 844 c 1,35,36
 997 844 997 844 1075.5 814.5 c 128,-1,37
 1154 785 1154 785 1211 728.5 c 128,-1,38
 1268 672 1268 672 1299.5 589 c 128,-1,39
 1331 506 1331 506 1331 399 c 2,40,-1
 1331 395 l 2,41,42
 1331 291 1331 291 1300.5 212 c 128,-1,43
 1270 133 1270 133 1215.5 74.5 c 128,-1,44
 1161 16 1161 16 1087.5 -23 c 128,-1,45
 1014 -62 1014 -62 928 -85.5 c 128,-1,46
 842 -109 842 -109 747.5 -119 c 128,-1,47
 653 -129 653 -129 557 -129 c 1,48,-1
 557 27 l 1,49,50
 685 27 685 27 779 40.5 c 128,-1,51
 873 54 873 54 938.5 79 c 128,-1,52
 1004 104 1004 104 1045 140 c 128,-1,53
 1086 176 1086 176 1109.5 220 c 128,-1,54
 1133 264 1133 264 1141 315.5 c 128,-1,55
 1149 367 1149 367 1149 424 c 2,56,-1
 1149 432 l 2,57,58
 1149 509 1149 509 1119 572 c 128,-1,59
 1089 635 1089 635 1021.5 680 c 128,-1,60
 954 725 954 725 844.5 749.5 c 128,-1,61
 735 774 735 774 576 774 c 2,62,-1
 525 774 l 1,63,-1
 525 905 l 1,64,-1
 549 905 l 1,0,1
EndSplineSet
EndChar

StartChar: ae
Encoding: 230 230 166
Width: 1937
Flags: W
LayerCount: 2
Fore
SplineSet
871 665 m 1,0,-1
 871 713 l 2,1,2
 871 809 871 809 861.5 873 c 128,-1,3
 852 937 852 937 824.5 976 c 128,-1,4
 797 1015 797 1015 747.5 1031 c 128,-1,5
 698 1047 698 1047 619 1047 c 0,6,7
 563 1047 563 1047 506.5 1035 c 128,-1,8
 450 1023 450 1023 401.5 1006 c 128,-1,9
 353 989 353 989 314.5 969.5 c 128,-1,10
 276 950 276 950 256 935 c 1,11,-1
 189 1057 l 1,12,13
 220 1084 220 1084 271.5 1108 c 128,-1,14
 323 1132 323 1132 382 1150 c 128,-1,15
 441 1168 441 1168 501 1179 c 128,-1,16
 561 1190 561 1190 609 1190 c 0,17,18
 690 1190 690 1190 753 1178 c 128,-1,19
 816 1166 816 1166 863 1140 c 128,-1,20
 910 1114 910 1114 941.5 1072 c 128,-1,21
 973 1030 973 1030 991 970 c 1,22,23
 1018 1025 1018 1025 1059.5 1066.5 c 128,-1,24
 1101 1108 1101 1108 1152.5 1135.5 c 128,-1,25
 1204 1163 1204 1163 1263.5 1176.5 c 128,-1,26
 1323 1190 1323 1190 1386 1190 c 0,27,28
 1494 1190 1494 1190 1576.5 1153 c 128,-1,29
 1659 1116 1659 1116 1715 1048.5 c 128,-1,30
 1771 981 1771 981 1800 886.5 c 128,-1,31
 1829 792 1829 792 1829 676 c 0,32,33
 1829 652 1829 652 1827 625 c 128,-1,34
 1825 598 1825 598 1821 567 c 1,35,-1
 1061 567 l 1,36,37
 1061 468 1061 468 1077 386.5 c 128,-1,38
 1093 305 1093 305 1133 247.5 c 128,-1,39
 1173 190 1173 190 1239.5 158.5 c 128,-1,40
 1306 127 1306 127 1407 127 c 0,41,42
 1576 127 1576 127 1713 244 c 1,43,-1
 1775 99 l 1,44,45
 1737 71 1737 71 1686.5 48.5 c 128,-1,46
 1636 26 1636 26 1583.5 10 c 128,-1,47
 1531 -6 1531 -6 1481.5 -14.5 c 128,-1,48
 1432 -23 1432 -23 1395 -23 c 0,49,50
 1244 -23 1244 -23 1135 36 c 128,-1,51
 1026 95 1026 95 962 207 c 1,52,53
 929 163 929 163 882.5 121.5 c 128,-1,54
 836 80 836 80 779 48 c 128,-1,55
 722 16 722 16 655.5 -3.5 c 128,-1,56
 589 -23 589 -23 515 -23 c 0,57,58
 422 -23 422 -23 349 0.5 c 128,-1,59
 276 24 276 24 226 70 c 128,-1,60
 176 116 176 116 149.5 183.5 c 128,-1,61
 123 251 123 251 123 339 c 2,62,-1
 123 343 l 2,63,64
 123 432 123 432 155 501.5 c 128,-1,65
 187 571 187 571 245 618.5 c 128,-1,66
 303 666 303 666 385 690.5 c 128,-1,67
 467 715 467 715 567 715 c 0,68,69
 601 715 601 715 643.5 711 c 128,-1,70
 686 707 686 707 728.5 700 c 128,-1,71
 771 693 771 693 809 684 c 128,-1,72
 847 675 847 675 871 665 c 1,0,-1
562 119 m 0,73,74
 708 119 708 119 871 271 c 1,75,-1
 871 569 l 1,76,77
 740 590 740 590 636 590 c 0,78,79
 539 590 539 590 476.5 573 c 128,-1,80
 414 556 414 556 378 525.5 c 128,-1,81
 342 495 342 495 328 451.5 c 128,-1,82
 314 408 314 408 314 356 c 0,83,84
 314 292 314 292 328.5 247 c 128,-1,85
 343 202 343 202 373.5 173.5 c 128,-1,86
 404 145 404 145 450.5 132 c 128,-1,87
 497 119 497 119 562 119 c 0,73,74
1661 717 m 2,88,89
 1661 827 1661 827 1633.5 894 c 128,-1,90
 1606 961 1606 961 1565 997 c 128,-1,91
 1524 1033 1524 1033 1476 1045 c 128,-1,92
 1428 1057 1428 1057 1387 1057 c 0,93,94
 1355 1057 1355 1057 1319 1051.5 c 128,-1,95
 1283 1046 1283 1046 1246.5 1031 c 128,-1,96
 1210 1016 1210 1016 1176.5 989.5 c 128,-1,97
 1143 963 1143 963 1117.5 921 c 128,-1,98
 1092 879 1092 879 1076.5 820.5 c 128,-1,99
 1061 762 1061 762 1061 682 c 1,100,-1
 1661 682 l 1,101,-1
 1661 717 l 2,88,89
EndSplineSet
EndChar

StartChar: eth
Encoding: 240 240 176
Width: 1253
Flags: W
LayerCount: 2
Fore
SplineSet
454 1401 m 1,0,-1
 1102 1593 l 1,1,-1
 1144 1503 l 1,2,-1
 496 1311 l 1,3,-1
 454 1401 l 1,0,-1
1130 690 m 0,4,5
 1130 -20 1130 -20 597 -20 c 0,6,7
 468 -20 468 -20 376.5 29 c 128,-1,8
 285 78 285 78 226.5 161 c 128,-1,9
 168 244 168 244 140.5 353.5 c 128,-1,10
 113 463 113 463 113 584 c 0,11,12
 113 708 113 708 142.5 818 c 128,-1,13
 172 928 172 928 230 1010.5 c 128,-1,14
 288 1093 288 1093 374.5 1141.5 c 128,-1,15
 461 1190 461 1190 575 1190 c 0,16,17
 633 1190 633 1190 688.5 1175.5 c 128,-1,18
 744 1161 744 1161 792 1138 c 128,-1,19
 840 1115 840 1115 878.5 1086 c 128,-1,20
 917 1057 917 1057 940 1028 c 1,21,22
 913 1109 913 1109 863.5 1194.5 c 128,-1,23
 814 1280 814 1280 747.5 1361 c 128,-1,24
 681 1442 681 1442 601.5 1514.5 c 128,-1,25
 522 1587 522 1587 436 1641 c 1,26,-1
 520 1743 l 1,27,28
 586 1706 586 1706 657 1653 c 128,-1,29
 728 1600 728 1600 795.5 1529.5 c 128,-1,30
 863 1459 863 1459 924 1371.5 c 128,-1,31
 985 1284 985 1284 1030.5 1179 c 128,-1,32
 1076 1074 1076 1074 1103 952 c 128,-1,33
 1130 830 1130 830 1130 690 c 0,4,5
946 666 m 0,34,35
 946 742 946 742 930.5 799.5 c 128,-1,36
 915 857 915 857 889 899.5 c 128,-1,37
 863 942 863 942 829 970 c 128,-1,38
 795 998 795 998 759 1015.5 c 128,-1,39
 723 1033 723 1033 686.5 1040 c 128,-1,40
 650 1047 650 1047 619 1047 c 0,41,42
 581 1047 581 1047 542 1041 c 128,-1,43
 503 1035 503 1035 467 1017.5 c 128,-1,44
 431 1000 431 1000 399.5 968.5 c 128,-1,45
 368 937 368 937 345 886 c 128,-1,46
 322 835 322 835 308.5 761.5 c 128,-1,47
 295 688 295 688 295 587 c 0,48,49
 295 123 295 123 593 123 c 0,50,51
 678 123 678 123 743.5 150.5 c 128,-1,52
 809 178 809 178 854 241.5 c 128,-1,53
 899 305 899 305 922.5 409 c 128,-1,54
 946 513 946 513 946 666 c 0,34,35
EndSplineSet
EndChar

StartChar: divide
Encoding: 247 247 183
Width: 827
Flags: W
LayerCount: 2
Fore
SplineSet
756 508 m 1,0,-1
 74 508 l 1,1,-1
 74 639 l 1,2,-1
 756 639 l 1,3,-1
 756 508 l 1,0,-1
413 930 m 0,4,5
 461 930 461 930 491 896.5 c 128,-1,6
 521 863 521 863 521 815 c 256,7,8
 521 767 521 767 491 733.5 c 128,-1,9
 461 700 461 700 413 700 c 0,10,11
 388 700 388 700 367.5 709 c 128,-1,12
 347 718 347 718 332 734 c 128,-1,13
 317 750 317 750 309 771 c 128,-1,14
 301 792 301 792 301 815 c 256,15,16
 301 838 301 838 309 859 c 128,-1,17
 317 880 317 880 332 895.5 c 128,-1,18
 347 911 347 911 367.5 920.5 c 128,-1,19
 388 930 388 930 413 930 c 0,4,5
411 445 m 0,20,21
 459 445 459 445 489 411.5 c 128,-1,22
 519 378 519 378 519 330 c 256,23,24
 519 282 519 282 489 248.5 c 128,-1,25
 459 215 459 215 411 215 c 0,26,27
 386 215 386 215 365.5 224 c 128,-1,28
 345 233 345 233 330 249 c 128,-1,29
 315 265 315 265 307 286 c 128,-1,30
 299 307 299 307 299 330 c 256,31,32
 299 353 299 353 307 374 c 128,-1,33
 315 395 315 395 330 410.5 c 128,-1,34
 345 426 345 426 365.5 435.5 c 128,-1,35
 386 445 386 445 411 445 c 0,20,21
EndSplineSet
EndChar

StartChar: oslash
Encoding: 248 248 184
Width: 1253
Flags: W
LayerCount: 2
Fore
SplineSet
298 -168 m 1,0,-1
 827 1365 l 1,1,-1
 908 1335 l 1,2,-1
 386 -198 l 1,3,-1
 298 -168 l 1,0,-1
274 768 m 0,4,5
 254 683 254 683 254 582 c 0,6,7
 254 484 254 484 273 399 c 128,-1,8
 292 314 292 314 333.5 251.5 c 128,-1,9
 375 189 375 189 441 153 c 128,-1,10
 507 117 507 117 602 117 c 0,11,12
 698 117 698 117 764.5 153.5 c 128,-1,13
 831 190 831 190 872.5 253 c 128,-1,14
 914 316 914 316 932 400.5 c 128,-1,15
 950 485 950 485 950 582 c 0,16,17
 950 681 950 681 931 766.5 c 128,-1,18
 912 852 912 852 870 915.5 c 128,-1,19
 828 979 828 979 762 1015 c 128,-1,20
 696 1051 696 1051 602 1051 c 0,21,22
 530 1051 530 1051 475 1030 c 128,-1,23
 420 1009 420 1009 380.5 971.5 c 128,-1,24
 341 934 341 934 315 882 c 128,-1,25
 289 830 289 830 274 768 c 0,4,5
602 1190 m 0,26,27
 738 1190 738 1190 838 1141.5 c 128,-1,28
 938 1093 938 1093 1003.5 1010 c 128,-1,29
 1069 927 1069 927 1101 816.5 c 128,-1,30
 1133 706 1133 706 1133 582 c 256,31,32
 1133 458 1133 458 1101.5 348.5 c 128,-1,33
 1070 239 1070 239 1004.5 157 c 128,-1,34
 939 75 939 75 839 27.5 c 128,-1,35
 739 -20 739 -20 602 -20 c 0,36,37
 471 -20 471 -20 371.5 25.5 c 128,-1,38
 272 71 272 71 205.5 151 c 128,-1,39
 139 231 139 231 105.5 341.5 c 128,-1,40
 72 452 72 452 72 582 c 0,41,42
 72 708 72 708 104.5 819 c 128,-1,43
 137 930 137 930 203 1012.5 c 128,-1,44
 269 1095 269 1095 368.5 1142.5 c 128,-1,45
 468 1190 468 1190 602 1190 c 0,26,27
EndSplineSet
EndChar

StartChar: yacute
Encoding: 253 253 189
Width: 1212
Flags: W
LayerCount: 2
Fore
SplineSet
598 249 m 1,0,-1
 899 1169 l 1,1,-1
 1094 1169 l 1,2,-1
 657 -37 l 2,3,4
 633 -103 633 -103 617.5 -144.5 c 128,-1,5
 602 -186 602 -186 594 -203 c 0,6,7
 533 -336 533 -336 440.5 -397.5 c 128,-1,8
 348 -459 348 -459 223 -459 c 1,9,-1
 172 -334 l 1,10,11
 322 -309 322 -309 389 -239 c 0,12,13
 455 -170 455 -170 512 23 c 1,14,-1
 61 1169 l 1,15,-1
 243 1169 l 1,16,-1
 598 249 l 1,0,-1
537 1312 m 1,17,-1
 480 1338 l 1,18,-1
 639 1949 l 1,19,-1
 871 1858 l 1,20,-1
 537 1312 l 1,17,-1
EndSplineSet
EndChar

StartChar: thorn
Encoding: 254 254 190
Width: 1312
Flags: W
LayerCount: 2
Fore
SplineSet
1200 584 m 0,0,1
 1200 468 1200 468 1173 359.5 c 128,-1,2
 1146 251 1146 251 1089 166.5 c 128,-1,3
 1032 82 1032 82 943 31 c 128,-1,4
 854 -20 854 -20 731 -20 c 0,5,6
 482 -20 482 -20 372 117 c 1,7,-1
 372 -465 l 1,8,-1
 186 -487 l 1,9,-1
 186 1565 l 1,10,-1
 370 1565 l 1,11,-1
 370 1004 l 1,12,13
 402 1044 402 1044 442.5 1078 c 128,-1,14
 483 1112 483 1112 529 1137 c 128,-1,15
 575 1162 575 1162 626 1176 c 128,-1,16
 677 1190 677 1190 731 1190 c 0,17,18
 816 1190 816 1190 883.5 1166 c 128,-1,19
 951 1142 951 1142 1003 1100 c 128,-1,20
 1055 1058 1055 1058 1092.5 1000 c 128,-1,21
 1130 942 1130 942 1154 875 c 128,-1,22
 1178 808 1178 808 1189 733.5 c 128,-1,23
 1200 659 1200 659 1200 584 c 0,0,1
1018 543 m 0,24,25
 1018 597 1018 597 1014 655 c 128,-1,26
 1010 713 1010 713 998.5 769 c 128,-1,27
 987 825 987 825 967 875.5 c 128,-1,28
 947 926 947 926 915 964 c 128,-1,29
 883 1002 883 1002 838 1024.5 c 128,-1,30
 793 1047 793 1047 731 1047 c 0,31,32
 671 1047 671 1047 616.5 1028 c 128,-1,33
 562 1009 562 1009 517.5 983 c 128,-1,34
 473 957 473 957 441.5 931 c 128,-1,35
 410 905 410 905 395 890 c 1,36,-1
 379 244 l 1,37,38
 409 218 409 218 450.5 196 c 128,-1,39
 492 174 492 174 540 157.5 c 128,-1,40
 588 141 588 141 639 132 c 128,-1,41
 690 123 690 123 739 123 c 0,42,43
 774 123 774 123 811 133.5 c 128,-1,44
 848 144 848 144 881.5 169 c 128,-1,45
 915 194 915 194 943.5 236.5 c 128,-1,46
 972 279 972 279 989 343 c 0,47,48
 1018 451 1018 451 1018 543 c 0,24,25
EndSplineSet
EndChar

StartChar: dotlessi
Encoding: 305 305 192
Width: 468
Flags: W
LayerCount: 2
Fore
SplineSet
326 0 m 1,0,-1
 144 0 l 1,1,-1
 144 1169 l 1,2,-1
 326 1169 l 1,3,-1
 326 0 l 1,0,-1
EndSplineSet
EndChar

StartChar: Utilde
Encoding: 360 360 193
Width: 1499
Flags: W
LayerCount: 2
Fore
SplineSet
749 -41 m 1,0,1
 581 -41 581 -41 462 8.5 c 128,-1,2
 343 58 343 58 267.5 154 c 128,-1,3
 192 250 192 250 157.5 391 c 128,-1,4
 123 532 123 532 123 715 c 2,5,-1
 123 1579 l 1,6,-1
 315 1579 l 1,7,-1
 315 711 l 2,8,9
 315 575 315 575 330.5 476.5 c 128,-1,10
 346 378 346 378 374 310 c 128,-1,11
 402 242 402 242 441.5 201 c 128,-1,12
 481 160 481 160 529.5 137.5 c 128,-1,13
 578 115 578 115 633.5 107.5 c 128,-1,14
 689 100 689 100 749 100 c 0,15,16
 817 100 817 100 876 110 c 128,-1,17
 935 120 935 120 983.5 145 c 128,-1,18
 1032 170 1032 170 1069 214 c 128,-1,19
 1106 258 1106 258 1131.5 326 c 128,-1,20
 1157 394 1157 394 1170 489 c 128,-1,21
 1183 584 1183 584 1183 711 c 2,22,-1
 1183 1579 l 1,23,-1
 1379 1579 l 1,24,-1
 1379 715 l 2,25,26
 1379 555 1379 555 1351 417.5 c 128,-1,27
 1323 280 1323 280 1252 178.5 c 128,-1,28
 1181 77 1181 77 1059 19 c 128,-1,29
 937 -39 937 -39 749 -41 c 1,0,1
904 1732 m 0,30,31
 848 1732 848 1732 796 1750.5 c 128,-1,32
 744 1769 744 1769 699 1791.5 c 128,-1,33
 654 1814 654 1814 616 1832.5 c 128,-1,34
 578 1851 578 1851 551 1851 c 0,35,36
 522 1851 522 1851 507 1826.5 c 128,-1,37
 492 1802 492 1802 492 1736 c 1,38,-1
 336 1736 l 1,39,40
 336 1996 336 1996 537 1996 c 0,41,42
 593 1996 593 1996 639.5 1976.5 c 128,-1,43
 686 1957 686 1957 727.5 1933.5 c 128,-1,44
 769 1910 769 1910 806 1890.5 c 128,-1,45
 843 1871 843 1871 881 1871 c 0,46,47
 940 1871 940 1871 940 1982 c 1,48,-1
 1096 1982 l 1,49,50
 1096 1925 1096 1925 1082.5 1879 c 128,-1,51
 1069 1833 1069 1833 1044 1800.5 c 128,-1,52
 1019 1768 1019 1768 983.5 1750 c 128,-1,53
 948 1732 948 1732 904 1732 c 0,30,31
EndSplineSet
EndChar

StartChar: mu
Encoding: 956 956 194
Width: 1303
Flags: W
LayerCount: 2
Fore
SplineSet
588 -20 m 0,0,1
 542 -20 542 -20 504.5 -6.5 c 128,-1,2
 467 7 467 7 437.5 26 c 128,-1,3
 408 45 408 45 388 65.5 c 128,-1,4
 368 86 368 86 358 100 c 2,5,-1
 348 113 l 1,6,-1
 348 -291 l 1,7,-1
 174 -291 l 1,8,-1
 174 1169 l 1,9,-1
 348 1169 l 1,10,-1
 348 442 l 2,11,12
 348 123 348 123 600 123 c 0,13,14
 670 123 670 123 729 142 c 128,-1,15
 788 161 788 161 833.5 186.5 c 128,-1,16
 879 212 879 212 908 237 c 128,-1,17
 937 262 937 262 947 274 c 1,18,-1
 947 1169 l 1,19,-1
 1155 1169 l 1,20,-1
 1155 16 l 1,21,-1
 1009 16 l 1,22,-1
 985 170 l 1,23,24
 814 -20 814 -20 588 -20 c 0,0,1
EndSplineSet
EndChar

StartChar: endash
Encoding: 8211 8211 195
Width: 1024
Flags: W
LayerCount: 2
Fore
SplineSet
0 633 m 1,0,-1
 1024 633 l 1,1,-1
 1024 489 l 1,2,-1
 0 489 l 1,3,-1
 0 633 l 1,0,-1
EndSplineSet
EndChar

StartChar: emdash
Encoding: 8212 8212 196
Width: 2048
Flags: W
LayerCount: 2
Fore
SplineSet
0 633 m 1,0,-1
 2048 633 l 1,1,-1
 2048 489 l 1,2,-1
 0 489 l 1,3,-1
 0 633 l 1,0,-1
EndSplineSet
EndChar

StartChar: quoteleft
Encoding: 8216 8216 197
Width: 547
Flags: W
LayerCount: 2
Fore
SplineSet
450 356 m 1,0,-1
 383 330 l 1,1,-1
 55 885 l 1,2,-1
 297 974 l 1,3,-1
 450 356 l 1,0,-1
EndSplineSet
EndChar

StartChar: quoteright
Encoding: 8217 8217 198
Width: 534
Flags: W
LayerCount: 2
Fore
SplineSet
136 1286 m 1,0,-1
 136 1579 l 1,1,-1
 417 1579 l 1,2,-1
 417 1330 l 2,3,4
 417 1215 417 1215 358.5 1140 c 128,-1,5
 300 1065 300 1065 188 1033 c 1,6,-1
 137 1127 l 1,7,8
 175 1140 175 1140 200 1154 c 128,-1,9
 225 1168 225 1168 240 1187 c 128,-1,10
 255 1206 255 1206 261 1230 c 128,-1,11
 267 1254 267 1254 267 1286 c 1,12,-1
 136 1286 l 1,0,-1
EndSplineSet
EndChar

StartChar: quotesinglbase
Encoding: 8218 8218 199
Width: 532
Flags: W
LayerCount: 2
Fore
SplineSet
135 0 m 1,0,-1
 135 293 l 1,1,-1
 416 293 l 1,2,-1
 416 44 l 2,3,4
 416 -71 416 -71 357.5 -146 c 128,-1,5
 299 -221 299 -221 187 -253 c 1,6,-1
 136 -159 l 1,7,8
 174 -146 174 -146 199 -132 c 128,-1,9
 224 -118 224 -118 239 -99 c 128,-1,10
 254 -80 254 -80 260 -56 c 128,-1,11
 266 -32 266 -32 266 0 c 1,12,-1
 135 0 l 1,0,-1
EndSplineSet
EndChar

StartChar: quotedblleft
Encoding: 8220 8220 200
Width: 923
Flags: W
LayerCount: 2
Fore
SplineSet
414 1356 m 1,0,-1
 414 1063 l 1,1,-1
 133 1063 l 1,2,-1
 133 1312 l 2,3,4
 133 1427 133 1427 191.5 1502 c 128,-1,5
 250 1577 250 1577 362 1609 c 1,6,-1
 413 1515 l 1,7,8
 375 1502 375 1502 350 1488 c 128,-1,9
 325 1474 325 1474 310 1455.5 c 128,-1,10
 295 1437 295 1437 289 1413 c 128,-1,11
 283 1389 283 1389 283 1356 c 1,12,-1
 414 1356 l 1,0,-1
783 1356 m 1,13,-1
 783 1063 l 1,14,-1
 502 1063 l 1,15,-1
 502 1312 l 2,16,17
 502 1427 502 1427 560.5 1502 c 128,-1,18
 619 1577 619 1577 731 1609 c 1,19,-1
 782 1515 l 1,20,21
 744 1502 744 1502 719 1488 c 128,-1,22
 694 1474 694 1474 679 1455.5 c 128,-1,23
 664 1437 664 1437 658 1413 c 128,-1,24
 652 1389 652 1389 652 1356 c 1,25,-1
 783 1356 l 1,13,-1
EndSplineSet
EndChar

StartChar: quotedblright
Encoding: 8221 8221 201
Width: 922
Flags: W
LayerCount: 2
Fore
SplineSet
140 1286 m 1,0,-1
 140 1579 l 1,1,-1
 421 1579 l 1,2,-1
 421 1330 l 2,3,4
 421 1215 421 1215 362.5 1140 c 128,-1,5
 304 1065 304 1065 192 1033 c 1,6,-1
 141 1127 l 1,7,8
 179 1140 179 1140 204 1154 c 128,-1,9
 229 1168 229 1168 244 1187 c 128,-1,10
 259 1206 259 1206 265 1230 c 128,-1,11
 271 1254 271 1254 271 1286 c 1,12,-1
 140 1286 l 1,0,-1
509 1286 m 1,13,-1
 509 1579 l 1,14,-1
 790 1579 l 1,15,-1
 790 1330 l 2,16,17
 790 1215 790 1215 731.5 1140 c 128,-1,18
 673 1065 673 1065 561 1033 c 1,19,-1
 510 1127 l 1,20,21
 548 1140 548 1140 573 1154 c 128,-1,22
 598 1168 598 1168 613 1187 c 128,-1,23
 628 1206 628 1206 634 1230 c 128,-1,24
 640 1254 640 1254 640 1286 c 1,25,-1
 509 1286 l 1,13,-1
EndSplineSet
EndChar

StartChar: quotedblbase
Encoding: 8222 8222 202
Width: 922
Flags: W
LayerCount: 2
Fore
SplineSet
140 -19 m 1,0,-1
 140 274 l 1,1,-1
 421 274 l 1,2,-1
 421 25 l 2,3,4
 421 -90 421 -90 362.5 -165 c 128,-1,5
 304 -240 304 -240 192 -272 c 1,6,-1
 141 -178 l 1,7,8
 179 -165 179 -165 204 -151 c 128,-1,9
 229 -137 229 -137 244 -118 c 128,-1,10
 259 -99 259 -99 265 -75 c 128,-1,11
 271 -51 271 -51 271 -19 c 1,12,-1
 140 -19 l 1,0,-1
509 -19 m 1,13,-1
 509 274 l 1,14,-1
 790 274 l 1,15,-1
 790 25 l 2,16,17
 790 -90 790 -90 731.5 -165 c 128,-1,18
 673 -240 673 -240 561 -272 c 1,19,-1
 510 -178 l 1,20,21
 548 -165 548 -165 573 -151 c 128,-1,22
 598 -137 598 -137 613 -118 c 128,-1,23
 628 -99 628 -99 634 -75 c 128,-1,24
 640 -51 640 -51 640 -19 c 1,25,-1
 509 -19 l 1,13,-1
EndSplineSet
EndChar

StartChar: dagger
Encoding: 8224 8224 203
Width: 968
Flags: W
LayerCount: 2
Fore
SplineSet
911 1020 m 1,0,-1
 583 1020 l 1,1,-1
 583 0 l 1,2,-1
 393 0 l 1,3,-1
 393 1020 l 1,4,-1
 57 1020 l 1,5,-1
 57 1161 l 1,6,-1
 392 1161 l 1,7,-1
 392 1468 l 1,8,-1
 585 1468 l 1,9,-1
 585 1161 l 1,10,-1
 911 1161 l 1,11,-1
 911 1020 l 1,0,-1
EndSplineSet
EndChar

StartChar: daggerdbl
Encoding: 8225 8225 204
Width: 968
Flags: W
LayerCount: 2
Fore
SplineSet
911 1020 m 1,0,-1
 583 1020 l 1,1,-1
 583 444 l 1,2,-1
 909 444 l 1,3,-1
 909 305 l 1,4,-1
 583 305 l 1,5,-1
 583 0 l 1,6,-1
 392 0 l 1,7,-1
 392 305 l 1,8,-1
 57 305 l 1,9,-1
 57 444 l 1,10,-1
 392 444 l 1,11,-1
 392 1020 l 1,12,-1
 57 1020 l 1,13,-1
 57 1161 l 1,14,-1
 392 1161 l 1,15,-1
 392 1468 l 1,16,-1
 585 1468 l 1,17,-1
 585 1161 l 1,18,-1
 911 1161 l 1,19,-1
 911 1020 l 1,0,-1
EndSplineSet
EndChar

StartChar: bullet
Encoding: 8226 8226 205
Width: 1312
Flags: W
LayerCount: 2
Fore
SplineSet
904 455 m 0,0,1
 804 358 804 358 655 358 c 0,2,3
 581 358 581 358 517.5 384 c 128,-1,4
 454 410 454 410 407.5 455 c 128,-1,5
 361 500 361 500 334 561 c 128,-1,6
 307 622 307 622 307 692 c 256,7,8
 307 762 307 762 334 823.5 c 128,-1,9
 361 885 361 885 407.5 930.5 c 128,-1,10
 454 976 454 976 517.5 1002 c 128,-1,11
 581 1028 581 1028 655 1028 c 0,12,13
 728 1028 728 1028 792 1001.5 c 128,-1,14
 856 975 856 975 903.5 929.5 c 128,-1,15
 951 884 951 884 978 822.5 c 128,-1,16
 1005 761 1005 761 1005 692 c 0,17,18
 1005 553 1005 553 904 455 c 0,0,1
EndSplineSet
EndChar

StartChar: ellipsis
Encoding: 8230 8230 206
Width: 1535
Flags: W
LayerCount: 2
Fore
SplineSet
251 213 m 0,0,1
 299 213 299 213 329 179.5 c 128,-1,2
 359 146 359 146 359 98 c 256,3,4
 359 50 359 50 329 16.5 c 128,-1,5
 299 -17 299 -17 251 -17 c 0,6,7
 226 -17 226 -17 205.5 -8 c 128,-1,8
 185 1 185 1 170 17 c 128,-1,9
 155 33 155 33 147 54 c 128,-1,10
 139 75 139 75 139 98 c 256,11,12
 139 121 139 121 147 142 c 128,-1,13
 155 163 155 163 170 178.5 c 128,-1,14
 185 194 185 194 205.5 203.5 c 128,-1,15
 226 213 226 213 251 213 c 0,0,1
769 213 m 0,16,17
 817 213 817 213 847 179.5 c 128,-1,18
 877 146 877 146 877 98 c 256,19,20
 877 50 877 50 847 16.5 c 128,-1,21
 817 -17 817 -17 769 -17 c 0,22,23
 744 -17 744 -17 723.5 -8 c 128,-1,24
 703 1 703 1 688 17 c 128,-1,25
 673 33 673 33 665 54 c 128,-1,26
 657 75 657 75 657 98 c 256,27,28
 657 121 657 121 665 142 c 128,-1,29
 673 163 673 163 688 178.5 c 128,-1,30
 703 194 703 194 723.5 203.5 c 128,-1,31
 744 213 744 213 769 213 c 0,16,17
1287 213 m 0,32,33
 1335 213 1335 213 1365 179.5 c 128,-1,34
 1395 146 1395 146 1395 98 c 256,35,36
 1395 50 1395 50 1365 16.5 c 128,-1,37
 1335 -17 1335 -17 1287 -17 c 0,38,39
 1262 -17 1262 -17 1241.5 -8 c 128,-1,40
 1221 1 1221 1 1206 17 c 128,-1,41
 1191 33 1191 33 1183 54 c 128,-1,42
 1175 75 1175 75 1175 98 c 256,43,44
 1175 121 1175 121 1183 142 c 128,-1,45
 1191 163 1191 163 1206 178.5 c 128,-1,46
 1221 194 1221 194 1241.5 203.5 c 128,-1,47
 1262 213 1262 213 1287 213 c 0,32,33
EndSplineSet
EndChar

StartChar: guilsinglleft
Encoding: 8249 8249 207
Width: 819
Flags: W
LayerCount: 2
Fore
SplineSet
766 842 m 1,0,-1
 319 577 l 1,1,-1
 766 306 l 1,2,-1
 766 99 l 1,3,-1
 158 481 l 1,4,-1
 158 666 l 1,5,-1
 766 1049 l 1,6,-1
 766 842 l 1,0,-1
EndSplineSet
EndChar

StartChar: guilsinglright
Encoding: 8250 8250 208
Width: 819
Flags: W
LayerCount: 2
Fore
SplineSet
193 1049 m 1,0,-1
 801 666 l 1,1,-1
 801 481 l 1,2,-1
 193 99 l 1,3,-1
 193 306 l 1,4,-1
 639 577 l 1,5,-1
 193 842 l 1,6,-1
 193 1049 l 1,0,-1
EndSplineSet
EndChar

StartChar: uni203E
Encoding: 8254 8254 209
Width: 970
Flags: W
LayerCount: 2
Fore
SplineSet
826 122 m 1,0,-1
 144 122 l 1,1,-1
 144 239 l 1,2,-1
 826 239 l 1,3,-1
 826 122 l 1,0,-1
EndSplineSet
EndChar

StartChar: NameMe.209
Encoding: 8364 8364 210
Width: 1210
Flags: W
LayerCount: 2
Fore
SplineSet
793 1439 m 0,0,1
 847 1439 847 1439 894 1432.5 c 128,-1,2
 941 1426 941 1426 978.5 1417.5 c 128,-1,3
 1016 1409 1016 1409 1043 1399.5 c 128,-1,4
 1070 1390 1070 1390 1084 1383 c 2,5,-1
 1098 1376 l 1,6,-1
 1055 1254 l 1,7,-1
 1017 1269 l 2,8,9
 1007 1273 1007 1273 982 1279.5 c 128,-1,10
 957 1286 957 1286 924.5 1292.5 c 128,-1,11
 892 1299 892 1299 856 1303.5 c 128,-1,12
 820 1308 820 1308 790 1308 c 0,13,14
 627 1308 627 1308 540.5 1211.5 c 128,-1,15
 454 1115 454 1115 454 931 c 1,16,-1
 848 931 l 1,17,-1
 848 809 l 1,18,-1
 443 809 l 1,19,20
 441 795 441 795 440 767 c 128,-1,21
 439 739 439 739 438 696 c 1,22,-1
 791 696 l 1,23,-1
 791 574 l 1,24,-1
 437 574 l 1,25,26
 437 435 437 435 466.5 344 c 128,-1,27
 496 253 496 253 542 200 c 128,-1,28
 588 147 588 147 644.5 125 c 128,-1,29
 701 103 701 103 756 102 c 1,30,31
 815 102 815 102 867.5 114 c 128,-1,32
 920 126 920 126 958.5 140 c 128,-1,33
 997 154 997 154 1019.5 166 c 128,-1,34
 1042 178 1042 178 1041 178 c 2,35,-1
 1093 55 l 1,36,37
 1092 54 1092 54 1068.5 39.5 c 128,-1,38
 1045 25 1045 25 999 7.5 c 128,-1,39
 953 -10 953 -10 884 -24 c 128,-1,40
 815 -38 815 -38 723 -38 c 0,41,42
 643 -38 643 -38 564 -0.5 c 128,-1,43
 485 37 485 37 421 113.5 c 128,-1,44
 357 190 357 190 315.5 304.5 c 128,-1,45
 274 419 274 419 268 574 c 1,46,-1
 104 574 l 1,47,-1
 104 696 l 1,48,-1
 264 696 l 1,49,50
 265 739 265 739 266 767 c 128,-1,51
 267 795 267 795 268 809 c 1,52,-1
 88 809 l 1,53,-1
 88 931 l 1,54,-1
 292 931 l 1,55,56
 299 1045 299 1045 332.5 1139 c 128,-1,57
 366 1233 366 1233 428 1299.5 c 128,-1,58
 490 1366 490 1366 581 1402.5 c 128,-1,59
 672 1439 672 1439 793 1439 c 0,0,1
EndSplineSet
EndChar

StartChar: trademark
Encoding: 8482 8482 211
Width: 2227
Flags: W
LayerCount: 2
Fore
SplineSet
849 1310 m 1,0,-1
 640 1310 l 1,1,-1
 640 624 l 1,2,-1
 505 624 l 1,3,-1
 505 1310 l 1,4,-1
 295 1310 l 1,5,-1
 295 1413 l 1,6,-1
 849 1413 l 1,7,-1
 849 1310 l 1,0,-1
1372 758 m 1,8,-1
 1556 1413 l 1,9,-1
 1785 1413 l 1,10,-1
 1785 624 l 1,11,-1
 1658 624 l 1,12,-1
 1658 1288 l 1,13,-1
 1461 624 l 1,14,-1
 1283 624 l 1,15,-1
 1087 1288 l 1,16,-1
 1087 624 l 1,17,-1
 959 624 l 1,18,-1
 959 1413 l 1,19,-1
 1188 1413 l 1,20,-1
 1372 758 l 1,8,-1
EndSplineSet
EndChar

StartChar: OE
Encoding: 338 338 215
Width: 2759
Flags: W
LayerCount: 2
Fore
SplineSet
2217 0 m 1,0,-1
 1234 0 l 1,1,-1
 1234 128 l 1,2,3
 1156 47 1156 47 1044.5 3 c 128,-1,4
 933 -41 933 -41 778 -41 c 0,5,6
 714 -41 714 -41 641 -30.5 c 128,-1,7
 568 -20 568 -20 495 11 c 128,-1,8
 422 42 422 42 355 98.5 c 128,-1,9
 288 155 288 155 236.5 246.5 c 128,-1,10
 185 338 185 338 154.5 470 c 128,-1,11
 124 602 124 602 124 784 c 0,12,13
 124 963 124 963 154.5 1094 c 128,-1,14
 185 1225 185 1225 236 1316.5 c 128,-1,15
 287 1408 287 1408 353 1465.5 c 128,-1,16
 419 1523 419 1523 490 1555 c 128,-1,17
 561 1587 561 1587 632 1598.5 c 128,-1,18
 703 1610 703 1610 764 1610 c 0,19,20
 925 1610 925 1610 1040 1570.5 c 128,-1,21
 1155 1531 1155 1531 1234 1459 c 1,22,-1
 1234 1579 l 1,23,-1
 2204 1579 l 1,24,-1
 2204 1436 l 1,25,-1
 1428 1436 l 1,26,-1
 1428 891 l 1,27,-1
 2106 891 l 1,28,-1
 2106 776 l 1,29,-1
 1428 776 l 1,30,-1
 1428 143 l 1,31,-1
 2217 143 l 1,32,-1
 2217 0 l 1,0,-1
780 1458 m 0,33,34
 644 1458 644 1458 555.5 1405 c 128,-1,35
 467 1352 467 1352 415.5 1260.5 c 128,-1,36
 364 1169 364 1169 344 1046 c 128,-1,37
 324 923 324 923 324 784 c 0,38,39
 324 597 324 597 356.5 468.5 c 128,-1,40
 389 340 389 340 449.5 260.5 c 128,-1,41
 510 181 510 181 596 146 c 128,-1,42
 682 111 682 111 789 111 c 0,43,44
 904 111 904 111 988 136.5 c 128,-1,45
 1072 162 1072 162 1127 194 c 0,46,47
 1191 230 1191 230 1234 277 c 1,48,-1
 1234 1301 l 1,49,50
 1194 1345 1194 1345 1131 1379 c 0,51,52
 1104 1394 1104 1394 1069 1408 c 128,-1,53
 1034 1422 1034 1422 990.5 1433 c 128,-1,54
 947 1444 947 1444 894.5 1451 c 128,-1,55
 842 1458 842 1458 780 1458 c 0,33,34
EndSplineSet
EndChar

StartChar: ring
Encoding: 730 730 216
Width: 573
Flags: W
LayerCount: 2
Fore
SplineSet
288 1644 m 0,0,1
 256 1644 256 1644 229.5 1632 c 128,-1,2
 203 1620 203 1620 184 1600 c 128,-1,3
 165 1580 165 1580 154 1552.5 c 128,-1,4
 143 1525 143 1525 143 1495 c 0,5,6
 143 1464 143 1464 154.5 1437 c 128,-1,7
 166 1410 166 1410 185.5 1389.5 c 128,-1,8
 205 1369 205 1369 231.5 1357.5 c 128,-1,9
 258 1346 258 1346 288 1346 c 0,10,11
 319 1346 319 1346 345 1357.5 c 128,-1,12
 371 1369 371 1369 390 1389.5 c 128,-1,13
 409 1410 409 1410 419 1437 c 128,-1,14
 429 1464 429 1464 429 1495 c 256,15,16
 429 1526 429 1526 419 1553.5 c 128,-1,17
 409 1581 409 1581 390 1601 c 128,-1,18
 371 1621 371 1621 345 1632.5 c 128,-1,19
 319 1644 319 1644 288 1644 c 0,0,1
290 1735 m 0,20,21
 342 1735 342 1735 385.5 1717 c 128,-1,22
 429 1699 429 1699 460 1666.5 c 128,-1,23
 491 1634 491 1634 508.5 1590 c 128,-1,24
 526 1546 526 1546 526 1495 c 256,25,26
 526 1444 526 1444 509 1400 c 128,-1,27
 492 1356 492 1356 461 1324 c 128,-1,28
 430 1292 430 1292 386.5 1274 c 128,-1,29
 343 1256 343 1256 290 1256 c 0,30,31
 236 1256 236 1256 191 1274.5 c 128,-1,32
 146 1293 146 1293 113.5 1325 c 128,-1,33
 81 1357 81 1357 63.5 1400.5 c 128,-1,34
 46 1444 46 1444 46 1495 c 0,35,36
 46 1547 46 1547 64 1591 c 128,-1,37
 82 1635 82 1635 114.5 1667 c 128,-1,38
 147 1699 147 1699 192 1717 c 128,-1,39
 237 1735 237 1735 290 1735 c 0,20,21
EndSplineSet
EndChar

StartChar: tilde
Encoding: 732 732 217
Width: 871
Flags: W
LayerCount: 2
Fore
SplineSet
625 1312 m 0,0,1
 569 1312 569 1312 517 1330.5 c 128,-1,2
 465 1349 465 1349 420 1371.5 c 128,-1,3
 375 1394 375 1394 337 1412.5 c 128,-1,4
 299 1431 299 1431 272 1431 c 0,5,6
 243 1431 243 1431 228 1406.5 c 128,-1,7
 213 1382 213 1382 213 1316 c 1,8,-1
 57 1316 l 1,9,10
 57 1576 57 1576 258 1576 c 0,11,12
 314 1576 314 1576 360.5 1556.5 c 128,-1,13
 407 1537 407 1537 448.5 1513.5 c 128,-1,14
 490 1490 490 1490 527 1470.5 c 128,-1,15
 564 1451 564 1451 602 1451 c 0,16,17
 661 1451 661 1451 661 1562 c 1,18,-1
 817 1562 l 1,19,20
 817 1505 817 1505 803.5 1459 c 128,-1,21
 790 1413 790 1413 765 1380.5 c 128,-1,22
 740 1348 740 1348 704.5 1330 c 128,-1,23
 669 1312 669 1312 625 1312 c 0,0,1
EndSplineSet
EndChar

StartChar: circumflex
Encoding: 710 710 218
Width: 736
Flags: W
LayerCount: 2
Fore
SplineSet
156 1472 m 1,0,-1
 28 1550 l 1,1,-1
 320 2051 l 1,2,-1
 416 2051 l 1,3,-1
 708 1550 l 1,4,-1
 580 1472 l 1,5,-1
 368 1849 l 1,6,-1
 156 1472 l 1,0,-1
EndSplineSet
EndChar

StartChar: hungarumlaut
Encoding: 733 733 220
Width: 794
Flags: W
LayerCount: 2
Fore
SplineSet
435 1472 m 1,0,-1
 378 1498 l 1,1,-1
 537 2109 l 1,2,-1
 769 2018 l 1,3,-1
 435 1472 l 1,0,-1
101 1472 m 1,4,-1
 44 1498 l 1,5,-1
 203 2109 l 1,6,-1
 435 2018 l 1,7,-1
 101 1472 l 1,4,-1
EndSplineSet
EndChar

StartChar: caron
Encoding: 711 711 221
Width: 736
Flags: W
LayerCount: 2
Fore
SplineSet
368 1674 m 1,0,-1
 580 2051 l 1,1,-1
 708 1973 l 1,2,-1
 416 1472 l 1,3,-1
 320 1472 l 1,4,-1
 28 1973 l 1,5,-1
 156 2051 l 1,6,-1
 368 1674 l 1,0,-1
EndSplineSet
EndChar

StartChar: uni030F
Encoding: 783 783 222
Width: 794
Flags: W
LayerCount: 2
Fore
SplineSet
359 2018 m 1,0,-1
 591 2109 l 1,1,-1
 750 1498 l 1,2,-1
 693 1472 l 1,3,-1
 359 2018 l 1,0,-1
25 2018 m 1,4,-1
 257 2109 l 1,5,-1
 416 1498 l 1,6,-1
 359 1472 l 1,7,-1
 25 2018 l 1,4,-1
EndSplineSet
EndChar

StartChar: fraction
Encoding: 8260 8260 223
Width: 795
Flags: W
LayerCount: 2
Fore
SplineSet
788 1679 m 1,0,-1
 167 -172 l 1,1,-1
 7 -114 l 1,2,-1
 630 1731 l 1,3,-1
 788 1679 l 1,0,-1
EndSplineSet
EndChar

StartChar: dotaccent
Encoding: 729 729 224
Width: 463
Flags: W
LayerCount: 2
Fore
SplineSet
236 1577 m 0,0,1
 284 1577 284 1577 314 1543.5 c 128,-1,2
 344 1510 344 1510 344 1462 c 256,3,4
 344 1414 344 1414 314 1380.5 c 128,-1,5
 284 1347 284 1347 236 1347 c 0,6,7
 211 1347 211 1347 190.5 1356 c 128,-1,8
 170 1365 170 1365 155 1381 c 128,-1,9
 140 1397 140 1397 132 1418 c 128,-1,10
 124 1439 124 1439 124 1462 c 256,11,12
 124 1485 124 1485 132 1506 c 128,-1,13
 140 1527 140 1527 155 1542.5 c 128,-1,14
 170 1558 170 1558 190.5 1567.5 c 128,-1,15
 211 1577 211 1577 236 1577 c 0,0,1
EndSplineSet
EndChar

StartChar: florin
Encoding: 402 402 225
Width: 1334
Flags: W
LayerCount: 2
Fore
SplineSet
599 764 m 1,0,-1
 404 764 l 1,1,-1
 422 869 l 1,2,-1
 617 869 l 1,3,-1
 687 1268 l 2,4,5
 708 1387 708 1387 744.5 1463 c 128,-1,6
 781 1539 781 1539 832 1582.5 c 128,-1,7
 883 1626 883 1626 947 1642.5 c 128,-1,8
 1011 1659 1011 1659 1086 1659 c 0,9,10
 1130 1659 1130 1659 1171 1645.5 c 128,-1,11
 1212 1632 1212 1632 1243.5 1615.5 c 128,-1,12
 1275 1599 1275 1599 1293.5 1584 c 128,-1,13
 1312 1569 1312 1569 1312 1567 c 1,14,-1
 1227 1442 l 1,15,16
 1158 1516 1158 1516 1085 1516 c 0,17,18
 1037 1516 1037 1516 1004 1508.5 c 128,-1,19
 971 1501 971 1501 948.5 1479 c 128,-1,20
 926 1457 926 1457 911 1418 c 128,-1,21
 896 1379 896 1379 885 1316 c 2,22,-1
 807 869 l 1,23,-1
 1055 869 l 1,24,-1
 1037 764 l 1,25,-1
 789 764 l 1,26,-1
 656 0 l 2,27,28
 635 -119 635 -119 598 -195 c 128,-1,29
 561 -271 561 -271 510 -314.5 c 128,-1,30
 459 -358 459 -358 395.5 -374.5 c 128,-1,31
 332 -391 332 -391 257 -391 c 0,32,33
 213 -391 213 -391 172.5 -377.5 c 128,-1,34
 132 -364 132 -364 100.5 -347.5 c 128,-1,35
 69 -331 69 -331 50.5 -316 c 128,-1,36
 32 -301 32 -301 32 -299 c 1,37,-1
 117 -174 l 1,38,39
 186 -248 186 -248 258 -248 c 0,40,41
 306 -248 306 -248 339 -240.5 c 128,-1,42
 372 -233 372 -233 394.5 -211 c 128,-1,43
 417 -189 417 -189 432 -150 c 128,-1,44
 447 -111 447 -111 458 -48 c 2,45,-1
 599 764 l 1,0,-1
EndSplineSet
EndChar

StartChar: partialdiff
Encoding: 8706 8706 228
Width: 1059
Flags: W
LayerCount: 2
Fore
SplineSet
756 621 m 1,0,1
 771 708 771 708 778.5 789.5 c 128,-1,2
 786 871 786 871 786 946 c 0,3,4
 786 1075 786 1075 749.5 1140.5 c 128,-1,5
 713 1206 713 1206 641 1206 c 0,6,7
 586 1206 586 1206 514 1148 c 128,-1,8
 442 1090 442 1090 406 1090 c 256,9,10
 370 1090 370 1090 346 1112 c 128,-1,11
 322 1134 322 1134 322 1165 c 0,12,13
 322 1227 322 1227 394 1276 c 128,-1,14
 466 1325 466 1325 567 1325 c 0,15,16
 747 1325 747 1325 854 1170 c 128,-1,17
 961 1015 961 1015 961 752 c 0,18,19
 961 417 961 417 816.5 196 c 128,-1,20
 672 -25 672 -25 459 -25 c 0,21,22
 307 -25 307 -25 205.5 83 c 128,-1,23
 104 191 104 191 104 354 c 0,24,25
 104 552 104 552 214.5 680.5 c 128,-1,26
 325 809 325 809 487 809 c 0,27,28
 588 809 588 809 653 763.5 c 128,-1,29
 718 718 718 718 756 621 c 1,0,1
707 494 m 0,30,31
 707 610 707 610 663.5 672.5 c 128,-1,32
 620 735 620 735 541 735 c 0,33,34
 432 735 432 735 361.5 606 c 128,-1,35
 291 477 291 477 291 270 c 0,36,37
 291 154 291 154 334 92.5 c 128,-1,38
 377 31 377 31 457 31 c 0,39,40
 566 31 566 31 636.5 161 c 128,-1,41
 707 291 707 291 707 494 c 0,30,31
EndSplineSet
EndChar

StartChar: summation
Encoding: 8721 8721 229
Width: 1380
Flags: W
LayerCount: 2
Fore
SplineSet
55 1473 m 1,0,-1
 1313 1473 l 1,1,-1
 1313 1280 l 1,2,-1
 354 1280 l 1,3,-1
 1026 563 l 1,4,-1
 332 -201 l 1,5,-1
 1339 -201 l 1,6,-1
 1339 -393 l 1,7,-1
 25 -393 l 1,8,-1
 25 -244 l 1,9,-1
 750 557 l 1,10,-1
 55 1296 l 1,11,-1
 55 1473 l 1,0,-1
EndSplineSet
EndChar

StartChar: product
Encoding: 8719 8719 230
Width: 1550
Flags: W
LayerCount: 2
Fore
SplineSet
156 1473 m 1,0,-1
 1393 1473 l 1,1,-1
 1393 -393 l 1,2,-1
 1153 -393 l 1,3,-1
 1153 1268 l 1,4,-1
 395 1268 l 1,5,-1
 395 -393 l 1,6,-1
 156 -393 l 1,7,-1
 156 1473 l 1,0,-1
EndSplineSet
EndChar

StartChar: pi
Encoding: 960 960 231
Width: 1206
Flags: W
LayerCount: 2
Fore
SplineSet
1159 913 m 1,0,-1
 977 913 l 1,1,-1
 872 426 l 2,2,3
 857 352 857 352 849.5 306 c 128,-1,4
 842 260 842 260 842 238 c 0,5,6
 842 180 842 180 865.5 155.5 c 128,-1,7
 889 131 889 131 944 131 c 0,8,9
 961 131 961 131 984 133.5 c 128,-1,10
 1007 136 1007 136 1044 141 c 1,11,-1
 1014 0 l 1,12,13
 984 -8 984 -8 956.5 -12 c 128,-1,14
 929 -16 929 -16 903 -16 c 0,15,16
 785 -16 785 -16 724.5 35 c 128,-1,17
 664 86 664 86 664 186 c 0,18,19
 664 232 664 232 674.5 304 c 128,-1,20
 685 376 685 376 719 537 c 2,21,-1
 799 913 l 1,22,-1
 473 913 l 1,23,-1
 279 0 l 1,24,-1
 98 0 l 1,25,-1
 293 913 l 1,26,-1
 252 913 l 2,27,28
 198 913 198 913 168 881 c 128,-1,29
 138 849 138 849 129 780 c 1,30,-1
 -31 780 l 1,31,32
 -3 946 -3 946 68.5 1008.5 c 128,-1,33
 140 1071 140 1071 305 1071 c 2,34,-1
 1194 1071 l 1,35,-1
 1159 913 l 1,0,-1
EndSplineSet
EndChar

StartChar: integral
Encoding: 8747 8747 232
Width: 1067
Flags: W
LayerCount: 2
Fore
SplineSet
311 -262 m 0,0,1
 417 -262 417 -262 431 426 c 0,2,3
 433 534 433 534 434 591 c 0,4,5
 446 1106 446 1106 541 1328 c 128,-1,6
 636 1550 636 1550 838 1550 c 0,7,8
 918 1550 918 1550 968 1508 c 128,-1,9
 1018 1466 1018 1466 1018 1401 c 0,10,11
 1018 1347 1018 1347 986 1315.5 c 128,-1,12
 954 1284 954 1284 899 1284 c 0,13,14
 857 1284 857 1284 829 1303 c 128,-1,15
 801 1322 801 1322 789 1357 c 0,16,17
 783 1372 783 1372 778.5 1408 c 128,-1,18
 774 1444 774 1444 758 1444 c 0,19,20
 651 1444 651 1444 637 825 c 0,21,22
 633 632 633 632 629 522 c 0,23,24
 612 43 612 43 517.5 -164 c 128,-1,25
 423 -371 423 -371 227 -371 c 0,26,27
 148 -371 148 -371 97.5 -329.5 c 128,-1,28
 47 -288 47 -288 47 -223 c 0,29,30
 47 -167 47 -167 81 -135.5 c 128,-1,31
 115 -104 115 -104 176 -104 c 0,32,33
 209 -104 209 -104 233 -118.5 c 128,-1,34
 257 -133 257 -133 272 -161 c 0,35,36
 282 -179 282 -179 287 -220.5 c 128,-1,37
 292 -262 292 -262 311 -262 c 0,0,1
EndSplineSet
EndChar

StartChar: Omega
Encoding: 937 937 233
AltUni2: 002126.ffffffff.0
Width: 1565
Flags: W
LayerCount: 2
Fore
SplineSet
1487 178 m 1,0,-1
 1487 0 l 1,1,-1
 887 0 l 1,2,-1
 887 178 l 1,3,4
 1064 275 1064 275 1163 441 c 128,-1,5
 1262 607 1262 607 1262 809 c 0,6,7
 1262 1049 1262 1049 1130 1194 c 128,-1,8
 998 1339 998 1339 782 1339 c 256,9,10
 566 1339 566 1339 433.5 1193.5 c 128,-1,11
 301 1048 301 1048 301 809 c 0,12,13
 301 607 301 607 400.5 441 c 128,-1,14
 500 275 500 275 678 178 c 1,15,-1
 678 0 l 1,16,-1
 78 0 l 1,17,-1
 78 178 l 1,18,-1
 397 178 l 1,19,20
 239 317 239 317 166.5 466 c 128,-1,21
 94 615 94 615 94 799 c 0,22,23
 94 1117 94 1117 285.5 1314 c 128,-1,24
 477 1511 477 1511 782 1511 c 0,25,26
 1085 1511 1085 1511 1277.5 1314.5 c 128,-1,27
 1470 1118 1470 1118 1470 809 c 0,28,29
 1470 615 1470 615 1399 467 c 128,-1,30
 1328 319 1328 319 1167 178 c 1,31,-1
 1487 178 l 1,0,-1
EndSplineSet
EndChar

StartChar: notequal
Encoding: 8800 8800 234
Width: 1716
Flags: W
LayerCount: 2
Fore
SplineSet
217 930 m 1,0,-1
 989 930 l 1,1,-1
 1245 1245 l 1,2,-1
 1370 1143 l 1,3,-1
 1196 930 l 1,4,-1
 1499 930 l 1,5,-1
 1499 762 l 1,6,-1
 1059 762 l 1,7,-1
 864 522 l 1,8,-1
 1499 522 l 1,9,-1
 1499 352 l 1,10,-1
 725 352 l 1,11,-1
 467 39 l 1,12,-1
 342 141 l 1,13,-1
 516 352 l 1,14,-1
 217 352 l 1,15,-1
 217 522 l 1,16,-1
 655 522 l 1,17,-1
 850 762 l 1,18,-1
 217 762 l 1,19,-1
 217 930 l 1,0,-1
EndSplineSet
EndChar

StartChar: radical
Encoding: 8730 8730 235
Width: 1305
Flags: W
LayerCount: 2
Fore
SplineSet
1116 1661 m 1,0,-1
 1305 1661 l 1,1,-1
 1305 1565 l 1,2,-1
 1190 1565 l 1,3,-1
 596 -41 l 1,4,-1
 530 -41 l 1,5,-1
 211 842 l 1,6,-1
 86 797 l 1,7,-1
 61 877 l 1,8,-1
 344 975 l 1,9,-1
 600 266 l 1,10,-1
 1116 1661 l 1,0,-1
EndSplineSet
EndChar

StartChar: lozenge
Encoding: 9674 9674 236
Width: 1012
Flags: W
LayerCount: 2
Fore
SplineSet
506 1409 m 1,0,-1
 121 592 l 1,1,-1
 506 -233 l 1,2,-1
 891 592 l 1,3,-1
 506 1409 l 1,0,-1
506 1653 m 1,4,-1
 1006 592 l 1,5,-1
 506 -477 l 1,6,-1
 6 592 l 1,7,-1
 506 1653 l 1,4,-1
EndSplineSet
EndChar

StartChar: breve
Encoding: 728 728 239
Width: 1024
Flags: W
LayerCount: 2
Fore
SplineSet
199 1608 m 1,0,-1
 317 1608 l 1,1,2
 328 1533 328 1533 376.5 1495.5 c 128,-1,3
 425 1458 425 1458 512 1458 c 0,4,5
 598 1458 598 1458 646 1495 c 128,-1,6
 694 1532 694 1532 707 1608 c 1,7,-1
 825 1608 l 1,8,9
 815 1465 815 1465 736 1393 c 128,-1,10
 657 1321 657 1321 512 1321 c 256,11,12
 367 1321 367 1321 288 1393 c 128,-1,13
 209 1465 209 1465 199 1608 c 1,0,-1
EndSplineSet
EndChar

StartChar: ogonek
Encoding: 731 731 240
Width: 1024
Flags: W
LayerCount: 2
Fore
SplineSet
440 0 m 1,0,-1
 559 0 l 1,1,2
 514 -61 514 -61 492.5 -105 c 128,-1,3
 471 -149 471 -149 471 -180 c 0,4,5
 471 -226 471 -226 498.5 -249 c 128,-1,6
 526 -272 526 -272 580 -272 c 0,7,8
 612 -272 612 -272 643 -264.5 c 128,-1,9
 674 -257 674 -257 705 -242 c 1,10,-1
 705 -375 l 1,11,12
 667 -385 667 -385 633 -390 c 128,-1,13
 599 -395 599 -395 569 -395 c 0,14,15
 447 -395 447 -395 389.5 -351.5 c 128,-1,16
 332 -308 332 -308 332 -215 c 0,17,18
 332 -167 332 -167 358.5 -114.5 c 128,-1,19
 385 -62 385 -62 440 0 c 1,0,-1
EndSplineSet
EndChar

StartChar: infinity
Encoding: 8734 8734 241
Width: 1706
Flags: W
LayerCount: 2
Fore
SplineSet
915 559 m 1,0,1
 964 471 964 471 1031 426 c 128,-1,2
 1098 381 1098 381 1182 381 c 0,3,4
 1283 381 1283 381 1347 448.5 c 128,-1,5
 1411 516 1411 516 1411 621 c 0,6,7
 1411 722 1411 722 1352 789 c 128,-1,8
 1293 856 1293 856 1204 856 c 0,9,10
 1122 856 1122 856 1055.5 788.5 c 128,-1,11
 989 721 989 721 915 559 c 1,0,1
793 666 m 1,12,13
 744 754 744 754 677.5 798 c 128,-1,14
 611 842 611 842 526 842 c 0,15,16
 424 842 424 842 360.5 776 c 128,-1,17
 297 710 297 710 297 604 c 0,18,19
 297 503 297 503 356 436 c 128,-1,20
 415 369 415 369 504 369 c 0,21,22
 586 369 586 369 653 437 c 128,-1,23
 720 505 720 505 793 666 c 1,12,13
864 483 m 1,24,25
 794 348 794 348 715.5 284.5 c 128,-1,26
 637 221 637 221 543 221 c 0,27,28
 407 221 407 221 314 332.5 c 128,-1,29
 221 444 221 444 221 610 c 0,30,31
 221 785 221 785 304.5 893 c 128,-1,32
 388 1001 388 1001 522 1001 c 0,33,34
 617 1001 617 1001 693.5 938 c 128,-1,35
 770 875 770 875 842 737 c 1,36,37
 910 875 910 875 989 940.5 c 128,-1,38
 1068 1006 1068 1006 1165 1006 c 0,39,40
 1299 1006 1299 1006 1393 893.5 c 128,-1,41
 1487 781 1487 781 1487 614 c 0,42,43
 1487 439 1487 439 1403.5 332 c 128,-1,44
 1320 225 1320 225 1186 225 c 0,45,46
 1092 225 1092 225 1017.5 284.5 c 128,-1,47
 943 344 943 344 864 483 c 1,24,25
EndSplineSet
EndChar

StartChar: lessequal
Encoding: 8804 8804 242
Width: 651
Flags: W
LayerCount: 2
Fore
SplineSet
-309 1132 m 1,0,-1
 961 1597 l 1,1,-1
 961 1429 l 1,2,-1
 -121 1051 l 1,3,-1
 961 673 l 1,4,-1
 961 505 l 1,5,-1
 -309 970 l 1,6,-1
 -309 1132 l 1,0,-1
EndSplineSet
EndChar

StartChar: greaterequal
Encoding: 8805 8805 243
Width: 651
Flags: W
LayerCount: 2
Fore
SplineSet
961 970 m 1,0,-1
 -309 505 l 1,1,-1
 -309 673 l 1,2,-1
 773 1051 l 1,3,-1
 -309 1429 l 1,4,-1
 -309 1597 l 1,5,-1
 961 1132 l 1,6,-1
 961 970 l 1,0,-1
EndSplineSet
EndChar

StartChar: Delta
Encoding: 916 916 246
AltUni2: 002206.ffffffff.0
Width: 1012
Flags: W
LayerCount: 2
Fore
SplineSet
506 1409 m 1,0,-1
 171 632 l 1,1,-1
 841 632 l 1,2,-1
 506 1409 l 1,0,-1
506 1653 m 1,3,-1
 1006 540 l 1,4,-1
 6 540 l 1,5,-1
 506 1653 l 1,3,-1
EndSplineSet
EndChar

StartChar: threesuperior
Encoding: 65541 -1 250
Width: 919
Flags: W
LayerCount: 2
Fore
SplineSet
630 1337 m 1,0,1
 630 1403 630 1403 575.5 1439 c 128,-1,2
 521 1475 521 1475 406 1475 c 0,3,4
 377 1475 377 1475 346.5 1470.5 c 128,-1,5
 316 1466 316 1466 285 1458 c 128,-1,6
 254 1450 254 1450 225 1440 c 128,-1,7
 196 1430 196 1430 172 1418 c 1,8,-1
 125 1545 l 1,9,10
 127 1546 127 1546 150.5 1556.5 c 128,-1,11
 174 1567 174 1567 213 1579 c 128,-1,12
 252 1591 252 1591 303 1601 c 128,-1,13
 354 1611 354 1611 411 1611 c 0,14,15
 448 1611 448 1611 490 1606 c 128,-1,16
 532 1601 532 1601 573.5 1589 c 128,-1,17
 615 1577 615 1577 653 1557.5 c 128,-1,18
 691 1538 691 1538 720 1509 c 128,-1,19
 749 1480 749 1480 766.5 1440 c 128,-1,20
 784 1400 784 1400 784 1348 c 0,21,22
 783 1280 783 1280 755 1234 c 128,-1,23
 727 1188 727 1188 688.5 1159.5 c 128,-1,24
 650 1131 650 1131 608.5 1118.5 c 128,-1,25
 567 1106 567 1106 539 1106 c 1,26,27
 564 1102 564 1102 594 1094.5 c 128,-1,28
 624 1087 624 1087 654.5 1074 c 128,-1,29
 685 1061 685 1061 713.5 1041.5 c 128,-1,30
 742 1022 742 1022 764.5 994.5 c 128,-1,31
 787 967 787 967 800.5 931 c 128,-1,32
 814 895 814 895 815 849 c 1,33,34
 815 775 815 775 779 723 c 128,-1,35
 743 671 743 671 685.5 638 c 128,-1,36
 628 605 628 605 557.5 589.5 c 128,-1,37
 487 574 487 574 418 574 c 0,38,39
 365 574 365 574 317 582 c 128,-1,40
 269 590 269 590 227.5 602 c 128,-1,41
 186 614 186 614 153 627.5 c 128,-1,42
 120 641 120 641 98 652 c 1,43,-1
 149 779 l 1,44,45
 149 779 149 779 171.5 768 c 128,-1,46
 194 757 194 757 232 743 c 128,-1,47
 270 729 270 729 321 717.5 c 128,-1,48
 372 706 372 706 429 706 c 1,49,50
 477 707 477 707 517.5 718 c 128,-1,51
 558 729 558 729 587.5 748.5 c 128,-1,52
 617 768 617 768 633 795.5 c 128,-1,53
 649 823 649 823 649 857 c 0,54,55
 649 931 649 931 584.5 977.5 c 128,-1,56
 520 1024 520 1024 387 1036 c 1,57,-1
 387 1171 l 1,58,59
 433 1171 433 1171 476.5 1181 c 128,-1,60
 520 1191 520 1191 553.5 1211.5 c 128,-1,61
 587 1232 587 1232 608 1263 c 128,-1,62
 629 1294 629 1294 630 1337 c 1,0,1
EndSplineSet
EndChar

StartChar: twosuperior
Encoding: 65542 -1 251
Width: 889
Flags: W
LayerCount: 2
Fore
SplineSet
326 794 m 1,0,-1
 732 794 l 1,1,-1
 732 642 l 1,2,-1
 94 642 l 1,3,-1
 94 779 l 1,4,-1
 365 1019 l 2,5,6
 433 1079 433 1079 476.5 1122 c 128,-1,7
 520 1165 520 1165 544.5 1199 c 128,-1,8
 569 1233 569 1233 578.5 1263 c 128,-1,9
 588 1293 588 1293 588 1328 c 0,10,11
 588 1398 588 1398 536 1433.5 c 128,-1,12
 484 1469 484 1469 399 1469 c 0,13,14
 360 1469 360 1469 310.5 1460.5 c 128,-1,15
 261 1452 261 1452 216.5 1442.5 c 128,-1,16
 172 1433 172 1433 141.5 1425 c 128,-1,17
 111 1417 111 1417 111 1417 c 1,18,-1
 111 1562 l 1,19,20
 111 1562 111 1562 133.5 1570 c 128,-1,21
 156 1578 156 1578 196.5 1587 c 128,-1,22
 237 1596 237 1596 293 1604 c 128,-1,23
 349 1612 349 1612 417 1612 c 0,24,25
 517 1612 517 1612 583 1584 c 128,-1,26
 649 1556 649 1556 688.5 1514 c 128,-1,27
 728 1472 728 1472 744 1422.5 c 128,-1,28
 760 1373 760 1373 760 1331 c 0,29,30
 760 1283 760 1283 748 1240.5 c 128,-1,31
 736 1198 736 1198 708 1154.5 c 128,-1,32
 680 1111 680 1111 633.5 1063 c 128,-1,33
 587 1015 587 1015 517 956 c 2,34,-1
 326 794 l 1,0,-1
EndSplineSet
EndChar

StartChar: onesuperior
Encoding: 65543 -1 252
Width: 617
Flags: W
LayerCount: 2
Fore
SplineSet
345 649 m 1,0,-1
 345 1494 l 1,1,-1
 175 1422 l 1,2,-1
 137 1515 l 1,3,-1
 375 1610 l 1,4,-1
 505 1584 l 1,5,-1
 505 649 l 1,6,-1
 345 649 l 1,0,-1
EndSplineSet
EndChar

StartChar: uni0326
Encoding: 806 806 264
Width: 616
Flags: W
LayerCount: 2
Fore
SplineSet
160 -420 m 1,0,-1
 160 -177 l 1,1,-1
 441 -177 l 1,2,-1
 441 -376 l 2,3,4
 441 -510 441 -510 382.5 -598.5 c 128,-1,5
 324 -687 324 -687 212 -723 c 1,6,-1
 161 -629 l 1,7,8
 199 -613 199 -613 224 -593.5 c 128,-1,9
 249 -574 249 -574 264 -549.5 c 128,-1,10
 279 -525 279 -525 285 -493.5 c 128,-1,11
 291 -462 291 -462 291 -420 c 1,12,-1
 160 -420 l 1,0,-1
EndSplineSet
EndChar

StartChar: uni0311
Encoding: 785 785 289
Width: 1024
Flags: W
LayerCount: 2
Fore
SplineSet
199 1321 m 1,0,1
 209 1464 209 1464 288 1536 c 128,-1,2
 367 1608 367 1608 512 1608 c 256,3,4
 657 1608 657 1608 736 1536 c 128,-1,5
 815 1464 815 1464 825 1321 c 1,6,-1
 707 1321 l 1,7,8
 694 1397 694 1397 646 1434 c 128,-1,9
 598 1471 598 1471 512 1471 c 0,10,11
 425 1471 425 1471 376.5 1433.5 c 128,-1,12
 328 1396 328 1396 317 1321 c 1,13,-1
 199 1321 l 1,0,1
EndSplineSet
EndChar

StartChar: foursuperior
Encoding: 8308 8308 291
Width: 1277
Flags: W
LayerCount: 2
Fore
SplineSet
801 1578 m 1,0,-1
 929 1547 l 1,1,-1
 929 777 l 1,2,-1
 1080 777 l 1,3,-1
 1080 666 l 1,4,-1
 929 666 l 1,5,-1
 929 405 l 1,6,-1
 784 382 l 1,7,-1
 784 666 l 1,8,-1
 259 666 l 1,9,-1
 237 776 l 1,10,-1
 801 1578 l 1,0,-1
396 776 m 1,11,-1
 784 776 l 1,12,-1
 784 1335 l 1,13,-1
 662 1146 l 1,14,-1
 396 776 l 1,11,-1
EndSplineSet
EndChar

StartChar: minus
Encoding: 8722 8722 292
Width: 1716
Flags: W
LayerCount: 2
Fore
SplineSet
217 727 m 1,0,-1
 1499 727 l 1,1,-1
 1499 557 l 1,2,-1
 217 557 l 1,3,-1
 217 727 l 1,0,-1
EndSplineSet
EndChar

StartChar: Euro
Encoding: 65544 -1 293
Width: 1036
Flags: W
LayerCount: 2
Fore
SplineSet
588 641 m 1,0,-1
 322 641 l 1,1,2
 321 629 321 629 321 616.5 c 128,-1,3
 321 604 321 604 321 592 c 0,4,5
 321 579 321 579 321 567 c 128,-1,6
 321 555 321 555 322 544 c 1,7,-1
 588 544 l 1,8,-1
 588 413 l 1,9,-1
 339 413 l 1,10,11
 358 319 358 319 395 260 c 128,-1,12
 432 201 432 201 478.5 168 c 128,-1,13
 525 135 525 135 576 123 c 128,-1,14
 627 111 627 111 672 111 c 0,15,16
 749 111 749 111 804 133.5 c 128,-1,17
 859 156 859 156 900 195 c 1,18,-1
 900 17 l 1,19,20
 851 -6 851 -6 794 -18.5 c 128,-1,21
 737 -31 737 -31 672 -31 c 0,22,23
 547 -31 547 -31 457.5 8.5 c 128,-1,24
 368 48 368 48 306.5 111 c 128,-1,25
 245 174 245 174 208.5 253.5 c 128,-1,26
 172 333 172 333 155 413 c 1,27,-1
 0 413 l 1,28,-1
 0 544 l 1,29,-1
 136 544 l 1,30,31
 135 556 135 556 135 567.5 c 128,-1,32
 135 579 135 579 135 590 c 0,33,34
 135 603 135 603 135 615.5 c 128,-1,35
 135 628 135 628 136 641 c 1,36,-1
 0 641 l 1,37,-1
 0 772 l 1,38,-1
 153 772 l 1,39,40
 173 869 173 869 216 949.5 c 128,-1,41
 259 1030 259 1030 324 1088 c 128,-1,42
 389 1146 389 1146 476 1178 c 128,-1,43
 563 1210 563 1210 672 1210 c 0,44,45
 740 1210 740 1210 796 1197.5 c 128,-1,46
 852 1185 852 1185 900 1162 c 1,47,-1
 900 987 l 1,48,49
 859 1025 859 1025 804 1047 c 128,-1,50
 749 1069 749 1069 672 1069 c 256,51,52
 595 1069 595 1069 538 1046 c 128,-1,53
 481 1023 481 1023 441 982.5 c 128,-1,54
 401 942 401 942 376.5 888 c 128,-1,55
 352 834 352 834 339 772 c 1,56,-1
 588 772 l 1,57,-1
 588 641 l 1,0,-1
EndSplineSet
EndChar

StartChar: dotaccentcmb
Encoding: 775 775 336
Width: 463
Flags: W
LayerCount: 2
Fore
SplineSet
236 1577 m 0,0,1
 284 1577 284 1577 314 1543.5 c 128,-1,2
 344 1510 344 1510 344 1462 c 256,3,4
 344 1414 344 1414 314 1380.5 c 128,-1,5
 284 1347 284 1347 236 1347 c 0,6,7
 211 1347 211 1347 190.5 1356 c 128,-1,8
 170 1365 170 1365 155 1381 c 128,-1,9
 140 1397 140 1397 132 1418 c 128,-1,10
 124 1439 124 1439 124 1462 c 256,11,12
 124 1485 124 1485 132 1506 c 128,-1,13
 140 1527 140 1527 155 1542.5 c 128,-1,14
 170 1558 170 1558 190.5 1567.5 c 128,-1,15
 211 1577 211 1577 236 1577 c 0,0,1
EndSplineSet
EndChar

StartChar: commaaccent
Encoding: 65549 -1 337
Width: 651
Flags: W
LayerCount: 2
Fore
SplineSet
185 410 m 1,0,-1
 185 653 l 1,1,-1
 466 653 l 1,2,-1
 466 454 l 2,3,4
 466 320 466 320 407.5 231.5 c 128,-1,5
 349 143 349 143 237 107 c 1,6,-1
 186 201 l 1,7,8
 224 217 224 217 249 236.5 c 128,-1,9
 274 256 274 256 289 280.5 c 128,-1,10
 304 305 304 305 310 336.5 c 128,-1,11
 316 368 316 368 316 410 c 1,12,-1
 185 410 l 1,0,-1
EndSplineSet
EndChar

StartChar: grave.cap
Encoding: 65550 -1 338
Width: 940
Flags: W
LayerCount: 2
Fore
SplineSet
565 1498 m 1,0,-1
 498 1472 l 1,1,-1
 170 2027 l 1,2,-1
 412 2116 l 1,3,-1
 565 1498 l 1,0,-1
EndSplineSet
EndChar

StartChar: acute.cap
Encoding: 65551 -1 339
Width: 936
Flags: W
LayerCount: 2
Fore
SplineSet
428 1472 m 1,0,-1
 371 1498 l 1,1,-1
 530 2109 l 1,2,-1
 762 2018 l 1,3,-1
 428 1472 l 1,0,-1
EndSplineSet
EndChar

StartChar: circumflex.cap
Encoding: 65552 -1 340
Width: 736
Flags: W
LayerCount: 2
Fore
SplineSet
156 1472 m 1,0,-1
 28 1550 l 1,1,-1
 320 2051 l 1,2,-1
 416 2051 l 1,3,-1
 708 1550 l 1,4,-1
 580 1472 l 1,5,-1
 368 1849 l 1,6,-1
 156 1472 l 1,0,-1
EndSplineSet
EndChar

StartChar: dieresis.cap
Encoding: 65553 -1 341
Width: 1140
Flags: W
LayerCount: 2
Fore
SplineSet
327 1588 m 0,0,1
 375 1588 375 1588 405 1554.5 c 128,-1,2
 435 1521 435 1521 435 1473 c 256,3,4
 435 1425 435 1425 405 1391.5 c 128,-1,5
 375 1358 375 1358 327 1358 c 0,6,7
 302 1358 302 1358 281.5 1367 c 128,-1,8
 261 1376 261 1376 246 1392 c 128,-1,9
 231 1408 231 1408 223 1429 c 128,-1,10
 215 1450 215 1450 215 1473 c 256,11,12
 215 1496 215 1496 223 1517 c 128,-1,13
 231 1538 231 1538 246 1553.5 c 128,-1,14
 261 1569 261 1569 281.5 1578.5 c 128,-1,15
 302 1588 302 1588 327 1588 c 0,0,1
817 1588 m 0,16,17
 865 1588 865 1588 895 1554.5 c 128,-1,18
 925 1521 925 1521 925 1473 c 256,19,20
 925 1425 925 1425 895 1391.5 c 128,-1,21
 865 1358 865 1358 817 1358 c 0,22,23
 792 1358 792 1358 771.5 1367 c 128,-1,24
 751 1376 751 1376 736 1392 c 128,-1,25
 721 1408 721 1408 713 1429 c 128,-1,26
 705 1450 705 1450 705 1473 c 256,27,28
 705 1496 705 1496 713 1517 c 128,-1,29
 721 1538 721 1538 736 1553.5 c 128,-1,30
 751 1569 751 1569 771.5 1578.5 c 128,-1,31
 792 1588 792 1588 817 1588 c 0,16,17
EndSplineSet
EndChar

StartChar: caron.cap
Encoding: 65554 -1 342
Width: 736
Flags: W
LayerCount: 2
Fore
SplineSet
368 1674 m 1,0,-1
 580 2051 l 1,1,-1
 708 1973 l 1,2,-1
 416 1472 l 1,3,-1
 320 1472 l 1,4,-1
 28 1973 l 1,5,-1
 156 2051 l 1,6,-1
 368 1674 l 1,0,-1
EndSplineSet
EndChar

StartChar: ring.cap
Encoding: 65555 -1 343
Width: 573
Flags: W
LayerCount: 2
Fore
SplineSet
288 1644 m 0,0,1
 256 1644 256 1644 229.5 1632 c 128,-1,2
 203 1620 203 1620 184 1600 c 128,-1,3
 165 1580 165 1580 154 1552.5 c 128,-1,4
 143 1525 143 1525 143 1495 c 0,5,6
 143 1464 143 1464 154.5 1437 c 128,-1,7
 166 1410 166 1410 185.5 1389.5 c 128,-1,8
 205 1369 205 1369 231.5 1357.5 c 128,-1,9
 258 1346 258 1346 288 1346 c 0,10,11
 319 1346 319 1346 345 1357.5 c 128,-1,12
 371 1369 371 1369 390 1389.5 c 128,-1,13
 409 1410 409 1410 419 1437 c 128,-1,14
 429 1464 429 1464 429 1495 c 256,15,16
 429 1526 429 1526 419 1553.5 c 128,-1,17
 409 1581 409 1581 390 1601 c 128,-1,18
 371 1621 371 1621 345 1632.5 c 128,-1,19
 319 1644 319 1644 288 1644 c 0,0,1
290 1735 m 0,20,21
 342 1735 342 1735 385.5 1717 c 128,-1,22
 429 1699 429 1699 460 1666.5 c 128,-1,23
 491 1634 491 1634 508.5 1590 c 128,-1,24
 526 1546 526 1546 526 1495 c 256,25,26
 526 1444 526 1444 509 1400 c 128,-1,27
 492 1356 492 1356 461 1324 c 128,-1,28
 430 1292 430 1292 386.5 1274 c 128,-1,29
 343 1256 343 1256 290 1256 c 0,30,31
 236 1256 236 1256 191 1274.5 c 128,-1,32
 146 1293 146 1293 113.5 1325 c 128,-1,33
 81 1357 81 1357 63.5 1400.5 c 128,-1,34
 46 1444 46 1444 46 1495 c 0,35,36
 46 1547 46 1547 64 1591 c 128,-1,37
 82 1635 82 1635 114.5 1667 c 128,-1,38
 147 1699 147 1699 192 1717 c 128,-1,39
 237 1735 237 1735 290 1735 c 0,20,21
EndSplineSet
EndChar

StartChar: tilde.cap
Encoding: 65556 -1 344
Width: 871
Flags: W
LayerCount: 2
Fore
SplineSet
625 1312 m 0,0,1
 569 1312 569 1312 517 1330.5 c 128,-1,2
 465 1349 465 1349 420 1371.5 c 128,-1,3
 375 1394 375 1394 337 1412.5 c 128,-1,4
 299 1431 299 1431 272 1431 c 0,5,6
 243 1431 243 1431 228 1406.5 c 128,-1,7
 213 1382 213 1382 213 1316 c 1,8,-1
 57 1316 l 1,9,10
 57 1576 57 1576 258 1576 c 0,11,12
 314 1576 314 1576 360.5 1556.5 c 128,-1,13
 407 1537 407 1537 448.5 1513.5 c 128,-1,14
 490 1490 490 1490 527 1470.5 c 128,-1,15
 564 1451 564 1451 602 1451 c 0,16,17
 661 1451 661 1451 661 1562 c 1,18,-1
 817 1562 l 1,19,20
 817 1505 817 1505 803.5 1459 c 128,-1,21
 790 1413 790 1413 765 1380.5 c 128,-1,22
 740 1348 740 1348 704.5 1330 c 128,-1,23
 669 1312 669 1312 625 1312 c 0,0,1
EndSplineSet
EndChar

StartChar: dotaccentcmb.cap
Encoding: 65557 -1 345
Width: 463
Flags: W
LayerCount: 2
Fore
SplineSet
236 1577 m 0,0,1
 284 1577 284 1577 314 1543.5 c 128,-1,2
 344 1510 344 1510 344 1462 c 256,3,4
 344 1414 344 1414 314 1380.5 c 128,-1,5
 284 1347 284 1347 236 1347 c 0,6,7
 211 1347 211 1347 190.5 1356 c 128,-1,8
 170 1365 170 1365 155 1381 c 128,-1,9
 140 1397 140 1397 132 1418 c 128,-1,10
 124 1439 124 1439 124 1462 c 256,11,12
 124 1485 124 1485 132 1506 c 128,-1,13
 140 1527 140 1527 155 1542.5 c 128,-1,14
 170 1558 170 1558 190.5 1567.5 c 128,-1,15
 211 1577 211 1577 236 1577 c 0,0,1
EndSplineSet
EndChar

StartChar: dotlessj
Encoding: 567 567 346
Width: 545
Flags: W
LayerCount: 2
Fore
SplineSet
-37 -258 m 1,0,1
 30 -215 30 -215 68 -168 c 128,-1,2
 106 -121 106 -121 124.5 -67.5 c 128,-1,3
 143 -14 143 -14 147 46.5 c 128,-1,4
 151 107 151 107 151 176 c 2,5,-1
 151 1169 l 1,6,-1
 341 1169 l 1,7,-1
 341 154 l 2,8,9
 341 38 341 38 314 -52.5 c 128,-1,10
 287 -143 287 -143 241.5 -209 c 128,-1,11
 196 -275 196 -275 136 -316 c 128,-1,12
 76 -357 76 -357 10 -373 c 1,13,-1
 -37 -258 l 1,0,1
245 1577 m 0,14,15
 293 1577 293 1577 323 1543.5 c 128,-1,16
 353 1510 353 1510 353 1462 c 256,17,18
 353 1414 353 1414 323 1380.5 c 128,-1,19
 293 1347 293 1347 245 1347 c 0,20,21
 220 1347 220 1347 199.5 1356 c 128,-1,22
 179 1365 179 1365 164 1381 c 128,-1,23
 149 1397 149 1397 141 1418 c 128,-1,24
 133 1439 133 1439 133 1462 c 256,25,26
 133 1485 133 1485 141 1506 c 128,-1,27
 149 1527 149 1527 164 1542.5 c 128,-1,28
 179 1558 179 1558 199.5 1567.5 c 128,-1,29
 220 1577 220 1577 245 1577 c 0,14,15
EndSplineSet
EndChar
